Kaisei-Shared-Regular.ufo
<glyph name="exclam" format="2">
  <advance height="1000" width="400"/>
  <unicode hex="0021"/>
  <note>
cid00002
</note>
  <outline>
    <contour>
      <point x="187" y="213" type="curve"/>
      <point x="213" y="213" type="line"/>
      <point x="226" y="345"/>
      <point x="237" y="477"/>
      <point x="250" y="609" type="curve" smooth="yes"/>
      <point x="253" y="635"/>
      <point x="258" y="661"/>
      <point x="258" y="687" type="curve" smooth="yes"/>
      <point x="258" y="722"/>
      <point x="233" y="739"/>
      <point x="200" y="739" type="curve" smooth="yes"/>
      <point x="166" y="739"/>
      <point x="142" y="723"/>
      <point x="142" y="687" type="curve" smooth="yes"/>
      <point x="142" y="660"/>
      <point x="147" y="633"/>
      <point x="150" y="606" type="curve" smooth="yes"/>
      <point x="162" y="475"/>
      <point x="177" y="344"/>
    </contour>
    <contour>
      <point x="200" y="4" type="curve" smooth="yes"/>
      <point x="238" y="4"/>
      <point x="271" y="34"/>
      <point x="271" y="73" type="curve" smooth="yes"/>
      <point x="271" y="112"/>
      <point x="238" y="140"/>
      <point x="200" y="140" type="curve" smooth="yes"/>
      <point x="162" y="140"/>
      <point x="129" y="112"/>
      <point x="129" y="73" type="curve" smooth="yes"/>
      <point x="129" y="34"/>
      <point x="162" y="4"/>
    </contour>
  </outline>
</glyph>
<glyph name="quotedbl" format="2">
  <advance height="1000" width="390"/>
  <unicode hex="0022"/>
  <note>
cid00003
</note>
  <outline>
    <contour>
      <point x="272" y="448" type="curve"/>
      <point x="279" y="452"/>
      <point x="282" y="462"/>
      <point x="284" y="469" type="curve" smooth="yes"/>
      <point x="293" y="505"/>
      <point x="299" y="558"/>
      <point x="304" y="596" type="curve" smooth="yes"/>
      <point x="309" y="630"/>
      <point x="316" y="666"/>
      <point x="316" y="700" type="curve" smooth="yes"/>
      <point x="316" y="725"/>
      <point x="296" y="738"/>
      <point x="272" y="738" type="curve" smooth="yes"/>
      <point x="247" y="738"/>
      <point x="225" y="728"/>
      <point x="225" y="700" type="curve" smooth="yes"/>
      <point x="225" y="687"/>
      <point x="228" y="675"/>
      <point x="230" y="662" type="curve" smooth="yes"/>
      <point x="234" y="640"/>
      <point x="236" y="618"/>
      <point x="238" y="596" type="curve" smooth="yes"/>
      <point x="243" y="554"/>
      <point x="249" y="510"/>
      <point x="257" y="469" type="curve" smooth="yes"/>
      <point x="259" y="460"/>
      <point x="261" y="448"/>
    </contour>
    <contour>
      <point x="119" y="448" type="curve" smooth="yes"/>
      <point x="127" y="448"/>
      <point x="131" y="463"/>
      <point x="132" y="469" type="curve" smooth="yes"/>
      <point x="142" y="508"/>
      <point x="146" y="551"/>
      <point x="152" y="591" type="curve" smooth="yes"/>
      <point x="156" y="621"/>
      <point x="165" y="670"/>
      <point x="165" y="700" type="curve" smooth="yes"/>
      <point x="165" y="724"/>
      <point x="142" y="738"/>
      <point x="120" y="738" type="curve" smooth="yes"/>
      <point x="96" y="738"/>
      <point x="74" y="726"/>
      <point x="74" y="700" type="curve" smooth="yes"/>
      <point x="74" y="672"/>
      <point x="83" y="625"/>
      <point x="86" y="596" type="curve" smooth="yes"/>
      <point x="90" y="554"/>
      <point x="96" y="509"/>
      <point x="106" y="469" type="curve" smooth="yes"/>
      <point x="107" y="464"/>
      <point x="111" y="448"/>
    </contour>
  </outline>
</glyph>
<glyph name="numbersign" format="2">
  <advance height="1000" width="780"/>
  <unicode hex="0023"/>
  <note>
cid00004
</note>
  <outline>
    <contour>
      <point x="177" y="-6" type="line"/>
      <point x="227" y="-6" type="line"/>
      <point x="274" y="250" type="line"/>
      <point x="457" y="250" type="line"/>
      <point x="411" y="-6" type="line"/>
      <point x="463" y="-6" type="line"/>
      <point x="508" y="250" type="line"/>
      <point x="642" y="250" type="line"/>
      <point x="655" y="314" type="line"/>
      <point x="520" y="314" type="line"/>
      <point x="552" y="497" type="line"/>
      <point x="684" y="497" type="line"/>
      <point x="697" y="560" type="line"/>
      <point x="564" y="560" type="line"/>
      <point x="598" y="760" type="line"/>
      <point x="548" y="760" type="line"/>
      <point x="512" y="560" type="line"/>
      <point x="331" y="560" type="line"/>
      <point x="366" y="760" type="line"/>
      <point x="315" y="760" type="line"/>
      <point x="280" y="560" type="line"/>
      <point x="138" y="560" type="line"/>
      <point x="125" y="497" type="line"/>
      <point x="268" y="497" type="line"/>
      <point x="237" y="314" type="line"/>
      <point x="96" y="314" type="line"/>
      <point x="83" y="250" type="line"/>
      <point x="226" y="250" type="line"/>
    </contour>
    <contour>
      <point x="286" y="314" type="line"/>
      <point x="318" y="497" type="line"/>
      <point x="501" y="497" type="line"/>
      <point x="469" y="314" type="line"/>
    </contour>
  </outline>
</glyph>
<glyph name="dollar" format="2">
  <advance height="1000" width="700"/>
  <unicode hex="0024"/>
  <note>
cid00005
</note>
  <outline>
    <contour>
      <point x="327" y="-76" type="line"/>
      <point x="363" y="-76" type="line"/>
      <point x="363" y="-1" type="line"/>
      <point x="476" y="12"/>
      <point x="593" y="59"/>
      <point x="593" y="192" type="curve" smooth="yes"/>
      <point x="593" y="331"/>
      <point x="469" y="377"/>
      <point x="363" y="426" type="curve"/>
      <point x="363" y="720" type="line"/>
      <point x="423" y="706"/>
      <point x="478" y="665"/>
      <point x="496" y="604" type="curve" smooth="yes"/>
      <point x="501" y="586"/>
      <point x="503" y="568"/>
      <point x="507" y="549" type="curve" smooth="yes"/>
      <point x="509" y="539"/>
      <point x="513" y="538"/>
      <point x="524" y="538" type="curve" smooth="yes"/>
      <point x="541" y="538"/>
      <point x="553" y="542"/>
      <point x="553" y="562" type="curve" smooth="yes"/>
      <point x="553" y="568"/>
      <point x="552" y="573"/>
      <point x="550" y="578" type="curve"/>
      <point x="543" y="606"/>
      <point x="538" y="667"/>
      <point x="536" y="697" type="curve"/>
      <point x="514" y="699"/>
      <point x="485" y="703"/>
      <point x="465" y="712" type="curve" smooth="yes"/>
      <point x="431" y="728"/>
      <point x="400" y="737"/>
      <point x="363" y="739" type="curve"/>
      <point x="363" y="808" type="line"/>
      <point x="327" y="808" type="line"/>
      <point x="327" y="740" type="line"/>
      <point x="218" y="732"/>
      <point x="115" y="675"/>
      <point x="115" y="554" type="curve" smooth="yes"/>
      <point x="115" y="478"/>
      <point x="187" y="419"/>
      <point x="250" y="389" type="curve" smooth="yes"/>
      <point x="276" y="377"/>
      <point x="301" y="365"/>
      <point x="327" y="352" type="curve"/>
      <point x="327" y="28" type="line"/>
      <point x="246" y="34"/>
      <point x="185" y="59"/>
      <point x="160" y="141" type="curve" smooth="yes"/>
      <point x="155" y="158"/>
      <point x="151" y="174"/>
      <point x="149" y="191" type="curve" smooth="yes"/>
      <point x="146" y="206"/>
      <point x="142" y="215"/>
      <point x="125" y="215" type="curve" smooth="yes"/>
      <point x="114" y="215"/>
      <point x="107" y="211"/>
      <point x="107" y="200" type="curve" smooth="yes"/>
      <point x="107" y="154"/>
      <point x="123" y="94"/>
      <point x="130" y="48" type="curve"/>
      <point x="160" y="42"/>
      <point x="185" y="26"/>
      <point x="213" y="15" type="curve" smooth="yes"/>
      <point x="250" y="1"/>
      <point x="287" y="-2"/>
      <point x="327" y="-3" type="curve"/>
    </contour>
    <contour>
      <point x="363" y="28" type="curve"/>
      <point x="363" y="334" type="line"/>
      <point x="427" y="298"/>
      <point x="492" y="260"/>
      <point x="492" y="177" type="curve" smooth="yes"/>
      <point x="492" y="88"/>
      <point x="441" y="54"/>
    </contour>
    <contour>
      <point x="327" y="442" type="line"/>
      <point x="271" y="476"/>
      <point x="203" y="516"/>
      <point x="203" y="589" type="curve" smooth="yes"/>
      <point x="203" y="673"/>
      <point x="251" y="704"/>
      <point x="327" y="720" type="curve"/>
    </contour>
  </outline>
</glyph>
<glyph name="percent" format="2">
  <advance height="1000" width="886"/>
  <unicode hex="0025"/>
  <note>
cid00006
</note>
  <outline>
    <contour>
      <point x="140" y="-21" type="line"/>
      <point x="764" y="719" type="line"/>
      <point x="737" y="739" type="line"/>
      <point x="112" y="0" type="line"/>
    </contour>
    <contour>
      <point x="234" y="350" type="curve" smooth="yes"/>
      <point x="326" y="350"/>
      <point x="409" y="451"/>
      <point x="409" y="539" type="curve" smooth="yes"/>
      <point x="409" y="636"/>
      <point x="339" y="738"/>
      <point x="234" y="738" type="curve" smooth="yes"/>
      <point x="141" y="738"/>
      <point x="62" y="626"/>
      <point x="62" y="539" type="curve" smooth="yes"/>
      <point x="62" y="448"/>
      <point x="138" y="350"/>
    </contour>
    <contour>
      <point x="234" y="374" type="curve" smooth="yes"/>
      <point x="155" y="374"/>
      <point x="141" y="479"/>
      <point x="141" y="539" type="curve" smooth="yes"/>
      <point x="141" y="607"/>
      <point x="141" y="715"/>
      <point x="234" y="715" type="curve" smooth="yes"/>
      <point x="328" y="715"/>
      <point x="328" y="607"/>
      <point x="328" y="539" type="curve" smooth="yes"/>
      <point x="328" y="470"/>
      <point x="328" y="374"/>
    </contour>
    <contour>
      <point x="649" y="-5" type="curve" smooth="yes"/>
      <point x="741" y="-5"/>
      <point x="824" y="96"/>
      <point x="824" y="184" type="curve" smooth="yes"/>
      <point x="824" y="281"/>
      <point x="754" y="383"/>
      <point x="649" y="383" type="curve" smooth="yes"/>
      <point x="556" y="383"/>
      <point x="477" y="271"/>
      <point x="477" y="184" type="curve" smooth="yes"/>
      <point x="477" y="92"/>
      <point x="553" y="-5"/>
    </contour>
    <contour>
      <point x="649" y="19" type="curve" smooth="yes"/>
      <point x="570" y="19"/>
      <point x="556" y="124"/>
      <point x="556" y="184" type="curve" smooth="yes"/>
      <point x="556" y="252"/>
      <point x="556" y="360"/>
      <point x="649" y="360" type="curve" smooth="yes"/>
      <point x="743" y="360"/>
      <point x="743" y="252"/>
      <point x="743" y="184" type="curve" smooth="yes"/>
      <point x="743" y="115"/>
      <point x="743" y="19"/>
    </contour>
  </outline>
</glyph>
<glyph name="ampersand" format="2">
  <advance height="1000" width="758"/>
  <unicode hex="0026"/>
  <note>
cid00007
</note>
  <outline>
    <contour>
      <point x="674" y="-13" type="curve" smooth="yes"/>
      <point x="709" y="-13"/>
      <point x="761" y="4"/>
      <point x="771" y="42" type="curve"/>
      <point x="754" y="35"/>
      <point x="737" y="31"/>
      <point x="719" y="31" type="curve" smooth="yes"/>
      <point x="663" y="31"/>
      <point x="588" y="62"/>
      <point x="545" y="99" type="curve"/>
      <point x="602" y="149"/>
      <point x="622" y="210"/>
      <point x="622" y="284" type="curve" smooth="yes"/>
      <point x="622" y="333"/>
      <point x="562" y="372"/>
      <point x="521" y="384" type="curve"/>
      <point x="567" y="387"/>
      <point x="614" y="392"/>
      <point x="660" y="392" type="curve" smooth="yes"/>
      <point x="666" y="392"/>
      <point x="683" y="390"/>
      <point x="687" y="392" type="curve"/>
      <point x="697" y="395"/>
      <point x="698" y="400"/>
      <point x="703" y="408" type="curve" smooth="yes"/>
      <point x="709" y="417"/>
      <point x="734" y="477"/>
      <point x="734" y="484" type="curve" smooth="yes"/>
      <point x="734" y="491"/>
      <point x="732" y="500"/>
      <point x="722" y="499" type="curve"/>
      <point x="718" y="493"/>
      <point x="712" y="489"/>
      <point x="707" y="483" type="curve" smooth="yes"/>
      <point x="695" y="470"/>
      <point x="683" y="455"/>
      <point x="669" y="444" type="curve" smooth="yes"/>
      <point x="628" y="411"/>
      <point x="537" y="409"/>
      <point x="486" y="409" type="curve" smooth="yes"/>
      <point x="472" y="409"/>
      <point x="474" y="385"/>
      <point x="474" y="375" type="curve" smooth="yes"/>
      <point x="474" y="374"/>
      <point x="475" y="374"/>
      <point x="475" y="374" type="curve"/>
      <point x="481" y="374"/>
      <point x="486" y="375"/>
      <point x="492" y="375" type="curve" smooth="yes"/>
      <point x="527" y="375"/>
      <point x="544" y="308"/>
      <point x="544" y="280" type="curve" smooth="yes"/>
      <point x="544" y="226"/>
      <point x="535" y="178"/>
      <point x="508" y="131" type="curve"/>
      <point x="425" y="209"/>
      <point x="347" y="326"/>
      <point x="304" y="431" type="curve"/>
      <point x="377" y="475"/>
      <point x="484" y="525"/>
      <point x="484" y="625" type="curve" smooth="yes"/>
      <point x="484" y="690"/>
      <point x="426" y="733"/>
      <point x="365" y="733" type="curve" smooth="yes"/>
      <point x="265" y="733"/>
      <point x="176" y="657"/>
      <point x="176" y="554" type="curve" smooth="yes"/>
      <point x="176" y="505"/>
      <point x="189" y="457"/>
      <point x="208" y="412" type="curve"/>
      <point x="132" y="358"/>
      <point x="60" y="275"/>
      <point x="60" y="177" type="curve" smooth="yes"/>
      <point x="60" y="58"/>
      <point x="164" y="-8"/>
      <point x="274" y="-8" type="curve" smooth="yes"/>
      <point x="356" y="-8"/>
      <point x="422" y="9"/>
      <point x="490" y="57" type="curve"/>
      <point x="537" y="14"/>
      <point x="611" y="-13"/>
    </contour>
    <contour>
      <point x="314" y="36" type="curve" smooth="yes"/>
      <point x="216" y="36"/>
      <point x="160" y="115"/>
      <point x="160" y="207" type="curve" smooth="yes"/>
      <point x="160" y="268"/>
      <point x="193" y="330"/>
      <point x="229" y="378" type="curve"/>
      <point x="270" y="272"/>
      <point x="361" y="139"/>
      <point x="458" y="76" type="curve"/>
      <point x="413" y="43"/>
      <point x="368" y="36"/>
    </contour>
    <contour>
      <point x="291" y="466" type="curve"/>
      <point x="273" y="505"/>
      <point x="260" y="547"/>
      <point x="260" y="590" type="curve" smooth="yes"/>
      <point x="260" y="642"/>
      <point x="285" y="703"/>
      <point x="346" y="703" type="curve" smooth="yes"/>
      <point x="375" y="703"/>
      <point x="396" y="664"/>
      <point x="396" y="638" type="curve" smooth="yes"/>
      <point x="396" y="571"/>
      <point x="339" y="507"/>
    </contour>
  </outline>
</glyph>
<glyph name="quotesingle" format="2">
  <advance height="1000" width="280"/>
  <unicode hex="0027"/>
  <note>
cid00008
</note>
  <outline>
    <contour>
      <point x="140" y="448" type="curve" smooth="yes"/>
      <point x="149" y="448"/>
      <point x="152" y="463"/>
      <point x="153" y="469" type="curve" smooth="yes"/>
      <point x="162" y="506"/>
      <point x="165" y="553"/>
      <point x="171" y="591" type="curve" smooth="yes"/>
      <point x="176" y="623"/>
      <point x="184" y="668"/>
      <point x="184" y="700" type="curve" smooth="yes"/>
      <point x="184" y="723"/>
      <point x="163" y="738"/>
      <point x="141" y="738" type="curve" smooth="yes"/>
      <point x="117" y="738"/>
      <point x="96" y="727"/>
      <point x="96" y="700" type="curve" smooth="yes"/>
      <point x="96" y="673"/>
      <point x="105" y="625"/>
      <point x="108" y="596" type="curve" smooth="yes"/>
      <point x="112" y="558"/>
      <point x="117" y="506"/>
      <point x="127" y="469" type="curve" smooth="yes"/>
      <point x="128" y="463"/>
      <point x="132" y="448"/>
    </contour>
  </outline>
</glyph>
<glyph name="parenleft" format="2">
  <advance height="1000" width="450"/>
  <unicode hex="0028"/>
  <note>
cid00009
</note>
  <outline>
    <contour>
      <point x="390" y="-112" type="curve"/>
      <point x="403" y="-90" type="line"/>
      <point x="265" y="10"/>
      <point x="215" y="204"/>
      <point x="215" y="365" type="curve" smooth="yes"/>
      <point x="215" y="530"/>
      <point x="262" y="725"/>
      <point x="400" y="830" type="curve"/>
      <point x="390" y="852" type="line"/>
      <point x="215" y="740"/>
      <point x="138" y="564"/>
      <point x="138" y="359" type="curve" smooth="yes"/>
      <point x="138" y="161"/>
      <point x="216" y="-11"/>
    </contour>
  </outline>
</glyph>
<glyph name="parenright" format="2">
  <advance height="1000" width="450"/>
  <unicode hex="0029"/>
  <note>
cid00010
</note>
  <outline>
    <contour>
      <point x="54" y="-112" type="line"/>
      <point x="227" y="-11"/>
      <point x="305" y="161"/>
      <point x="305" y="359" type="curve" smooth="yes"/>
      <point x="305" y="564"/>
      <point x="228" y="740"/>
      <point x="53" y="852" type="curve"/>
      <point x="43" y="830" type="line"/>
      <point x="181" y="725"/>
      <point x="228" y="530"/>
      <point x="228" y="365" type="curve" smooth="yes"/>
      <point x="228" y="207"/>
      <point x="180" y="9"/>
      <point x="44" y="-89" type="curve"/>
    </contour>
  </outline>
</glyph>
<glyph name="asterisk" format="2">
  <advance height="1000" width="450"/>
  <unicode hex="002A"/>
  <note>
cid00011
</note>
  <outline>
    <contour>
      <point x="226" y="391" type="curve" smooth="yes"/>
      <point x="242" y="391"/>
      <point x="256" y="406"/>
      <point x="256" y="422" type="curve" smooth="yes"/>
      <point x="256" y="432" type="line" smooth="yes"/>
      <point x="255" y="446"/>
      <point x="250" y="462"/>
      <point x="247" y="476" type="curve" smooth="yes"/>
      <point x="240" y="509"/>
      <point x="233" y="542"/>
      <point x="228" y="576" type="curve"/>
      <point x="265" y="546"/>
      <point x="300" y="514"/>
      <point x="337" y="483" type="curve" smooth="yes"/>
      <point x="344" y="477"/>
      <point x="351" y="474"/>
      <point x="360" y="474" type="curve" smooth="yes"/>
      <point x="377" y="474"/>
      <point x="391" y="485"/>
      <point x="391" y="503" type="curve" smooth="yes"/>
      <point x="391" y="514"/>
      <point x="383" y="526"/>
      <point x="373" y="531" type="curve" smooth="yes"/>
      <point x="361" y="536"/>
      <point x="346" y="540"/>
      <point x="333" y="544" type="curve" smooth="yes"/>
      <point x="299" y="555"/>
      <point x="265" y="567"/>
      <point x="233" y="582" type="curve"/>
      <point x="249" y="589"/>
      <point x="362" y="635"/>
      <point x="372" y="636" type="curve"/>
      <point x="383" y="641"/>
      <point x="389" y="653"/>
      <point x="389" y="665" type="curve" smooth="yes"/>
      <point x="389" y="682"/>
      <point x="375" y="694"/>
      <point x="359" y="694" type="curve" smooth="yes"/>
      <point x="351" y="694"/>
      <point x="345" y="691"/>
      <point x="339" y="686" type="curve" smooth="yes"/>
      <point x="301" y="655"/>
      <point x="268" y="620"/>
      <point x="228" y="591" type="curve"/>
      <point x="234" y="639"/>
      <point x="242" y="690"/>
      <point x="254" y="738" type="curve" smooth="yes"/>
      <point x="254" y="739"/>
      <point x="255" y="740"/>
      <point x="255" y="741" type="curve" smooth="yes"/>
      <point x="255" y="757"/>
      <point x="241" y="774"/>
      <point x="224" y="774" type="curve" smooth="yes"/>
      <point x="208" y="774"/>
      <point x="193" y="759"/>
      <point x="193" y="743" type="curve" smooth="yes"/>
      <point x="193" y="741"/>
      <point x="194" y="739"/>
      <point x="194" y="737" type="curve" smooth="yes"/>
      <point x="203" y="688"/>
      <point x="215" y="640"/>
      <point x="221" y="591" type="curve"/>
      <point x="200" y="605"/>
      <point x="181" y="620"/>
      <point x="162" y="636" type="curve" smooth="yes"/>
      <point x="144" y="652"/>
      <point x="128" y="670"/>
      <point x="110" y="685" type="curve" smooth="yes"/>
      <point x="105" y="690"/>
      <point x="97" y="692"/>
      <point x="90" y="692" type="curve" smooth="yes"/>
      <point x="73" y="692"/>
      <point x="59" y="681"/>
      <point x="59" y="663" type="curve" smooth="yes"/>
      <point x="59" y="652"/>
      <point x="65" y="639"/>
      <point x="76" y="635" type="curve" smooth="yes"/>
      <point x="91" y="630"/>
      <point x="107" y="626"/>
      <point x="122" y="620" type="curve" smooth="yes"/>
      <point x="154" y="610"/>
      <point x="186" y="597"/>
      <point x="217" y="583" type="curve"/>
      <point x="173" y="559"/>
      <point x="126" y="546"/>
      <point x="79" y="531" type="curve" smooth="yes"/>
      <point x="66" y="527"/>
      <point x="59" y="513"/>
      <point x="59" y="500" type="curve" smooth="yes"/>
      <point x="59" y="483"/>
      <point x="74" y="471"/>
      <point x="90" y="471" type="curve" smooth="yes"/>
      <point x="97" y="471"/>
      <point x="103" y="474"/>
      <point x="108" y="478" type="curve" smooth="yes"/>
      <point x="147" y="509"/>
      <point x="178" y="545"/>
      <point x="220" y="575" type="curve"/>
      <point x="217" y="537"/>
      <point x="210" y="499"/>
      <point x="203" y="461" type="curve" smooth="yes"/>
      <point x="201" y="449"/>
      <point x="195" y="436"/>
      <point x="195" y="424" type="curve" smooth="yes"/>
      <point x="195" y="406"/>
      <point x="207" y="391"/>
    </contour>
  </outline>
</glyph>
<glyph name="plus" format="2">
  <advance height="1000" width="750"/>
  <unicode hex="002B"/>
  <note>
cid00012
</note>
  <outline>
    <contour>
      <point x="350" y="69" type="line"/>
      <point x="400" y="69" type="line"/>
      <point x="400" y="338" type="line"/>
      <point x="674" y="338" type="line"/>
      <point x="674" y="387" type="line"/>
      <point x="400" y="387" type="line"/>
      <point x="400" y="649" type="line"/>
      <point x="350" y="649" type="line"/>
      <point x="350" y="387" type="line"/>
      <point x="77" y="387" type="line"/>
      <point x="77" y="338" type="line"/>
      <point x="350" y="338" type="line"/>
    </contour>
  </outline>
</glyph>
<glyph name="comma" format="2">
  <advance height="1000" width="350"/>
  <unicode hex="002C"/>
  <note>
cid00013
</note>
  <outline>
    <contour>
      <point x="165" y="-132" type="line"/>
      <point x="206" y="-92"/>
      <point x="247" y="-6"/>
      <point x="247" y="51" type="curve" smooth="yes"/>
      <point x="247" y="99"/>
      <point x="230" y="142"/>
      <point x="175" y="142" type="curve" smooth="yes"/>
      <point x="129" y="142"/>
      <point x="103" y="107"/>
      <point x="103" y="63" type="curve" smooth="yes"/>
      <point x="103" y="42"/>
      <point x="125" y="10"/>
      <point x="148" y="10" type="curve" smooth="yes"/>
      <point x="164" y="10"/>
      <point x="175" y="14"/>
      <point x="188" y="25" type="curve"/>
      <point x="188" y="21" type="line" smooth="yes"/>
      <point x="188" y="-23"/>
      <point x="169" y="-89"/>
      <point x="147" y="-126" type="curve"/>
    </contour>
  </outline>
</glyph>
<glyph name="hyphen" format="2">
  <advance height="1000" width="400"/>
  <unicode hex="002D"/>
  <note>
cid00014
</note>
  <outline>
    <contour>
      <point x="69" y="292" type="line"/>
      <point x="332" y="292" type="line"/>
      <point x="332" y="351" type="line"/>
      <point x="69" y="351" type="line"/>
    </contour>
  </outline>
</glyph>
<glyph name="period" format="2">
  <advance height="1000" width="350"/>
  <unicode hex="002E"/>
  <note>
cid00015
</note>
  <outline>
    <contour>
      <point x="175" y="7" type="curve" smooth="yes"/>
      <point x="212" y="7"/>
      <point x="245" y="35"/>
      <point x="245" y="73" type="curve" smooth="yes"/>
      <point x="245" y="111"/>
      <point x="212" y="140"/>
      <point x="175" y="140" type="curve" smooth="yes"/>
      <point x="138" y="140"/>
      <point x="105" y="111"/>
      <point x="105" y="73" type="curve" smooth="yes"/>
      <point x="105" y="35"/>
      <point x="138" y="7"/>
    </contour>
  </outline>
</glyph>
<glyph name="slash" format="2">
  <advance height="1000" width="500"/>
  <unicode hex="002F"/>
  <note>
cid00016
</note>
  <outline>
    <contour>
      <point x="89" y="-67" type="line"/>
      <point x="448" y="789" type="line"/>
      <point x="410" y="807" type="line"/>
      <point x="52" y="-49" type="line"/>
    </contour>
  </outline>
</glyph>
<glyph name="zero" format="2">
  <advance height="1000" width="590"/>
  <unicode hex="0030"/>
  <note>
cid00017
</note>
  <outline>
    <contour>
      <point x="287" y="2" type="curve" smooth="yes"/>
      <point x="474" y="2"/>
      <point x="539" y="222"/>
      <point x="539" y="375" type="curve" smooth="yes"/>
      <point x="539" y="520"/>
      <point x="484" y="732"/>
      <point x="304" y="732" type="curve" smooth="yes"/>
      <point x="113" y="732"/>
      <point x="51" y="505"/>
      <point x="51" y="350" type="curve" smooth="yes"/>
      <point x="51" y="206"/>
      <point x="109" y="2"/>
    </contour>
    <contour>
      <point x="289" y="32" type="curve" smooth="yes"/>
      <point x="162" y="32"/>
      <point x="151" y="267"/>
      <point x="151" y="356" type="curve" smooth="yes"/>
      <point x="151" y="447"/>
      <point x="168" y="703"/>
      <point x="296" y="703" type="curve" smooth="yes"/>
      <point x="435" y="703"/>
      <point x="435" y="457"/>
      <point x="435" y="362" type="curve" smooth="yes"/>
      <point x="435" y="268"/>
      <point x="421" y="32"/>
    </contour>
  </outline>
</glyph>
<glyph name="one" format="2">
  <advance height="1000" width="590"/>
  <unicode hex="0031"/>
  <note>
cid00018
</note>
  <outline>
    <contour>
      <point x="470" y="-1" type="curve" smooth="yes"/>
      <point x="482" y="-1"/>
      <point x="485" y="3"/>
      <point x="485" y="15" type="curve" smooth="yes"/>
      <point x="485" y="21"/>
      <point x="483" y="31"/>
      <point x="475" y="31" type="curve" smooth="yes"/>
      <point x="466" y="31"/>
      <point x="456" y="29"/>
      <point x="446" y="29" type="curve" smooth="yes"/>
      <point x="430" y="29"/>
      <point x="370" y="25"/>
      <point x="369" y="54" type="curve" smooth="yes"/>
      <point x="369" y="66"/>
      <point x="368" y="79"/>
      <point x="368" y="91" type="curve" smooth="yes"/>
      <point x="368" y="188"/>
      <point x="368" y="284"/>
      <point x="368" y="381" type="curve" smooth="yes"/>
      <point x="371" y="644" type="line" smooth="yes"/>
      <point x="372" y="673"/>
      <point x="373" y="702"/>
      <point x="373" y="731" type="curve" smooth="yes"/>
      <point x="373" y="743"/>
      <point x="369" y="743"/>
      <point x="361" y="743" type="curve" smooth="yes"/>
      <point x="356" y="743"/>
      <point x="321" y="732"/>
      <point x="314" y="729" type="curve" smooth="yes"/>
      <point x="287" y="718"/>
      <point x="255" y="706"/>
      <point x="227" y="697" type="curve" smooth="yes"/>
      <point x="191" y="685"/>
      <point x="159" y="671"/>
      <point x="122" y="662" type="curve" smooth="yes"/>
      <point x="115" y="660"/>
      <point x="105" y="654"/>
      <point x="105" y="646" type="curve" smooth="yes"/>
      <point x="105" y="637"/>
      <point x="109" y="623"/>
      <point x="121" y="623" type="curve" smooth="yes"/>
      <point x="135" y="623"/>
      <point x="237" y="669"/>
      <point x="252" y="669" type="curve" smooth="yes"/>
      <point x="261" y="669"/>
      <point x="265" y="663"/>
      <point x="265" y="656" type="curve" smooth="yes"/>
      <point x="265" y="379" type="line" smooth="yes"/>
      <point x="265" y="271"/>
      <point x="263" y="162"/>
      <point x="263" y="54" type="curve" smooth="yes"/>
      <point x="263" y="25"/>
      <point x="199" y="28"/>
      <point x="180" y="28" type="curve" smooth="yes"/>
      <point x="172" y="28"/>
      <point x="165" y="29"/>
      <point x="157" y="29" type="curve" smooth="yes"/>
      <point x="149" y="29"/>
      <point x="148" y="21"/>
      <point x="148" y="15" type="curve" smooth="yes"/>
      <point x="148" y="6"/>
      <point x="150" y="0"/>
      <point x="160" y="0" type="curve" smooth="yes"/>
      <point x="168" y="0"/>
      <point x="185" y="0"/>
      <point x="194" y="1" type="curve" smooth="yes"/>
      <point x="234" y="2"/>
      <point x="272" y="2"/>
      <point x="312" y="2" type="curve" smooth="yes"/>
      <point x="341" y="2"/>
      <point x="372" y="3"/>
      <point x="401" y="2" type="curve" smooth="yes"/>
      <point x="414" y="2"/>
      <point x="427" y="1"/>
      <point x="439" y="1" type="curve" smooth="yes"/>
      <point x="449" y="1"/>
      <point x="461" y="-1"/>
    </contour>
  </outline>
</glyph>
<glyph name="two" format="2">
  <advance height="1000" width="590"/>
  <unicode hex="0032"/>
  <note>
cid00019
</note>
  <outline>
    <contour>
      <point x="69" y="2" type="curve" smooth="yes"/>
      <point x="100" y="2"/>
      <point x="131" y="5"/>
      <point x="162" y="5" type="curve" smooth="yes"/>
      <point x="223" y="6"/>
      <point x="281" y="7"/>
      <point x="352" y="7" type="curve" smooth="yes"/>
      <point x="388" y="7"/>
      <point x="446" y="3"/>
      <point x="483" y="3" type="curve" smooth="yes"/>
      <point x="492" y="3"/>
      <point x="497" y="8"/>
      <point x="500" y="17" type="curve" smooth="yes"/>
      <point x="507" y="41"/>
      <point x="511" y="67"/>
      <point x="518" y="92" type="curve" smooth="yes"/>
      <point x="522" y="105"/>
      <point x="527" y="119"/>
      <point x="532" y="132" type="curve" smooth="yes"/>
      <point x="533" y="136"/>
      <point x="540" y="151"/>
      <point x="540" y="154" type="curve" smooth="yes"/>
      <point x="540" y="158"/>
      <point x="533" y="162"/>
      <point x="529" y="162" type="curve" smooth="yes"/>
      <point x="525" y="162"/>
      <point x="524" y="161"/>
      <point x="522" y="158" type="curve" smooth="yes"/>
      <point x="477" y="97"/>
      <point x="431" y="80"/>
      <point x="357" y="79" type="curve" smooth="yes"/>
      <point x="276" y="77"/>
      <point x="196" y="73"/>
      <point x="116" y="73" type="curve" smooth="yes"/>
      <point x="110" y="73"/>
      <point x="108" y="76"/>
      <point x="108" y="81" type="curve" smooth="yes"/>
      <point x="108" y="91"/>
      <point x="123" y="111"/>
      <point x="129" y="119" type="curve" smooth="yes"/>
      <point x="162" y="159"/>
      <point x="201" y="200"/>
      <point x="242" y="231" type="curve" smooth="yes"/>
      <point x="361" y="319"/>
      <point x="512" y="381"/>
      <point x="512" y="557" type="curve" smooth="yes"/>
      <point x="512" y="663"/>
      <point x="412" y="729"/>
      <point x="314" y="729" type="curve" smooth="yes"/>
      <point x="209" y="729"/>
      <point x="61" y="672"/>
      <point x="61" y="548" type="curve" smooth="yes"/>
      <point x="61" y="513"/>
      <point x="78" y="498"/>
      <point x="114" y="498" type="curve" smooth="yes"/>
      <point x="137" y="498"/>
      <point x="151" y="508"/>
      <point x="152" y="532" type="curve" smooth="yes"/>
      <point x="154" y="566"/>
      <point x="156" y="609"/>
      <point x="175" y="639" type="curve" smooth="yes"/>
      <point x="204" y="684"/>
      <point x="243" y="698"/>
      <point x="294" y="698" type="curve" smooth="yes"/>
      <point x="382" y="698"/>
      <point x="405" y="627"/>
      <point x="405" y="551" type="curve" smooth="yes"/>
      <point x="405" y="483"/>
      <point x="365" y="413"/>
      <point x="317" y="366" type="curve" smooth="yes"/>
      <point x="247" y="299"/>
      <point x="112" y="169"/>
      <point x="69" y="86" type="curve" smooth="yes"/>
      <point x="57" y="62"/>
      <point x="52" y="42"/>
      <point x="52" y="15" type="curve" smooth="yes"/>
      <point x="52" y="6"/>
      <point x="62" y="2"/>
    </contour>
  </outline>
</glyph>
<glyph name="three" format="2">
  <advance height="1000" width="590"/>
  <unicode hex="0033"/>
  <note>
cid00020
</note>
  <outline>
    <contour>
      <point x="242" y="-1" type="curve" smooth="yes"/>
      <point x="394" y="-1"/>
      <point x="535" y="75"/>
      <point x="535" y="245" type="curve" smooth="yes"/>
      <point x="535" y="314"/>
      <point x="488" y="366"/>
      <point x="425" y="388" type="curve" smooth="yes"/>
      <point x="402" y="397"/>
      <point x="359" y="400"/>
      <point x="334" y="402" type="curve"/>
      <point x="369" y="411"/>
      <point x="405" y="425"/>
      <point x="433" y="450" type="curve" smooth="yes"/>
      <point x="469" y="481"/>
      <point x="501" y="529"/>
      <point x="501" y="578" type="curve" smooth="yes"/>
      <point x="501" y="680"/>
      <point x="404" y="734"/>
      <point x="313" y="734" type="curve" smooth="yes"/>
      <point x="234" y="734"/>
      <point x="149" y="712"/>
      <point x="99" y="647" type="curve" smooth="yes"/>
      <point x="90" y="635"/>
      <point x="75" y="602"/>
      <point x="75" y="587" type="curve" smooth="yes"/>
      <point x="75" y="553"/>
      <point x="98" y="538"/>
      <point x="129" y="538" type="curve" smooth="yes"/>
      <point x="144" y="538"/>
      <point x="153" y="544"/>
      <point x="153" y="560" type="curve" smooth="yes"/>
      <point x="153" y="644"/>
      <point x="198" y="704"/>
      <point x="286" y="704" type="curve" smooth="yes"/>
      <point x="374" y="704"/>
      <point x="401" y="641"/>
      <point x="401" y="563" type="curve" smooth="yes"/>
      <point x="401" y="487"/>
      <point x="373" y="438"/>
      <point x="298" y="417" type="curve" smooth="yes"/>
      <point x="273" y="410"/>
      <point x="244" y="411"/>
      <point x="218" y="411" type="curve" smooth="yes"/>
      <point x="213" y="411"/>
      <point x="208" y="412"/>
      <point x="204" y="412" type="curve" smooth="yes"/>
      <point x="192" y="412"/>
      <point x="191" y="398"/>
      <point x="191" y="389" type="curve" smooth="yes"/>
      <point x="191" y="382"/>
      <point x="192" y="372"/>
      <point x="201" y="372" type="curve" smooth="yes"/>
      <point x="211" y="372"/>
      <point x="222" y="378"/>
      <point x="232" y="380" type="curve" smooth="yes"/>
      <point x="249" y="384"/>
      <point x="270" y="386"/>
      <point x="288" y="386" type="curve" smooth="yes"/>
      <point x="380" y="386"/>
      <point x="428" y="321"/>
      <point x="428" y="232" type="curve" smooth="yes"/>
      <point x="428" y="97"/>
      <point x="374" y="28"/>
      <point x="235" y="28" type="curve" smooth="yes"/>
      <point x="171" y="28"/>
      <point x="140" y="87"/>
      <point x="133" y="143" type="curve" smooth="yes"/>
      <point x="131" y="162"/>
      <point x="119" y="170"/>
      <point x="100" y="170" type="curve" smooth="yes"/>
      <point x="70" y="170"/>
      <point x="51" y="155"/>
      <point x="51" y="124" type="curve" smooth="yes"/>
      <point x="51" y="106"/>
      <point x="56" y="88"/>
      <point x="65" y="73" type="curve" smooth="yes"/>
      <point x="99" y="12"/>
      <point x="178" y="-1"/>
    </contour>
  </outline>
</glyph>
<glyph name="four" format="2">
  <advance height="1000" width="590"/>
  <unicode hex="0034"/>
  <note>
cid00021
</note>
  <outline>
    <contour>
      <point x="250" y="-1" type="curve" smooth="yes"/>
      <point x="261" y="-1"/>
      <point x="273" y="0"/>
      <point x="285" y="1" type="curve" smooth="yes"/>
      <point x="320" y="2"/>
      <point x="355" y="4"/>
      <point x="390" y="4" type="curve" smooth="yes"/>
      <point x="429" y="4"/>
      <point x="470" y="3"/>
      <point x="510" y="0" type="curve" smooth="yes"/>
      <point x="516" y="-1"/>
      <point x="522" y="-1"/>
      <point x="528" y="-1" type="curve" smooth="yes"/>
      <point x="535" y="-1"/>
      <point x="536" y="9"/>
      <point x="536" y="14" type="curve" smooth="yes"/>
      <point x="536" y="21"/>
      <point x="536" y="30"/>
      <point x="527" y="30" type="curve" smooth="yes"/>
      <point x="517" y="30"/>
      <point x="507" y="28"/>
      <point x="498" y="28" type="curve" smooth="yes"/>
      <point x="479" y="28"/>
      <point x="436" y="24"/>
      <point x="436" y="54" type="curve" smooth="yes"/>
      <point x="436" y="90" type="line" smooth="yes"/>
      <point x="436" y="128"/>
      <point x="435" y="165"/>
      <point x="435" y="203" type="curve"/>
      <point x="533" y="203" type="line" smooth="yes"/>
      <point x="541" y="203"/>
      <point x="549" y="202"/>
      <point x="550" y="211" type="curve" smooth="yes"/>
      <point x="553" y="225"/>
      <point x="558" y="244"/>
      <point x="562" y="259" type="curve" smooth="yes"/>
      <point x="563" y="264"/>
      <point x="568" y="281"/>
      <point x="568" y="284" type="curve" smooth="yes"/>
      <point x="568" y="287"/>
      <point x="565" y="290"/>
      <point x="560" y="290" type="curve" smooth="yes"/>
      <point x="556" y="290"/>
      <point x="555" y="288"/>
      <point x="553" y="285" type="curve"/>
      <point x="552" y="282"/>
      <point x="547" y="272"/>
      <point x="545" y="270" type="curve" smooth="yes"/>
      <point x="534" y="256"/>
      <point x="514" y="251"/>
      <point x="497" y="251" type="curve" smooth="yes"/>
      <point x="436" y="251" type="line"/>
      <point x="436" y="722" type="line"/>
      <point x="440" y="733" type="line" smooth="yes"/>
      <point x="441" y="737"/>
      <point x="433" y="737"/>
      <point x="431" y="737" type="curve" smooth="yes"/>
      <point x="378" y="737" type="line" smooth="yes"/>
      <point x="375" y="737"/>
      <point x="371" y="735"/>
      <point x="369" y="732" type="curve" smooth="yes"/>
      <point x="366" y="729"/>
      <point x="364" y="726"/>
      <point x="362" y="722" type="curve" smooth="yes"/>
      <point x="255" y="559"/>
      <point x="141" y="398"/>
      <point x="30" y="238" type="curve" smooth="yes"/>
      <point x="26" y="231" type="line" smooth="yes"/>
      <point x="24" y="228"/>
      <point x="22" y="221"/>
      <point x="22" y="217" type="curve" smooth="yes"/>
      <point x="22" y="207"/>
      <point x="31" y="203"/>
      <point x="40" y="203" type="curve" smooth="yes"/>
      <point x="338" y="203" type="line"/>
      <point x="338" y="54" type="line" smooth="yes"/>
      <point x="338" y="23"/>
      <point x="291" y="28"/>
      <point x="269" y="28" type="curve" smooth="yes"/>
      <point x="262" y="28"/>
      <point x="255" y="29"/>
      <point x="248" y="29" type="curve" smooth="yes"/>
      <point x="239" y="29"/>
      <point x="238" y="22"/>
      <point x="238" y="15" type="curve" smooth="yes"/>
      <point x="238" y="6"/>
      <point x="239" y="-1"/>
    </contour>
    <contour>
      <point x="82" y="251" type="line"/>
      <point x="339" y="622" type="line"/>
      <point x="339" y="588"/>
      <point x="340" y="555"/>
      <point x="340" y="522" type="curve" smooth="yes"/>
      <point x="340" y="432"/>
      <point x="339" y="341"/>
      <point x="339" y="251" type="curve"/>
    </contour>
  </outline>
</glyph>
<glyph name="five" format="2">
  <advance height="1000" width="590"/>
  <unicode hex="0035"/>
  <note>
cid00022
</note>
  <outline>
    <contour>
      <point x="260" y="1" type="curve" smooth="yes"/>
      <point x="330" y="1"/>
      <point x="412" y="27"/>
      <point x="465" y="74" type="curve" smooth="yes"/>
      <point x="513" y="117"/>
      <point x="539" y="196"/>
      <point x="539" y="259" type="curve" smooth="yes"/>
      <point x="539" y="317"/>
      <point x="515" y="381"/>
      <point x="472" y="421" type="curve" smooth="yes"/>
      <point x="435" y="455"/>
      <point x="385" y="469"/>
      <point x="335" y="469" type="curve" smooth="yes"/>
      <point x="260" y="469"/>
      <point x="215" y="448"/>
      <point x="154" y="406" type="curve"/>
      <point x="158" y="490"/>
      <point x="164" y="575"/>
      <point x="165" y="659" type="curve"/>
      <point x="188" y="660"/>
      <point x="211" y="660"/>
      <point x="234" y="660" type="curve" smooth="yes"/>
      <point x="272" y="660"/>
      <point x="309" y="659"/>
      <point x="347" y="659" type="curve" smooth="yes"/>
      <point x="370" y="659"/>
      <point x="394" y="660"/>
      <point x="417" y="658" type="curve" smooth="yes"/>
      <point x="435" y="657"/>
      <point x="453" y="656"/>
      <point x="471" y="656" type="curve" smooth="yes"/>
      <point x="481" y="656"/>
      <point x="489" y="658"/>
      <point x="495" y="667" type="curve" smooth="yes"/>
      <point x="501" y="677"/>
      <point x="528" y="730"/>
      <point x="528" y="740" type="curve" smooth="yes"/>
      <point x="528" y="746"/>
      <point x="517" y="746"/>
      <point x="513" y="746" type="curve" smooth="yes"/>
      <point x="506" y="746"/>
      <point x="497" y="740"/>
      <point x="490" y="736" type="curve" smooth="yes"/>
      <point x="459" y="719"/>
      <point x="407" y="717"/>
      <point x="372" y="717" type="curve" smooth="yes"/>
      <point x="229" y="717" type="line" smooth="yes"/>
      <point x="188" y="717"/>
      <point x="147" y="720"/>
      <point x="106" y="725" type="curve"/>
      <point x="110" y="685"/>
      <point x="112" y="646"/>
      <point x="112" y="606" type="curve" smooth="yes"/>
      <point x="112" y="538"/>
      <point x="109" y="401"/>
      <point x="90" y="340" type="curve" smooth="yes"/>
      <point x="89" y="336"/>
      <point x="87" y="332"/>
      <point x="87" y="328" type="curve" smooth="yes"/>
      <point x="87" y="317"/>
      <point x="140" y="301"/>
      <point x="150" y="301" type="curve" smooth="yes"/>
      <point x="162" y="301"/>
      <point x="161" y="317"/>
      <point x="162" y="325" type="curve" smooth="yes"/>
      <point x="165" y="356"/>
      <point x="186" y="386"/>
      <point x="209" y="405" type="curve" smooth="yes"/>
      <point x="232" y="423"/>
      <point x="271" y="434"/>
      <point x="300" y="434" type="curve" smooth="yes"/>
      <point x="337" y="434"/>
      <point x="375" y="425"/>
      <point x="398" y="395" type="curve" smooth="yes"/>
      <point x="425" y="359"/>
      <point x="433" y="302"/>
      <point x="433" y="258" type="curve" smooth="yes"/>
      <point x="433" y="226"/>
      <point x="432" y="192"/>
      <point x="423" y="162" type="curve" smooth="yes"/>
      <point x="395" y="74"/>
      <point x="339" y="31"/>
      <point x="247" y="31" type="curve" smooth="yes"/>
      <point x="181" y="31"/>
      <point x="154" y="66"/>
      <point x="149" y="127" type="curve" smooth="yes"/>
      <point x="147" y="153"/>
      <point x="126" y="165"/>
      <point x="102" y="165" type="curve" smooth="yes"/>
      <point x="74" y="165"/>
      <point x="51" y="147"/>
      <point x="51" y="118" type="curve" smooth="yes"/>
      <point x="51" y="32"/>
      <point x="194" y="1"/>
    </contour>
  </outline>
</glyph>
<glyph name="six" format="2">
  <advance height="1000" width="590"/>
  <unicode hex="0036"/>
  <note>
cid00023
</note>
  <outline>
    <contour>
      <point x="279" y="-1" type="curve" smooth="yes"/>
      <point x="430" y="-1"/>
      <point x="540" y="84"/>
      <point x="540" y="241" type="curve" smooth="yes"/>
      <point x="540" y="372"/>
      <point x="455" y="456"/>
      <point x="324" y="456" type="curve" smooth="yes"/>
      <point x="267" y="456"/>
      <point x="213" y="434"/>
      <point x="166" y="403" type="curve"/>
      <point x="175" y="495"/>
      <point x="240" y="597"/>
      <point x="303" y="661" type="curve" smooth="yes"/>
      <point x="326" y="684"/>
      <point x="352" y="703"/>
      <point x="380" y="719" type="curve" smooth="yes"/>
      <point x="407" y="734"/>
      <point x="437" y="747"/>
      <point x="466" y="759" type="curve"/>
      <point x="471" y="762"/>
      <point x="477" y="763"/>
      <point x="481" y="767" type="curve"/>
      <point x="484" y="768"/>
      <point x="485" y="771"/>
      <point x="485" y="774" type="curve" smooth="yes"/>
      <point x="485" y="779"/>
      <point x="482" y="781"/>
      <point x="477" y="781" type="curve" smooth="yes"/>
      <point x="474" y="781" type="line"/>
      <point x="287" y="730"/>
      <point x="151" y="626"/>
      <point x="83" y="442" type="curve" smooth="yes"/>
      <point x="67" y="399"/>
      <point x="54" y="345"/>
      <point x="54" y="299" type="curve" smooth="yes"/>
      <point x="54" y="262"/>
      <point x="55" y="225"/>
      <point x="63" y="189" type="curve" smooth="yes"/>
      <point x="86" y="89"/>
      <point x="173" y="-1"/>
    </contour>
    <contour>
      <point x="295" y="27" type="curve" smooth="yes"/>
      <point x="201" y="27"/>
      <point x="156" y="126"/>
      <point x="152" y="207" type="curve" smooth="yes"/>
      <point x="151" y="222"/>
      <point x="151" y="237"/>
      <point x="151" y="252" type="curve" smooth="yes"/>
      <point x="151" y="286"/>
      <point x="149" y="323"/>
      <point x="167" y="354" type="curve" smooth="yes"/>
      <point x="191" y="394"/>
      <point x="264" y="420"/>
      <point x="308" y="420" type="curve" smooth="yes"/>
      <point x="424" y="420"/>
      <point x="437" y="307"/>
      <point x="437" y="217" type="curve" smooth="yes"/>
      <point x="437" y="127"/>
      <point x="401" y="27"/>
    </contour>
  </outline>
</glyph>
<glyph name="seven" format="2">
  <advance height="1000" width="590"/>
  <unicode hex="0037"/>
  <note>
cid00024
</note>
  <outline>
    <contour>
      <point x="252" y="-14" type="curve" smooth="yes"/>
      <point x="310" y="-14"/>
      <point x="315" y="18"/>
      <point x="319" y="69" type="curve" smooth="yes"/>
      <point x="329" y="200"/>
      <point x="353" y="330"/>
      <point x="400" y="453" type="curve" smooth="yes"/>
      <point x="430" y="532"/>
      <point x="479" y="639"/>
      <point x="537" y="700" type="curve"/>
      <point x="537" y="730" type="line"/>
      <point x="473" y="727"/>
      <point x="409" y="726"/>
      <point x="345" y="726" type="curve" smooth="yes"/>
      <point x="261" y="726"/>
      <point x="178" y="728"/>
      <point x="95" y="728" type="curve" smooth="yes"/>
      <point x="91" y="728"/>
      <point x="82" y="727"/>
      <point x="78" y="726" type="curve" smooth="yes"/>
      <point x="70" y="723"/>
      <point x="71" y="721"/>
      <point x="69" y="713" type="curve"/>
      <point x="63" y="665"/>
      <point x="60" y="616"/>
      <point x="53" y="568" type="curve"/>
      <point x="57" y="566"/>
      <point x="63" y="565"/>
      <point x="67" y="565" type="curve" smooth="yes"/>
      <point x="69" y="565"/>
      <point x="71" y="565"/>
      <point x="73" y="566" type="curve"/>
      <point x="87" y="611"/>
      <point x="108" y="657"/>
      <point x="158" y="668" type="curve" smooth="yes"/>
      <point x="193" y="676"/>
      <point x="231" y="676"/>
      <point x="266" y="678" type="curve" smooth="yes"/>
      <point x="335" y="681"/>
      <point x="403" y="683"/>
      <point x="472" y="684" type="curve"/>
      <point x="419" y="614"/>
      <point x="368" y="534"/>
      <point x="332" y="454" type="curve" smooth="yes"/>
      <point x="287" y="350"/>
      <point x="208" y="158"/>
      <point x="208" y="47" type="curve" smooth="yes"/>
      <point x="208" y="18"/>
      <point x="216" y="-14"/>
    </contour>
  </outline>
</glyph>
<glyph name="eight" format="2">
  <advance height="1000" width="590"/>
  <unicode hex="0038"/>
  <note>
cid00025
</note>
  <outline>
    <contour>
      <point x="277" y="-1" type="curve" smooth="yes"/>
      <point x="420" y="-1"/>
      <point x="546" y="75"/>
      <point x="546" y="230" type="curve" smooth="yes"/>
      <point x="546" y="325"/>
      <point x="445" y="390"/>
      <point x="364" y="415" type="curve"/>
      <point x="442" y="449"/>
      <point x="504" y="497"/>
      <point x="504" y="590" type="curve" smooth="yes"/>
      <point x="504" y="692"/>
      <point x="398" y="739"/>
      <point x="309" y="739" type="curve" smooth="yes"/>
      <point x="193" y="739"/>
      <point x="77" y="684"/>
      <point x="77" y="552" type="curve" smooth="yes"/>
      <point x="77" y="476"/>
      <point x="154" y="424"/>
      <point x="216" y="399" type="curve"/>
      <point x="132" y="354"/>
      <point x="44" y="301"/>
      <point x="44" y="192" type="curve" smooth="yes"/>
      <point x="44" y="60"/>
      <point x="159" y="-1"/>
    </contour>
    <contour>
      <point x="288" y="29" type="curve" smooth="yes"/>
      <point x="177" y="29"/>
      <point x="125" y="85"/>
      <point x="125" y="196" type="curve" smooth="yes"/>
      <point x="125" y="281"/>
      <point x="171" y="344"/>
      <point x="243" y="386" type="curve"/>
      <point x="337" y="352"/>
      <point x="447" y="316"/>
      <point x="447" y="196" type="curve" smooth="yes"/>
      <point x="447" y="102"/>
      <point x="384" y="29"/>
    </contour>
    <contour>
      <point x="316" y="427" type="curve"/>
      <point x="239" y="455"/>
      <point x="159" y="491"/>
      <point x="159" y="586" type="curve" smooth="yes"/>
      <point x="159" y="666"/>
      <point x="207" y="713"/>
      <point x="288" y="713" type="curve" smooth="yes"/>
      <point x="374" y="713"/>
      <point x="428" y="670"/>
      <point x="428" y="580" type="curve" smooth="yes"/>
      <point x="428" y="509"/>
      <point x="378" y="455"/>
    </contour>
  </outline>
</glyph>
<glyph name="nine" format="2">
  <advance height="1000" width="590"/>
  <unicode hex="0039"/>
  <note>
cid00026
</note>
  <outline>
    <contour>
      <point x="112" y="-50" type="curve" smooth="yes"/>
      <point x="115" y="-50" type="line"/>
      <point x="302" y="1"/>
      <point x="438" y="106"/>
      <point x="506" y="289" type="curve" smooth="yes"/>
      <point x="522" y="332"/>
      <point x="535" y="386"/>
      <point x="535" y="432" type="curve" smooth="yes"/>
      <point x="535" y="469"/>
      <point x="534" y="506"/>
      <point x="526" y="542" type="curve" smooth="yes"/>
      <point x="503" y="642"/>
      <point x="416" y="733"/>
      <point x="309" y="733" type="curve" smooth="yes"/>
      <point x="158" y="733"/>
      <point x="51" y="647"/>
      <point x="51" y="490" type="curve" smooth="yes"/>
      <point x="51" y="360"/>
      <point x="135" y="275"/>
      <point x="265" y="275" type="curve" smooth="yes"/>
      <point x="322" y="275"/>
      <point x="376" y="297"/>
      <point x="423" y="328" type="curve"/>
      <point x="414" y="237"/>
      <point x="350" y="134"/>
      <point x="286" y="70" type="curve" smooth="yes"/>
      <point x="239" y="22"/>
      <point x="176" y="-6"/>
      <point x="115" y="-32" type="curve" smooth="yes"/>
      <point x="109" y="-34"/>
      <point x="103" y="-35"/>
      <point x="103" y="-42" type="curve" smooth="yes"/>
      <point x="103" y="-47"/>
      <point x="107" y="-50"/>
    </contour>
    <contour>
      <point x="281" y="311" type="curve" smooth="yes"/>
      <point x="165" y="311"/>
      <point x="152" y="424"/>
      <point x="152" y="514" type="curve" smooth="yes"/>
      <point x="152" y="604"/>
      <point x="188" y="705"/>
      <point x="294" y="705" type="curve" smooth="yes"/>
      <point x="388" y="705"/>
      <point x="433" y="605"/>
      <point x="437" y="524" type="curve" smooth="yes"/>
      <point x="438" y="509"/>
      <point x="438" y="494"/>
      <point x="438" y="479" type="curve" smooth="yes"/>
      <point x="438" y="444"/>
      <point x="440" y="408"/>
      <point x="422" y="377" type="curve" smooth="yes"/>
      <point x="398" y="337"/>
      <point x="325" y="311"/>
    </contour>
  </outline>
</glyph>
<glyph name="colon" format="2">
  <advance height="1000" width="390"/>
  <unicode hex="003A"/>
  <note>
cid00027
</note>
  <outline>
    <contour>
      <point x="195" y="367" type="curve" smooth="yes"/>
      <point x="232" y="367"/>
      <point x="264" y="395"/>
      <point x="264" y="433" type="curve" smooth="yes"/>
      <point x="264" y="470"/>
      <point x="231" y="498"/>
      <point x="195" y="498" type="curve" smooth="yes"/>
      <point x="159" y="498"/>
      <point x="126" y="470"/>
      <point x="126" y="433" type="curve" smooth="yes"/>
      <point x="126" y="395"/>
      <point x="158" y="367"/>
    </contour>
    <contour>
      <point x="195" y="10" type="curve" smooth="yes"/>
      <point x="231" y="10"/>
      <point x="264" y="38"/>
      <point x="264" y="75" type="curve" smooth="yes"/>
      <point x="264" y="113"/>
      <point x="232" y="141"/>
      <point x="195" y="141" type="curve" smooth="yes"/>
      <point x="158" y="141"/>
      <point x="126" y="113"/>
      <point x="126" y="75" type="curve" smooth="yes"/>
      <point x="126" y="38"/>
      <point x="159" y="10"/>
    </contour>
  </outline>
</glyph>
<glyph name="semicolon" format="2">
  <advance height="1000" width="390"/>
  <unicode hex="003B"/>
  <note>
cid00028
</note>
  <outline>
    <contour>
      <point x="185" y="-133" type="line"/>
      <point x="225" y="-94"/>
      <point x="267" y="-5"/>
      <point x="267" y="52" type="curve" smooth="yes"/>
      <point x="267" y="101"/>
      <point x="249" y="140"/>
      <point x="195" y="140" type="curve" smooth="yes"/>
      <point x="152" y="140"/>
      <point x="125" y="112"/>
      <point x="125" y="69" type="curve" smooth="yes"/>
      <point x="125" y="39"/>
      <point x="152" y="10"/>
      <point x="182" y="10" type="curve" smooth="yes"/>
      <point x="192" y="10"/>
      <point x="205" y="13"/>
      <point x="211" y="22" type="curve"/>
      <point x="211" y="18" type="line" smooth="yes"/>
      <point x="212" y="-26"/>
      <point x="190" y="-90"/>
      <point x="167" y="-127" type="curve"/>
    </contour>
    <contour>
      <point x="195" y="367" type="curve" smooth="yes"/>
      <point x="232" y="367"/>
      <point x="264" y="396"/>
      <point x="264" y="433" type="curve" smooth="yes"/>
      <point x="264" y="470"/>
      <point x="231" y="498"/>
      <point x="195" y="498" type="curve" smooth="yes"/>
      <point x="159" y="498"/>
      <point x="126" y="470"/>
      <point x="126" y="433" type="curve" smooth="yes"/>
      <point x="126" y="396"/>
      <point x="158" y="367"/>
    </contour>
  </outline>
</glyph>
<glyph name="less" format="2">
  <advance height="1000" width="780"/>
  <unicode hex="003C"/>
  <note>
cid00029
</note>
  <outline>
    <contour>
      <point x="678" y="56" type="line"/>
      <point x="678" y="116" type="line"/>
      <point x="171" y="359" type="line"/>
      <point x="678" y="600" type="line"/>
      <point x="678" y="659" type="line"/>
      <point x="88" y="359" type="line"/>
    </contour>
  </outline>
</glyph>
<glyph name="equal" format="2">
  <advance height="1000" width="750"/>
  <unicode hex="003D"/>
  <note>
cid00030
</note>
  <outline>
    <contour>
      <point x="78" y="419" type="line"/>
      <point x="673" y="419" type="line"/>
      <point x="673" y="464" type="line"/>
      <point x="78" y="464" type="line"/>
    </contour>
    <contour>
      <point x="78" y="262" type="line"/>
      <point x="673" y="262" type="line"/>
      <point x="673" y="307" type="line"/>
      <point x="78" y="307" type="line"/>
    </contour>
  </outline>
</glyph>
<glyph name="greater" format="2">
  <advance height="1000" width="780"/>
  <unicode hex="003E"/>
  <note>
cid00031
</note>
  <outline>
    <contour>
      <point x="88" y="56" type="line"/>
      <point x="678" y="359" type="line"/>
      <point x="88" y="659" type="line"/>
      <point x="88" y="600" type="line"/>
      <point x="595" y="359" type="line"/>
      <point x="88" y="116" type="line"/>
    </contour>
  </outline>
</glyph>
<glyph name="question" format="2">
  <advance height="1000" width="560"/>
  <unicode hex="003F"/>
  <note>
cid00032
</note>
  <outline>
    <contour>
      <point x="253" y="204" type="curve"/>
      <point x="291" y="204" type="line"/>
      <point x="291" y="259" type="line" smooth="yes"/>
      <point x="291" y="336"/>
      <point x="322" y="376"/>
      <point x="384" y="418" type="curve" smooth="yes"/>
      <point x="400" y="429"/>
      <point x="416" y="439"/>
      <point x="430" y="452" type="curve" smooth="yes"/>
      <point x="466" y="482"/>
      <point x="496" y="533"/>
      <point x="496" y="581" type="curve" smooth="yes"/>
      <point x="496" y="697"/>
      <point x="389" y="747"/>
      <point x="287" y="747" type="curve" smooth="yes"/>
      <point x="203" y="747"/>
      <point x="125" y="711"/>
      <point x="84" y="635" type="curve" smooth="yes"/>
      <point x="73" y="615"/>
      <point x="64" y="589"/>
      <point x="64" y="566" type="curve" smooth="yes"/>
      <point x="64" y="537"/>
      <point x="71" y="511"/>
      <point x="105" y="511" type="curve" smooth="yes"/>
      <point x="136" y="511"/>
      <point x="161" y="527"/>
      <point x="161" y="561" type="curve" smooth="yes"/>
      <point x="161" y="580"/>
      <point x="150" y="597"/>
      <point x="150" y="616" type="curve" smooth="yes"/>
      <point x="150" y="695"/>
      <point x="213" y="724"/>
      <point x="283" y="724" type="curve" smooth="yes"/>
      <point x="361" y="724"/>
      <point x="395" y="678"/>
      <point x="395" y="603" type="curve" smooth="yes"/>
      <point x="395" y="429"/>
      <point x="252" y="454"/>
      <point x="252" y="274" type="curve" smooth="yes"/>
      <point x="252" y="250"/>
      <point x="253" y="227"/>
    </contour>
    <contour>
      <point x="279" y="-8" type="curve" smooth="yes"/>
      <point x="318" y="-8"/>
      <point x="352" y="24"/>
      <point x="352" y="63" type="curve" smooth="yes"/>
      <point x="352" y="103"/>
      <point x="318" y="133"/>
      <point x="279" y="133" type="curve" smooth="yes"/>
      <point x="240" y="133"/>
      <point x="206" y="103"/>
      <point x="206" y="63" type="curve" smooth="yes"/>
      <point x="206" y="24"/>
      <point x="240" y="-8"/>
    </contour>
  </outline>
</glyph>
<glyph name="at" format="2">
  <advance height="1000" width="900"/>
  <unicode hex="0040"/>
  <note>
cid00033
</note>
  <outline>
    <contour>
      <point x="460" y="-58" type="curve" smooth="yes"/>
      <point x="541" y="-58"/>
      <point x="672" y="-14"/>
      <point x="732" y="41" type="curve" smooth="yes"/>
      <point x="738" y="47"/>
      <point x="750" y="56"/>
      <point x="750" y="66" type="curve" smooth="yes"/>
      <point x="750" y="70"/>
      <point x="743" y="71"/>
      <point x="741" y="69" type="curve"/>
      <point x="655" y="15"/>
      <point x="564" y="-21"/>
      <point x="461" y="-21" type="curve" smooth="yes"/>
      <point x="278" y="-21"/>
      <point x="164" y="135"/>
      <point x="164" y="308" type="curve" smooth="yes"/>
      <point x="164" y="504"/>
      <point x="276" y="687"/>
      <point x="490" y="687" type="curve" smooth="yes"/>
      <point x="586" y="687"/>
      <point x="691" y="647"/>
      <point x="744" y="562" type="curve" smooth="yes"/>
      <point x="771" y="519"/>
      <point x="781" y="462"/>
      <point x="781" y="412" type="curve" smooth="yes"/>
      <point x="781" y="321"/>
      <point x="748" y="171"/>
      <point x="633" y="171" type="curve" smooth="yes"/>
      <point x="605" y="171"/>
      <point x="588" y="205"/>
      <point x="588" y="230" type="curve" smooth="yes"/>
      <point x="588" y="283"/>
      <point x="645" y="461"/>
      <point x="665" y="519" type="curve"/>
      <point x="646" y="524"/>
      <point x="627" y="526"/>
      <point x="607" y="530" type="curve"/>
      <point x="598" y="515"/>
      <point x="590" y="499"/>
      <point x="582" y="484" type="curve"/>
      <point x="561" y="514"/>
      <point x="528" y="538"/>
      <point x="491" y="538" type="curve" smooth="yes"/>
      <point x="436" y="538"/>
      <point x="393" y="514"/>
      <point x="360" y="472" type="curve" smooth="yes"/>
      <point x="324" y="428"/>
      <point x="295" y="352"/>
      <point x="295" y="295" type="curve" smooth="yes"/>
      <point x="295" y="259"/>
      <point x="299" y="221"/>
      <point x="318" y="189" type="curve" smooth="yes"/>
      <point x="336" y="159"/>
      <point x="367" y="132"/>
      <point x="403" y="132" type="curve" smooth="yes"/>
      <point x="464" y="132"/>
      <point x="499" y="160"/>
      <point x="531" y="209" type="curve"/>
      <point x="542" y="163"/>
      <point x="570" y="131"/>
      <point x="621" y="131" type="curve" smooth="yes"/>
      <point x="687" y="131"/>
      <point x="738" y="158"/>
      <point x="773" y="214" type="curve" smooth="yes"/>
      <point x="806" y="264"/>
      <point x="825" y="326"/>
      <point x="825" y="386" type="curve" smooth="yes"/>
      <point x="825" y="599"/>
      <point x="702" y="716"/>
      <point x="491" y="716" type="curve" smooth="yes"/>
      <point x="261" y="716"/>
      <point x="75" y="532"/>
      <point x="75" y="302" type="curve" smooth="yes"/>
      <point x="75" y="258"/>
      <point x="86" y="209"/>
      <point x="103" y="168" type="curve" smooth="yes"/>
      <point x="165" y="14"/>
      <point x="298" y="-58"/>
    </contour>
    <contour>
      <point x="444" y="182" type="curve" smooth="yes"/>
      <point x="377" y="182"/>
      <point x="367" y="240"/>
      <point x="367" y="294" type="curve" smooth="yes"/>
      <point x="367" y="373"/>
      <point x="401" y="506"/>
      <point x="500" y="506" type="curve" smooth="yes"/>
      <point x="538" y="506"/>
      <point x="561" y="484"/>
      <point x="561" y="445" type="curve" smooth="yes"/>
      <point x="561" y="400"/>
      <point x="527" y="256"/>
      <point x="504" y="219" type="curve" smooth="yes"/>
      <point x="489" y="195"/>
      <point x="473" y="182"/>
    </contour>
  </outline>
</glyph>
<glyph name="A" format="2">
  <advance height="1000" width="774"/>
  <unicode hex="0041"/>
  <note>
cid00034
</note>
  <outline>
    <contour>
      <point x="483" y="-2" type="curve" smooth="yes"/>
      <point x="504" y="-2"/>
      <point x="527" y="-2"/>
      <point x="548" y="0" type="curve" smooth="yes"/>
      <point x="589" y="3"/>
      <point x="630" y="2"/>
      <point x="671" y="2" type="curve" smooth="yes"/>
      <point x="698" y="2"/>
      <point x="743" y="0"/>
      <point x="753" y="0" type="curve" smooth="yes"/>
      <point x="761" y="0"/>
      <point x="762" y="7"/>
      <point x="762" y="15" type="curve" smooth="yes"/>
      <point x="762" y="19"/>
      <point x="761" y="28"/>
      <point x="756" y="28" type="curve" smooth="yes"/>
      <point x="743" y="28"/>
      <point x="730" y="27"/>
      <point x="718" y="27" type="curve" smooth="yes"/>
      <point x="704" y="27"/>
      <point x="686" y="34"/>
      <point x="681" y="48" type="curve" smooth="yes"/>
      <point x="422" y="748" type="line"/>
      <point x="370" y="742" type="line" smooth="yes"/>
      <point x="357" y="740"/>
      <point x="341" y="740"/>
      <point x="328" y="737" type="curve"/>
      <point x="326" y="736"/>
      <point x="325" y="734"/>
      <point x="325" y="732" type="curve" smooth="yes"/>
      <point x="325" y="730"/>
      <point x="331" y="725"/>
      <point x="331" y="722" type="curve" smooth="yes"/>
      <point x="331" y="690"/>
      <point x="114" y="96"/>
      <point x="92" y="53" type="curve" smooth="yes"/>
      <point x="81" y="30"/>
      <point x="65" y="23"/>
      <point x="50" y="23" type="curve" smooth="yes"/>
      <point x="39" y="23"/>
      <point x="30" y="24"/>
      <point x="23" y="24" type="curve" smooth="yes"/>
      <point x="15" y="24"/>
      <point x="9" y="21"/>
      <point x="9" y="10" type="curve" smooth="yes"/>
      <point x="9" y="3"/>
      <point x="10" y="0"/>
      <point x="18" y="0" type="curve" smooth="yes"/>
      <point x="47" y="0"/>
      <point x="75" y="2"/>
      <point x="104" y="2" type="curve" smooth="yes"/>
      <point x="143" y="2"/>
      <point x="183" y="0"/>
      <point x="222" y="0" type="curve" smooth="yes"/>
      <point x="227" y="0"/>
      <point x="233" y="0"/>
      <point x="234" y="5" type="curve" smooth="yes"/>
      <point x="235" y="10"/>
      <point x="234" y="23"/>
      <point x="226" y="23" type="curve" smooth="yes"/>
      <point x="212" y="22" type="line" smooth="yes"/>
      <point x="205" y="21"/>
      <point x="194" y="21"/>
      <point x="181" y="21" type="curve" smooth="yes"/>
      <point x="168" y="21"/>
      <point x="141" y="24"/>
      <point x="141" y="43" type="curve" smooth="yes"/>
      <point x="141" y="59"/>
      <point x="206" y="232"/>
      <point x="217" y="263" type="curve"/>
      <point x="490" y="263" type="line"/>
      <point x="499" y="239"/>
      <point x="565" y="55"/>
      <point x="565" y="46" type="curve" smooth="yes"/>
      <point x="565" y="31"/>
      <point x="545" y="27"/>
      <point x="533" y="27" type="curve" smooth="yes"/>
      <point x="484" y="27" type="line" smooth="yes"/>
      <point x="479" y="27"/>
      <point x="476" y="21"/>
      <point x="476" y="17" type="curve" smooth="yes"/>
      <point x="475" y="9" type="line" smooth="yes"/>
      <point x="475" y="4"/>
      <point x="476" y="-2"/>
    </contour>
    <contour>
      <point x="226" y="297" type="line"/>
      <point x="267" y="418"/>
      <point x="310" y="538"/>
      <point x="352" y="658" type="curve"/>
      <point x="394" y="538"/>
      <point x="437" y="417"/>
      <point x="480" y="297" type="curve"/>
    </contour>
  </outline>
</glyph>
<glyph name="B" format="2">
  <advance height="1000" width="694"/>
  <unicode hex="0042"/>
  <note>
cid00035
</note>
  <outline>
    <contour>
      <point x="42" y="-3" type="curve" smooth="yes"/>
      <point x="78" y="-3"/>
      <point x="113" y="4"/>
      <point x="149" y="4" type="curve" smooth="yes"/>
      <point x="213" y="4"/>
      <point x="276" y="2"/>
      <point x="340" y="-1" type="curve" smooth="yes"/>
      <point x="349" y="-2"/>
      <point x="359" y="-2"/>
      <point x="369" y="-2" type="curve" smooth="yes"/>
      <point x="419" y="-2"/>
      <point x="478" y="2"/>
      <point x="525" y="21" type="curve" smooth="yes"/>
      <point x="613" y="56"/>
      <point x="657" y="126"/>
      <point x="657" y="220" type="curve" smooth="yes"/>
      <point x="657" y="331"/>
      <point x="557" y="382"/>
      <point x="461" y="398" type="curve"/>
      <point x="461" y="403" type="line"/>
      <point x="531" y="431"/>
      <point x="606" y="488"/>
      <point x="606" y="570" type="curve" smooth="yes"/>
      <point x="606" y="700"/>
      <point x="501" y="736"/>
      <point x="389" y="736" type="curve" smooth="yes"/>
      <point x="380" y="736"/>
      <point x="370" y="736"/>
      <point x="360" y="735" type="curve" smooth="yes"/>
      <point x="282" y="729"/>
      <point x="206" y="724"/>
      <point x="128" y="724" type="curve" smooth="yes"/>
      <point x="98" y="724"/>
      <point x="69" y="727"/>
      <point x="39" y="727" type="curve" smooth="yes"/>
      <point x="32" y="727"/>
      <point x="31" y="719"/>
      <point x="31" y="714" type="curve" smooth="yes"/>
      <point x="31" y="708"/>
      <point x="32" y="696"/>
      <point x="41" y="696" type="curve" smooth="yes"/>
      <point x="51" y="696"/>
      <point x="61" y="697"/>
      <point x="71" y="697" type="curve" smooth="yes"/>
      <point x="95" y="697"/>
      <point x="122" y="694"/>
      <point x="131" y="668" type="curve" smooth="yes"/>
      <point x="135" y="656"/>
      <point x="135" y="643"/>
      <point x="135" y="630" type="curve" smooth="yes"/>
      <point x="135" y="558"/>
      <point x="136" y="486"/>
      <point x="136" y="414" type="curve" smooth="yes"/>
      <point x="136" y="305" type="line" smooth="yes"/>
      <point x="136" y="255"/>
      <point x="135" y="205"/>
      <point x="135" y="156" type="curve" smooth="yes"/>
      <point x="135" y="130"/>
      <point x="137" y="105"/>
      <point x="135" y="79" type="curve" smooth="yes"/>
      <point x="133" y="54"/>
      <point x="128" y="34"/>
      <point x="100" y="30" type="curve" smooth="yes"/>
      <point x="81" y="27"/>
      <point x="60" y="27"/>
      <point x="41" y="27" type="curve" smooth="yes"/>
      <point x="34" y="27"/>
      <point x="32" y="23"/>
      <point x="32" y="16" type="curve" smooth="yes"/>
      <point x="32" y="8"/>
      <point x="31" y="-3"/>
    </contour>
    <contour>
      <point x="298" y="23" type="curve" smooth="yes"/>
      <point x="271" y="23"/>
      <point x="234" y="23"/>
      <point x="234" y="60" type="curve" smooth="yes"/>
      <point x="234" y="373" type="line"/>
      <point x="268" y="373"/>
      <point x="302" y="375"/>
      <point x="336" y="375" type="curve" smooth="yes"/>
      <point x="357" y="375"/>
      <point x="378" y="374"/>
      <point x="400" y="374" type="curve" smooth="yes"/>
      <point x="513" y="371"/>
      <point x="550" y="311"/>
      <point x="550" y="204" type="curve" smooth="yes"/>
      <point x="550" y="87"/>
      <point x="478" y="32"/>
      <point x="367" y="25" type="curve" smooth="yes"/>
      <point x="344" y="23"/>
      <point x="321" y="23"/>
    </contour>
    <contour>
      <point x="287" y="400" type="curve" smooth="yes"/>
      <point x="269" y="400"/>
      <point x="252" y="401"/>
      <point x="234" y="401" type="curve"/>
      <point x="234" y="700" type="line"/>
      <point x="270" y="703"/>
      <point x="305" y="703"/>
      <point x="341" y="703" type="curve" smooth="yes"/>
      <point x="439" y="703"/>
      <point x="499" y="662"/>
      <point x="499" y="559" type="curve" smooth="yes"/>
      <point x="499" y="515"/>
      <point x="480" y="468"/>
      <point x="449" y="438" type="curve" smooth="yes"/>
      <point x="411" y="401"/>
      <point x="337" y="400"/>
    </contour>
  </outline>
</glyph>
<glyph name="D" format="2">
  <advance height="1000" width="821"/>
  <unicode hex="0044"/>
  <note>
cid00037
</note>
  <outline>
    <contour>
      <point x="61" y="1" type="curve" smooth="yes"/>
      <point x="68" y="1"/>
      <point x="74" y="1"/>
      <point x="81" y="2" type="curve" smooth="yes"/>
      <point x="120" y="5"/>
      <point x="160" y="5"/>
      <point x="199" y="5" type="curve" smooth="yes"/>
      <point x="248" y="5"/>
      <point x="297" y="1"/>
      <point x="345" y="1" type="curve" smooth="yes"/>
      <point x="427" y="1"/>
      <point x="535" y="18"/>
      <point x="606" y="61" type="curve" smooth="yes"/>
      <point x="721" y="132"/>
      <point x="775" y="259"/>
      <point x="775" y="391" type="curve" smooth="yes"/>
      <point x="775" y="604"/>
      <point x="646" y="733"/>
      <point x="433" y="733" type="curve" smooth="yes"/>
      <point x="334" y="733"/>
      <point x="235" y="724"/>
      <point x="136" y="724" type="curve" smooth="yes"/>
      <point x="106" y="724"/>
      <point x="75" y="727"/>
      <point x="45" y="727" type="curve" smooth="yes"/>
      <point x="34" y="727"/>
      <point x="29" y="722"/>
      <point x="29" y="711" type="curve" smooth="yes"/>
      <point x="29" y="701"/>
      <point x="38" y="695"/>
      <point x="47" y="695" type="curve" smooth="yes"/>
      <point x="56" y="695"/>
      <point x="65" y="696"/>
      <point x="74" y="696" type="curve" smooth="yes"/>
      <point x="129" y="696"/>
      <point x="133" y="676"/>
      <point x="133" y="626" type="curve" smooth="yes"/>
      <point x="133" y="408" type="line"/>
      <point x="133" y="316" type="line" smooth="yes"/>
      <point x="133" y="243"/>
      <point x="132" y="170"/>
      <point x="132" y="97" type="curve" smooth="yes"/>
      <point x="132" y="73"/>
      <point x="127" y="47"/>
      <point x="104" y="35" type="curve" smooth="yes"/>
      <point x="93" y="29"/>
      <point x="53" y="28"/>
      <point x="53" y="15" type="curve" smooth="yes"/>
      <point x="53" y="9"/>
      <point x="53" y="1"/>
    </contour>
    <contour>
      <point x="299" y="34" type="curve" smooth="yes"/>
      <point x="265" y="34"/>
      <point x="234" y="42"/>
      <point x="234" y="82" type="curve" smooth="yes"/>
      <point x="234" y="697" type="line"/>
      <point x="286" y="698"/>
      <point x="337" y="700"/>
      <point x="389" y="700" type="curve" smooth="yes"/>
      <point x="405" y="700"/>
      <point x="422" y="700"/>
      <point x="438" y="698" type="curve" smooth="yes"/>
      <point x="491" y="693"/>
      <point x="544" y="664"/>
      <point x="581" y="627" type="curve" smooth="yes"/>
      <point x="641" y="566"/>
      <point x="664" y="459"/>
      <point x="664" y="376" type="curve" smooth="yes"/>
      <point x="664" y="266"/>
      <point x="631" y="156"/>
      <point x="539" y="88" type="curve" smooth="yes"/>
      <point x="472" y="38"/>
      <point x="379" y="34"/>
    </contour>
  </outline>
</glyph>
<glyph name="F" format="2">
  <advance height="1000" width="610"/>
  <unicode hex="0046"/>
  <note>
cid00039
</note>
  <outline>
    <contour>
      <point x="44" y="-2" type="curve" smooth="yes"/>
      <point x="90" y="-2"/>
      <point x="135" y="3"/>
      <point x="180" y="3" type="curve" smooth="yes"/>
      <point x="207" y="3"/>
      <point x="234" y="2"/>
      <point x="261" y="2" type="curve" smooth="yes"/>
      <point x="283" y="2"/>
      <point x="306" y="-1"/>
      <point x="328" y="-1" type="curve" smooth="yes"/>
      <point x="338" y="-1"/>
      <point x="346" y="5"/>
      <point x="346" y="15" type="curve" smooth="yes"/>
      <point x="346" y="24"/>
      <point x="341" y="30"/>
      <point x="332" y="30" type="curve" smooth="yes"/>
      <point x="307" y="30"/>
      <point x="273" y="31"/>
      <point x="253" y="48" type="curve" smooth="yes"/>
      <point x="242" y="58"/>
      <point x="234" y="71"/>
      <point x="234" y="86" type="curve" smooth="yes"/>
      <point x="234" y="312" type="line" smooth="yes"/>
      <point x="234" y="362"/>
      <point x="307" y="356"/>
      <point x="341" y="356" type="curve" smooth="yes"/>
      <point x="388" y="356"/>
      <point x="435" y="356"/>
      <point x="482" y="351" type="curve" smooth="yes"/>
      <point x="492" y="350"/>
      <point x="502" y="349"/>
      <point x="512" y="349" type="curve" smooth="yes"/>
      <point x="520" y="349"/>
      <point x="524" y="354"/>
      <point x="527" y="361" type="curve" smooth="yes"/>
      <point x="531" y="370"/>
      <point x="544" y="401"/>
      <point x="544" y="410" type="curve" smooth="yes"/>
      <point x="544" y="413"/>
      <point x="539" y="415"/>
      <point x="537" y="415" type="curve" smooth="yes"/>
      <point x="535" y="415" type="line" smooth="yes"/>
      <point x="496" y="408"/>
      <point x="458" y="401"/>
      <point x="418" y="398" type="curve" smooth="yes"/>
      <point x="357" y="393"/>
      <point x="295" y="393"/>
      <point x="234" y="392" type="curve"/>
      <point x="234" y="693" type="line"/>
      <point x="416" y="693" type="line" smooth="yes"/>
      <point x="493" y="693"/>
      <point x="538" y="659"/>
      <point x="561" y="587" type="curve" smooth="yes"/>
      <point x="565" y="576"/>
      <point x="567" y="570"/>
      <point x="580" y="570" type="curve" smooth="yes"/>
      <point x="591" y="570"/>
      <point x="601" y="578"/>
      <point x="601" y="590" type="curve" smooth="yes"/>
      <point x="601" y="629"/>
      <point x="586" y="689"/>
      <point x="579" y="729" type="curve"/>
      <point x="548" y="727"/>
      <point x="518" y="726"/>
      <point x="487" y="726" type="curve" smooth="yes"/>
      <point x="420" y="726"/>
      <point x="353" y="723"/>
      <point x="286" y="723" type="curve" smooth="yes"/>
      <point x="110" y="723" type="line" smooth="yes"/>
      <point x="86" y="723"/>
      <point x="61" y="725"/>
      <point x="37" y="725" type="curve" smooth="yes"/>
      <point x="25" y="725"/>
      <point x="23" y="715"/>
      <point x="23" y="705" type="curve" smooth="yes"/>
      <point x="23" y="692"/>
      <point x="31" y="688"/>
      <point x="42" y="688" type="curve" smooth="yes"/>
      <point x="72" y="688"/>
      <point x="132" y="696"/>
      <point x="132" y="651" type="curve" smooth="yes"/>
      <point x="132" y="116" type="line" smooth="yes"/>
      <point x="132" y="70"/>
      <point x="125" y="41"/>
      <point x="76" y="31" type="curve" smooth="yes"/>
      <point x="65" y="29"/>
      <point x="53" y="29"/>
      <point x="42" y="27" type="curve" smooth="yes"/>
      <point x="31" y="25"/>
      <point x="31" y="19"/>
      <point x="31" y="10" type="curve" smooth="yes"/>
      <point x="31" y="3"/>
      <point x="38" y="-2"/>
    </contour>
  </outline>
</glyph>
<glyph name="G" format="2">
  <advance height="1000" width="781"/>
  <unicode hex="0047"/>
  <note>
cid00040
</note>
  <outline>
    <contour>
      <point x="408" y="3" type="curve" smooth="yes"/>
      <point x="455" y="3"/>
      <point x="505" y="6"/>
      <point x="549" y="25" type="curve" smooth="yes"/>
      <point x="594" y="44"/>
      <point x="641" y="62"/>
      <point x="688" y="78" type="curve"/>
      <point x="688" y="292" type="line"/>
      <point x="750" y="292" type="line" smooth="yes"/>
      <point x="759" y="292"/>
      <point x="763" y="300"/>
      <point x="763" y="308" type="curve" smooth="yes"/>
      <point x="763" y="315"/>
      <point x="759" y="324"/>
      <point x="751" y="324" type="curve" smooth="yes"/>
      <point x="729" y="324"/>
      <point x="708" y="321"/>
      <point x="686" y="321" type="curve" smooth="yes"/>
      <point x="663" y="320"/>
      <point x="641" y="320"/>
      <point x="618" y="320" type="curve" smooth="yes"/>
      <point x="547" y="320" type="line" smooth="yes"/>
      <point x="526" y="320"/>
      <point x="506" y="321"/>
      <point x="485" y="321" type="curve" smooth="yes"/>
      <point x="474" y="321"/>
      <point x="473" y="312"/>
      <point x="473" y="304" type="curve" smooth="yes"/>
      <point x="473" y="295"/>
      <point x="475" y="287"/>
      <point x="486" y="287" type="curve" smooth="yes"/>
      <point x="506" y="287"/>
      <point x="526" y="290"/>
      <point x="546" y="290" type="curve" smooth="yes"/>
      <point x="561" y="290"/>
      <point x="588" y="286"/>
      <point x="588" y="265" type="curve" smooth="yes"/>
      <point x="588" y="133" type="line" smooth="yes"/>
      <point x="588" y="63"/>
      <point x="471" y="45"/>
      <point x="419" y="45" type="curve" smooth="yes"/>
      <point x="239" y="45"/>
      <point x="169" y="208"/>
      <point x="169" y="365" type="curve" smooth="yes"/>
      <point x="169" y="514"/>
      <point x="235" y="710"/>
      <point x="414" y="710" type="curve" smooth="yes"/>
      <point x="460" y="710"/>
      <point x="523" y="691"/>
      <point x="559" y="662" type="curve" smooth="yes"/>
      <point x="593" y="635"/>
      <point x="620" y="600"/>
      <point x="638" y="560" type="curve" smooth="yes"/>
      <point x="641" y="552"/>
      <point x="654" y="518"/>
      <point x="657" y="514" type="curve" smooth="yes"/>
      <point x="662" y="507"/>
      <point x="668" y="506"/>
      <point x="676" y="506" type="curve" smooth="yes"/>
      <point x="700" y="506"/>
      <point x="695" y="534"/>
      <point x="695" y="550" type="curve" smooth="yes"/>
      <point x="695" y="592"/>
      <point x="692" y="633"/>
      <point x="692" y="675" type="curve" smooth="yes"/>
      <point x="692" y="689"/>
      <point x="694" y="704"/>
      <point x="691" y="718" type="curve" smooth="yes"/>
      <point x="690" y="725"/>
      <point x="689" y="727"/>
      <point x="682" y="727" type="curve" smooth="yes"/>
      <point x="674" y="727" type="line"/>
      <point x="655" y="718"/>
      <point x="660" y="698"/>
      <point x="619" y="698" type="curve" smooth="yes"/>
      <point x="604" y="698"/>
      <point x="541" y="718"/>
      <point x="523" y="724" type="curve" smooth="yes"/>
      <point x="486" y="735"/>
      <point x="448" y="740"/>
      <point x="410" y="740" type="curve" smooth="yes"/>
      <point x="196" y="740"/>
      <point x="60" y="569"/>
      <point x="60" y="364" type="curve" smooth="yes"/>
      <point x="60" y="243"/>
      <point x="107" y="128"/>
      <point x="209" y="60" type="curve" smooth="yes"/>
      <point x="260" y="26"/>
      <point x="347" y="3"/>
    </contour>
  </outline>
</glyph>
<glyph name="H" format="2">
  <advance height="1000" width="837"/>
  <unicode hex="0048"/>
  <note>
cid00041
</note>
  <outline>
    <contour>
      <point x="31" y="-3" type="curve" smooth="yes"/>
      <point x="48" y="-3"/>
      <point x="64" y="-1"/>
      <point x="81" y="0" type="curve" smooth="yes"/>
      <point x="108" y="1"/>
      <point x="135" y="3"/>
      <point x="163" y="3" type="curve" smooth="yes"/>
      <point x="209" y="3"/>
      <point x="255" y="-1"/>
      <point x="302" y="-1" type="curve" smooth="yes"/>
      <point x="304" y="-1"/>
      <point x="306" y="0"/>
      <point x="308" y="1" type="curve"/>
      <point x="309" y="4"/>
      <point x="310" y="7"/>
      <point x="310" y="10" type="curve" smooth="yes"/>
      <point x="310" y="13"/>
      <point x="310" y="20"/>
      <point x="309" y="22" type="curve" smooth="yes"/>
      <point x="308" y="26"/>
      <point x="304" y="27"/>
      <point x="301" y="27" type="curve" smooth="yes"/>
      <point x="286" y="27"/>
      <point x="272" y="25"/>
      <point x="258" y="25" type="curve" smooth="yes"/>
      <point x="243" y="25"/>
      <point x="219" y="32"/>
      <point x="219" y="51" type="curve" smooth="yes"/>
      <point x="219" y="368" type="line"/>
      <point x="622" y="368" type="line"/>
      <point x="622" y="51" type="line" smooth="yes"/>
      <point x="622" y="32"/>
      <point x="596" y="25"/>
      <point x="581" y="25" type="curve" smooth="yes"/>
      <point x="566" y="25"/>
      <point x="550" y="26"/>
      <point x="535" y="26" type="curve" smooth="yes"/>
      <point x="528" y="26"/>
      <point x="528" y="12"/>
      <point x="528" y="7" type="curve" smooth="yes"/>
      <point x="528" y="2"/>
      <point x="529" y="-3"/>
      <point x="534" y="-3" type="curve" smooth="yes"/>
      <point x="551" y="-3"/>
      <point x="568" y="-1"/>
      <point x="585" y="0" type="curve" smooth="yes"/>
      <point x="612" y="1"/>
      <point x="639" y="3"/>
      <point x="666" y="3" type="curve" smooth="yes"/>
      <point x="714" y="3"/>
      <point x="761" y="-1"/>
      <point x="808" y="-1" type="curve" smooth="yes"/>
      <point x="813" y="-1"/>
      <point x="815" y="1"/>
      <point x="815" y="6" type="curve" smooth="yes"/>
      <point x="815" y="17" type="line" smooth="yes"/>
      <point x="815" y="23"/>
      <point x="813" y="27"/>
      <point x="806" y="27" type="curve" smooth="yes"/>
      <point x="792" y="27"/>
      <point x="778" y="25"/>
      <point x="764" y="25" type="curve" smooth="yes"/>
      <point x="749" y="25"/>
      <point x="725" y="32"/>
      <point x="725" y="51" type="curve" smooth="yes"/>
      <point x="725" y="682" type="line" smooth="yes"/>
      <point x="725" y="701"/>
      <point x="749" y="708"/>
      <point x="764" y="708" type="curve" smooth="yes"/>
      <point x="777" y="708"/>
      <point x="791" y="707"/>
      <point x="804" y="707" type="curve" smooth="yes"/>
      <point x="815" y="707"/>
      <point x="817" y="712"/>
      <point x="817" y="721" type="curve" smooth="yes"/>
      <point x="817" y="727"/>
      <point x="815" y="734"/>
      <point x="808" y="734" type="curve" smooth="yes"/>
      <point x="761" y="734"/>
      <point x="714" y="730"/>
      <point x="666" y="730" type="curve" smooth="yes"/>
      <point x="636" y="730" type="line" smooth="yes"/>
      <point x="602" y="730"/>
      <point x="568" y="734"/>
      <point x="536" y="734" type="curve" smooth="yes"/>
      <point x="529" y="734"/>
      <point x="528" y="728"/>
      <point x="528" y="722" type="curve" smooth="yes"/>
      <point x="528" y="716"/>
      <point x="527" y="705"/>
      <point x="535" y="705" type="curve" smooth="yes"/>
      <point x="550" y="705"/>
      <point x="566" y="706"/>
      <point x="581" y="706" type="curve" smooth="yes"/>
      <point x="606" y="706"/>
      <point x="622" y="699"/>
      <point x="622" y="672" type="curve" smooth="yes"/>
      <point x="622" y="401" type="line"/>
      <point x="219" y="401" type="line"/>
      <point x="219" y="680" type="line" smooth="yes"/>
      <point x="219" y="699"/>
      <point x="243" y="706"/>
      <point x="258" y="706" type="curve" smooth="yes"/>
      <point x="272" y="706"/>
      <point x="286" y="704"/>
      <point x="301" y="704" type="curve" smooth="yes"/>
      <point x="308" y="704"/>
      <point x="311" y="708"/>
      <point x="311" y="715" type="curve" smooth="yes"/>
      <point x="311" y="721"/>
      <point x="313" y="732"/>
      <point x="304" y="732" type="curve" smooth="yes"/>
      <point x="257" y="732"/>
      <point x="210" y="728"/>
      <point x="163" y="728" type="curve" smooth="yes"/>
      <point x="135" y="728"/>
      <point x="108" y="730"/>
      <point x="81" y="731" type="curve" smooth="yes"/>
      <point x="64" y="732"/>
      <point x="48" y="734"/>
      <point x="31" y="734" type="curve" smooth="yes"/>
      <point x="25" y="734"/>
      <point x="23" y="731"/>
      <point x="23" y="725" type="curve" smooth="yes"/>
      <point x="23" y="719"/>
      <point x="22" y="705"/>
      <point x="32" y="705" type="curve" smooth="yes"/>
      <point x="47" y="705"/>
      <point x="62" y="706"/>
      <point x="77" y="706" type="curve" smooth="yes"/>
      <point x="93" y="706"/>
      <point x="118" y="699"/>
      <point x="118" y="680" type="curve" smooth="yes"/>
      <point x="118" y="585"/>
      <point x="119" y="489"/>
      <point x="119" y="394" type="curve" smooth="yes"/>
      <point x="119" y="280"/>
      <point x="118" y="165"/>
      <point x="118" y="51" type="curve" smooth="yes"/>
      <point x="118" y="32"/>
      <point x="93" y="25"/>
      <point x="77" y="25" type="curve" smooth="yes"/>
      <point x="62" y="25"/>
      <point x="47" y="26"/>
      <point x="32" y="26" type="curve" smooth="yes"/>
      <point x="24" y="26"/>
      <point x="24" y="14"/>
      <point x="24" y="9" type="curve" smooth="yes"/>
      <point x="24" y="7"/>
      <point x="25" y="5"/>
      <point x="26" y="2" type="curve"/>
      <point x="25" y="-1"/>
      <point x="27" y="-3"/>
    </contour>
  </outline>
</glyph>
<glyph name="J" format="2">
  <advance height="1000" width="456"/>
  <unicode hex="004A"/>
  <note>
cid00043
</note>
  <outline>
    <contour>
      <point x="103" y="-165" type="curve" smooth="yes"/>
      <point x="275" y="-165"/>
      <point x="332" y="-44"/>
      <point x="332" y="110" type="curve" smooth="yes"/>
      <point x="332" y="288"/>
      <point x="333" y="465"/>
      <point x="333" y="643" type="curve" smooth="yes"/>
      <point x="333" y="653"/>
      <point x="332" y="663"/>
      <point x="333" y="673" type="curve" smooth="yes"/>
      <point x="335" y="695"/>
      <point x="359" y="705"/>
      <point x="378" y="705" type="curve" smooth="yes"/>
      <point x="398" y="705"/>
      <point x="417" y="704"/>
      <point x="437" y="704" type="curve" smooth="yes"/>
      <point x="447" y="704"/>
      <point x="448" y="710"/>
      <point x="448" y="719" type="curve" smooth="yes"/>
      <point x="448" y="726"/>
      <point x="448" y="733"/>
      <point x="438" y="733" type="curve" smooth="yes"/>
      <point x="383" y="733"/>
      <point x="327" y="728"/>
      <point x="272" y="728" type="curve" smooth="yes"/>
      <point x="234" y="728"/>
      <point x="195" y="729"/>
      <point x="157" y="731" type="curve" smooth="yes"/>
      <point x="143" y="731"/>
      <point x="129" y="733"/>
      <point x="116" y="733" type="curve" smooth="yes"/>
      <point x="106" y="733"/>
      <point x="103" y="726"/>
      <point x="103" y="718" type="curve" smooth="yes"/>
      <point x="103" y="710"/>
      <point x="109" y="704"/>
      <point x="117" y="704" type="curve" smooth="yes"/>
      <point x="129" y="704"/>
      <point x="142" y="706"/>
      <point x="155" y="706" type="curve" smooth="yes"/>
      <point x="177" y="706"/>
      <point x="226" y="705"/>
      <point x="226" y="673" type="curve" smooth="yes"/>
      <point x="226" y="67" type="line" smooth="yes"/>
      <point x="226" y="26"/>
      <point x="226" y="-16"/>
      <point x="219" y="-57" type="curve" smooth="yes"/>
      <point x="209" y="-107"/>
      <point x="152" y="-136"/>
      <point x="105" y="-136" type="curve" smooth="yes"/>
      <point x="82" y="-136"/>
      <point x="54" y="-127"/>
      <point x="54" y="-99" type="curve" smooth="yes"/>
      <point x="54" y="-89"/>
      <point x="60" y="-81"/>
      <point x="66" y="-74" type="curve"/>
      <point x="66" y="-55"/>
      <point x="25" y="-42"/>
      <point x="9" y="-42" type="curve" smooth="yes"/>
      <point x="-21" y="-42"/>
      <point x="-51" y="-63"/>
      <point x="-51" y="-96" type="curve" smooth="yes"/>
      <point x="-51" y="-166"/>
      <point x="55" y="-165"/>
    </contour>
  </outline>
</glyph>
<glyph name="K" format="2">
  <advance height="1000" width="722"/>
  <unicode hex="004B"/>
  <note>
cid00044
</note>
  <outline>
    <contour>
      <point x="39" y="1" type="curve"/>
      <point x="83" y="3"/>
      <point x="128" y="5"/>
      <point x="172" y="5" type="curve" smooth="yes"/>
      <point x="217" y="5"/>
      <point x="261" y="1"/>
      <point x="306" y="1" type="curve" smooth="yes"/>
      <point x="313" y="1"/>
      <point x="317" y="7"/>
      <point x="317" y="14" type="curve" smooth="yes"/>
      <point x="317" y="23"/>
      <point x="313" y="27"/>
      <point x="304" y="27" type="curve" smooth="yes"/>
      <point x="283" y="27"/>
      <point x="222" y="19"/>
      <point x="222" y="53" type="curve" smooth="yes"/>
      <point x="222" y="342" type="line"/>
      <point x="257" y="371" type="line"/>
      <point x="347" y="260"/>
      <point x="434" y="146"/>
      <point x="517" y="30" type="curve" smooth="yes"/>
      <point x="521" y="25"/>
      <point x="525" y="19"/>
      <point x="530" y="15" type="curve" smooth="yes"/>
      <point x="546" y="0"/>
      <point x="566" y="1"/>
      <point x="587" y="1" type="curve" smooth="yes"/>
      <point x="629" y="1"/>
      <point x="671" y="2"/>
      <point x="713" y="2" type="curve" smooth="yes"/>
      <point x="719" y="2"/>
      <point x="722" y="11"/>
      <point x="722" y="16" type="curve" smooth="yes"/>
      <point x="722" y="35"/>
      <point x="671" y="22"/>
      <point x="642" y="54" type="curve" smooth="yes"/>
      <point x="532" y="175"/>
      <point x="430" y="304"/>
      <point x="330" y="432" type="curve"/>
      <point x="578" y="668" type="line" smooth="yes"/>
      <point x="606" y="695"/>
      <point x="639" y="704"/>
      <point x="677" y="704" type="curve" smooth="yes"/>
      <point x="684" y="704"/>
      <point x="687" y="711"/>
      <point x="687" y="717" type="curve" smooth="yes"/>
      <point x="687" y="722"/>
      <point x="685" y="730"/>
      <point x="679" y="730" type="curve" smooth="yes"/>
      <point x="662" y="730"/>
      <point x="645" y="729"/>
      <point x="628" y="729" type="curve" smooth="yes"/>
      <point x="608" y="729"/>
      <point x="588" y="730"/>
      <point x="568" y="730" type="curve" smooth="yes"/>
      <point x="560" y="730"/>
      <point x="556" y="726"/>
      <point x="552" y="720" type="curve" smooth="yes"/>
      <point x="511" y="665"/>
      <point x="465" y="616"/>
      <point x="417" y="566" type="curve" smooth="yes"/>
      <point x="353" y="500"/>
      <point x="288" y="436"/>
      <point x="221" y="373" type="curve"/>
      <point x="222" y="425"/>
      <point x="222" y="477"/>
      <point x="222" y="529" type="curve" smooth="yes"/>
      <point x="222" y="681" type="line" smooth="yes"/>
      <point x="222" y="697"/>
      <point x="241" y="707"/>
      <point x="256" y="707" type="curve" smooth="yes"/>
      <point x="270" y="707"/>
      <point x="285" y="706"/>
      <point x="300" y="706" type="curve" smooth="yes"/>
      <point x="307" y="706"/>
      <point x="310" y="713"/>
      <point x="310" y="719" type="curve" smooth="yes"/>
      <point x="310" y="729"/>
      <point x="307" y="733"/>
      <point x="298" y="733" type="curve" smooth="yes"/>
      <point x="256" y="733"/>
      <point x="214" y="729"/>
      <point x="172" y="729" type="curve" smooth="yes"/>
      <point x="126" y="729"/>
      <point x="80" y="733"/>
      <point x="34" y="733" type="curve" smooth="yes"/>
      <point x="28" y="733"/>
      <point x="27" y="730"/>
      <point x="27" y="725" type="curve" smooth="yes"/>
      <point x="27" y="716"/>
      <point x="26" y="706"/>
      <point x="39" y="706" type="curve" smooth="yes"/>
      <point x="48" y="706"/>
      <point x="56" y="707"/>
      <point x="65" y="707" type="curve" smooth="yes"/>
      <point x="87" y="707" type="line" smooth="yes"/>
      <point x="98" y="707"/>
      <point x="122" y="694"/>
      <point x="122" y="681" type="curve" smooth="yes"/>
      <point x="122" y="53" type="line" smooth="yes"/>
      <point x="122" y="27"/>
      <point x="83" y="27"/>
      <point x="65" y="27" type="curve" smooth="yes"/>
      <point x="57" y="27"/>
      <point x="49" y="28"/>
      <point x="41" y="27" type="curve" smooth="yes"/>
      <point x="32" y="26"/>
      <point x="31" y="24"/>
      <point x="31" y="15" type="curve" smooth="yes"/>
      <point x="31" y="8"/>
      <point x="33" y="5"/>
    </contour>
  </outline>
</glyph>
<glyph name="L" format="2">
  <advance height="1000" width="670"/>
  <unicode hex="004C"/>
  <note>
cid00045
</note>
  <outline>
    <contour>
      <point x="31" y="-2" type="curve" smooth="yes"/>
      <point x="76" y="-2"/>
      <point x="120" y="1"/>
      <point x="165" y="2" type="curve" smooth="yes"/>
      <point x="246" y="4"/>
      <point x="327" y="4"/>
      <point x="408" y="4" type="curve" smooth="yes"/>
      <point x="474" y="4"/>
      <point x="539" y="2"/>
      <point x="605" y="2" type="curve" smooth="yes"/>
      <point x="611" y="2"/>
      <point x="617" y="4"/>
      <point x="622" y="8" type="curve" smooth="yes"/>
      <point x="624" y="10"/>
      <point x="626" y="14"/>
      <point x="626" y="17" type="curve"/>
      <point x="637" y="76"/>
      <point x="640" y="137"/>
      <point x="650" y="196" type="curve" smooth="yes"/>
      <point x="652" y="206"/>
      <point x="654" y="216"/>
      <point x="654" y="226" type="curve" smooth="yes"/>
      <point x="654" y="229"/>
      <point x="652" y="235"/>
      <point x="648" y="235" type="curve" smooth="yes"/>
      <point x="640" y="235"/>
      <point x="635" y="235"/>
      <point x="631" y="226" type="curve" smooth="yes"/>
      <point x="613" y="180"/>
      <point x="600" y="135"/>
      <point x="567" y="96" type="curve" smooth="yes"/>
      <point x="542" y="67"/>
      <point x="506" y="47"/>
      <point x="469" y="40" type="curve" smooth="yes"/>
      <point x="412" y="30"/>
      <point x="352" y="29"/>
      <point x="294" y="29" type="curve" smooth="yes"/>
      <point x="270" y="29"/>
      <point x="218" y="28"/>
      <point x="218" y="63" type="curve" smooth="yes"/>
      <point x="218" y="122"/>
      <point x="217" y="182"/>
      <point x="217" y="241" type="curve" smooth="yes"/>
      <point x="217" y="536" type="line" smooth="yes"/>
      <point x="217" y="583"/>
      <point x="218" y="629"/>
      <point x="218" y="676" type="curve" smooth="yes"/>
      <point x="218" y="704"/>
      <point x="244" y="705"/>
      <point x="266" y="705" type="curve" smooth="yes"/>
      <point x="283" y="705"/>
      <point x="300" y="704"/>
      <point x="317" y="704" type="curve" smooth="yes"/>
      <point x="326" y="704"/>
      <point x="327" y="713"/>
      <point x="327" y="719" type="curve" smooth="yes"/>
      <point x="327" y="725"/>
      <point x="326" y="733"/>
      <point x="317" y="733" type="curve" smooth="yes"/>
      <point x="266" y="733"/>
      <point x="214" y="731"/>
      <point x="163" y="731" type="curve" smooth="yes"/>
      <point x="119" y="731"/>
      <point x="76" y="733"/>
      <point x="32" y="733" type="curve" smooth="yes"/>
      <point x="23" y="733"/>
      <point x="22" y="726"/>
      <point x="22" y="718" type="curve" smooth="yes"/>
      <point x="22" y="708"/>
      <point x="23" y="702"/>
      <point x="34" y="702" type="curve" smooth="yes"/>
      <point x="47" y="702"/>
      <point x="59" y="704"/>
      <point x="72" y="704" type="curve" smooth="yes"/>
      <point x="118" y="704"/>
      <point x="114" y="682"/>
      <point x="114" y="643" type="curve" smooth="yes"/>
      <point x="114" y="52" type="line" smooth="yes"/>
      <point x="114" y="31"/>
      <point x="89" y="25"/>
      <point x="71" y="25" type="curve" smooth="yes"/>
      <point x="59" y="25"/>
      <point x="46" y="26"/>
      <point x="33" y="26" type="curve" smooth="yes"/>
      <point x="23" y="26"/>
      <point x="19" y="23"/>
      <point x="19" y="12" type="curve" smooth="yes"/>
      <point x="19" y="3"/>
      <point x="22" y="-2"/>
    </contour>
  </outline>
</glyph>
<glyph name="M" format="2">
  <advance height="1000" width="947"/>
  <unicode hex="004D"/>
  <note>
cid00046
</note>
  <outline>
    <contour>
      <point x="642" y="-1" type="curve" smooth="yes"/>
      <point x="664" y="-1"/>
      <point x="686" y="2"/>
      <point x="709" y="3" type="curve" smooth="yes"/>
      <point x="731" y="4"/>
      <point x="754" y="5"/>
      <point x="777" y="5" type="curve" smooth="yes"/>
      <point x="825" y="5"/>
      <point x="873" y="1"/>
      <point x="922" y="1" type="curve" smooth="yes"/>
      <point x="929" y="1"/>
      <point x="934" y="7"/>
      <point x="934" y="14" type="curve" smooth="yes"/>
      <point x="934" y="21"/>
      <point x="934" y="31"/>
      <point x="924" y="31" type="curve" smooth="yes"/>
      <point x="907" y="31"/>
      <point x="891" y="29"/>
      <point x="875" y="29" type="curve" smooth="yes"/>
      <point x="847" y="29"/>
      <point x="827" y="32"/>
      <point x="827" y="63" type="curve" smooth="yes"/>
      <point x="827" y="678" type="line" smooth="yes"/>
      <point x="827" y="698"/>
      <point x="858" y="704"/>
      <point x="874" y="704" type="curve" smooth="yes"/>
      <point x="890" y="704"/>
      <point x="906" y="702"/>
      <point x="923" y="702" type="curve" smooth="yes"/>
      <point x="931" y="702"/>
      <point x="931" y="713"/>
      <point x="931" y="718" type="curve" smooth="yes"/>
      <point x="931" y="723"/>
      <point x="931" y="734"/>
      <point x="923" y="734" type="curve" smooth="yes"/>
      <point x="883" y="734"/>
      <point x="844" y="729"/>
      <point x="804" y="729" type="curve" smooth="yes"/>
      <point x="771" y="729"/>
      <point x="738" y="730"/>
      <point x="705" y="731" type="curve"/>
      <point x="637" y="539"/>
      <point x="552" y="354"/>
      <point x="479" y="163" type="curve"/>
      <point x="242" y="733" type="line"/>
      <point x="208" y="731"/>
      <point x="174" y="730"/>
      <point x="140" y="730" type="curve" smooth="yes"/>
      <point x="105" y="730"/>
      <point x="69" y="733"/>
      <point x="34" y="733" type="curve" smooth="yes"/>
      <point x="25" y="733"/>
      <point x="23" y="727"/>
      <point x="23" y="719" type="curve" smooth="yes"/>
      <point x="23" y="713"/>
      <point x="25" y="703"/>
      <point x="33" y="703" type="curve" smooth="yes"/>
      <point x="45" y="703"/>
      <point x="57" y="705"/>
      <point x="69" y="705" type="curve" smooth="yes"/>
      <point x="89" y="705"/>
      <point x="120" y="699"/>
      <point x="120" y="674" type="curve" smooth="yes"/>
      <point x="120" y="532"/>
      <point x="117" y="391"/>
      <point x="117" y="249" type="curve" smooth="yes"/>
      <point x="117" y="206"/>
      <point x="118" y="163"/>
      <point x="118" y="120" type="curve" smooth="yes"/>
      <point x="118" y="98"/>
      <point x="119" y="76"/>
      <point x="117" y="55" type="curve" smooth="yes"/>
      <point x="115" y="30"/>
      <point x="87" y="28"/>
      <point x="67" y="28" type="curve" smooth="yes"/>
      <point x="57" y="28"/>
      <point x="48" y="29"/>
      <point x="38" y="29" type="curve" smooth="yes"/>
      <point x="29" y="29"/>
      <point x="23" y="30"/>
      <point x="23" y="17" type="curve" smooth="yes"/>
      <point x="23" y="8" type="line"/>
      <point x="24" y="6"/>
      <point x="24" y="4"/>
      <point x="26" y="2" type="curve"/>
      <point x="61" y="2"/>
      <point x="96" y="5"/>
      <point x="131" y="5" type="curve" smooth="yes"/>
      <point x="167" y="5"/>
      <point x="204" y="2"/>
      <point x="240" y="2" type="curve" smooth="yes"/>
      <point x="249" y="2"/>
      <point x="249" y="18"/>
      <point x="249" y="25" type="curve" smooth="yes"/>
      <point x="249" y="28"/>
      <point x="248" y="31"/>
      <point x="244" y="31" type="curve" smooth="yes"/>
      <point x="231" y="31"/>
      <point x="217" y="29"/>
      <point x="204" y="29" type="curve" smooth="yes"/>
      <point x="184" y="29"/>
      <point x="154" y="28"/>
      <point x="154" y="55" type="curve" smooth="yes"/>
      <point x="154" y="262"/>
      <point x="153" y="469"/>
      <point x="153" y="676" type="curve"/>
      <point x="213" y="530"/>
      <point x="274" y="384"/>
      <point x="335" y="238" type="curve" smooth="yes"/>
      <point x="354" y="193"/>
      <point x="372" y="147"/>
      <point x="392" y="101" type="curve" smooth="yes"/>
      <point x="401" y="80"/>
      <point x="409" y="56"/>
      <point x="420" y="36" type="curve" smooth="yes"/>
      <point x="425" y="28"/>
      <point x="432" y="25"/>
      <point x="441" y="25" type="curve" smooth="yes"/>
      <point x="450" y="25"/>
      <point x="458" y="28"/>
      <point x="463" y="36" type="curve" smooth="yes"/>
      <point x="475" y="59"/>
      <point x="483" y="85"/>
      <point x="492" y="109" type="curve" smooth="yes"/>
      <point x="515" y="163"/>
      <point x="537" y="218"/>
      <point x="559" y="273" type="curve" smooth="yes"/>
      <point x="614" y="408"/>
      <point x="669" y="543"/>
      <point x="720" y="680" type="curve"/>
      <point x="726" y="680" type="line"/>
      <point x="726" y="67" type="line" smooth="yes"/>
      <point x="726" y="63"/>
      <point x="727" y="59"/>
      <point x="726" y="55" type="curve" smooth="yes"/>
      <point x="723" y="30"/>
      <point x="694" y="30"/>
      <point x="675" y="30" type="curve" smooth="yes"/>
      <point x="665" y="30"/>
      <point x="655" y="31"/>
      <point x="646" y="31" type="curve" smooth="yes"/>
      <point x="643" y="31"/>
      <point x="640" y="31"/>
      <point x="637" y="30" type="curve"/>
      <point x="630" y="30"/>
      <point x="628" y="22"/>
      <point x="628" y="17" type="curve" smooth="yes"/>
      <point x="628" y="8"/>
      <point x="630" y="-1"/>
    </contour>
  </outline>
</glyph>
<glyph name="N" format="2">
  <advance height="1000" width="780"/>
  <unicode hex="004E"/>
  <note>
cid00047
</note>
  <outline>
    <contour>
      <point x="29" y="-1" type="curve" smooth="yes"/>
      <point x="66" y="-1"/>
      <point x="101" y="4"/>
      <point x="138" y="4" type="curve" smooth="yes"/>
      <point x="158" y="4"/>
      <point x="180" y="5"/>
      <point x="200" y="3" type="curve" smooth="yes"/>
      <point x="212" y="2"/>
      <point x="225" y="-1"/>
      <point x="237" y="-1" type="curve" smooth="yes"/>
      <point x="252" y="-1"/>
      <point x="251" y="8"/>
      <point x="251" y="19" type="curve" smooth="yes"/>
      <point x="251" y="26"/>
      <point x="250" y="30"/>
      <point x="242" y="30" type="curve" smooth="yes"/>
      <point x="231" y="30"/>
      <point x="221" y="29"/>
      <point x="211" y="29" type="curve" smooth="yes"/>
      <point x="191" y="29"/>
      <point x="153" y="26"/>
      <point x="153" y="55" type="curve" smooth="yes"/>
      <point x="153" y="652" type="line"/>
      <point x="293" y="461"/>
      <point x="438" y="275"/>
      <point x="582" y="86" type="curve" smooth="yes"/>
      <point x="600" y="62"/>
      <point x="615" y="31"/>
      <point x="621" y="2" type="curve"/>
      <point x="666" y="3" type="line" smooth="yes"/>
      <point x="671" y="3"/>
      <point x="673" y="8"/>
      <point x="673" y="12" type="curve" smooth="yes"/>
      <point x="673" y="643" type="line" smooth="yes"/>
      <point x="673" y="688"/>
      <point x="669" y="703"/>
      <point x="724" y="703" type="curve" smooth="yes"/>
      <point x="734" y="703"/>
      <point x="745" y="702"/>
      <point x="756" y="702" type="curve" smooth="yes"/>
      <point x="762" y="702"/>
      <point x="765" y="712"/>
      <point x="765" y="716" type="curve" smooth="yes"/>
      <point x="765" y="725"/>
      <point x="765" y="729"/>
      <point x="757" y="734" type="curve"/>
      <point x="708" y="730"/>
      <point x="658" y="729"/>
      <point x="608" y="729" type="curve" smooth="yes"/>
      <point x="589" y="729"/>
      <point x="569" y="732"/>
      <point x="550" y="732" type="curve" smooth="yes"/>
      <point x="543" y="732"/>
      <point x="539" y="730"/>
      <point x="539" y="723" type="curve"/>
      <point x="538" y="720"/>
      <point x="538" y="715"/>
      <point x="538" y="711" type="curve" smooth="yes"/>
      <point x="538" y="706"/>
      <point x="539" y="701"/>
      <point x="545" y="701" type="curve" smooth="yes"/>
      <point x="562" y="701"/>
      <point x="578" y="703"/>
      <point x="595" y="703" type="curve" smooth="yes"/>
      <point x="610" y="703"/>
      <point x="636" y="696"/>
      <point x="636" y="677" type="curve" smooth="yes"/>
      <point x="636" y="205" type="line"/>
      <point x="545" y="315"/>
      <point x="454" y="425"/>
      <point x="364" y="536" type="curve" smooth="yes"/>
      <point x="312" y="600"/>
      <point x="259" y="663"/>
      <point x="210" y="730" type="curve"/>
      <point x="186" y="730"/>
      <point x="161" y="729"/>
      <point x="137" y="729" type="curve" smooth="yes"/>
      <point x="102" y="729"/>
      <point x="67" y="732"/>
      <point x="33" y="732" type="curve" smooth="yes"/>
      <point x="21" y="732"/>
      <point x="21" y="723"/>
      <point x="21" y="714" type="curve" smooth="yes"/>
      <point x="21" y="707"/>
      <point x="27" y="704"/>
      <point x="34" y="704" type="curve" smooth="yes"/>
      <point x="41" y="704"/>
      <point x="49" y="705"/>
      <point x="56" y="705" type="curve" smooth="yes"/>
      <point x="83" y="705"/>
      <point x="117" y="706"/>
      <point x="117" y="670" type="curve" smooth="yes"/>
      <point x="117" y="529"/>
      <point x="114" y="389"/>
      <point x="114" y="249" type="curve" smooth="yes"/>
      <point x="114" y="185"/>
      <point x="117" y="119"/>
      <point x="114" y="55" type="curve" smooth="yes"/>
      <point x="113" y="29"/>
      <point x="93" y="28"/>
      <point x="72" y="28" type="curve" smooth="yes"/>
      <point x="62" y="28"/>
      <point x="52" y="29"/>
      <point x="42" y="29" type="curve" smooth="yes"/>
      <point x="23" y="29"/>
      <point x="22" y="28"/>
      <point x="22" y="8" type="curve" smooth="yes"/>
      <point x="22" y="3"/>
      <point x="24" y="-1"/>
    </contour>
  </outline>
</glyph>
<glyph name="O" format="2">
  <advance height="1000" width="820"/>
  <unicode hex="004F"/>
  <note>
cid00048
</note>
  <outline>
    <contour>
      <point x="411" y="-3" type="curve" smooth="yes"/>
      <point x="640" y="-3"/>
      <point x="764" y="149"/>
      <point x="764" y="371" type="curve" smooth="yes"/>
      <point x="764" y="590"/>
      <point x="634" y="739"/>
      <point x="411" y="739" type="curve" smooth="yes"/>
      <point x="197" y="739"/>
      <point x="56" y="569"/>
      <point x="56" y="363" type="curve" smooth="yes"/>
      <point x="56" y="143"/>
      <point x="187" y="-3"/>
    </contour>
    <contour>
      <point x="411" y="26" type="curve" smooth="yes"/>
      <point x="222" y="26"/>
      <point x="165" y="205"/>
      <point x="165" y="363" type="curve" smooth="yes"/>
      <point x="165" y="512"/>
      <point x="231" y="711"/>
      <point x="411" y="711" type="curve" smooth="yes"/>
      <point x="596" y="711"/>
      <point x="655" y="522"/>
      <point x="655" y="368" type="curve" smooth="yes"/>
      <point x="655" y="211"/>
      <point x="599" y="26"/>
    </contour>
  </outline>
</glyph>
<glyph name="P" format="2">
  <advance height="1000" width="624"/>
  <unicode hex="0050"/>
  <note>
cid00049
</note>
  <outline>
    <contour>
      <point x="35" y="1" type="curve" smooth="yes"/>
      <point x="80" y="1"/>
      <point x="126" y="6"/>
      <point x="172" y="6" type="curve" smooth="yes"/>
      <point x="216" y="6"/>
      <point x="260" y="2"/>
      <point x="305" y="2" type="curve" smooth="yes"/>
      <point x="323" y="2"/>
      <point x="323" y="6"/>
      <point x="323" y="24" type="curve" smooth="yes"/>
      <point x="323" y="30"/>
      <point x="320" y="32"/>
      <point x="314" y="32" type="curve" smooth="yes"/>
      <point x="306" y="32"/>
      <point x="297" y="31"/>
      <point x="289" y="31" type="curve" smooth="yes"/>
      <point x="269" y="31"/>
      <point x="221" y="25"/>
      <point x="221" y="56" type="curve" smooth="yes"/>
      <point x="221" y="355" type="line"/>
      <point x="256" y="350"/>
      <point x="292" y="345"/>
      <point x="328" y="345" type="curve" smooth="yes"/>
      <point x="472" y="345"/>
      <point x="616" y="382"/>
      <point x="616" y="555" type="curve" smooth="yes"/>
      <point x="616" y="688"/>
      <point x="487" y="733"/>
      <point x="375" y="733" type="curve" smooth="yes"/>
      <point x="305" y="733"/>
      <point x="236" y="729"/>
      <point x="167" y="729" type="curve" smooth="yes"/>
      <point x="122" y="729"/>
      <point x="78" y="733"/>
      <point x="34" y="733" type="curve" smooth="yes"/>
      <point x="28" y="733"/>
      <point x="26" y="727"/>
      <point x="26" y="722" type="curve" smooth="yes"/>
      <point x="26" y="716"/>
      <point x="25" y="705"/>
      <point x="34" y="705" type="curve" smooth="yes"/>
      <point x="45" y="705"/>
      <point x="57" y="706"/>
      <point x="69" y="706" type="curve" smooth="yes"/>
      <point x="86" y="706"/>
      <point x="117" y="705"/>
      <point x="117" y="681" type="curve" smooth="yes"/>
      <point x="117" y="603"/>
      <point x="118" y="525"/>
      <point x="118" y="447" type="curve" smooth="yes"/>
      <point x="118" y="272" type="line"/>
      <point x="118" y="127" type="line" smooth="yes"/>
      <point x="118" y="103"/>
      <point x="119" y="78"/>
      <point x="117" y="54" type="curve" smooth="yes"/>
      <point x="116" y="37"/>
      <point x="101" y="29"/>
      <point x="85" y="29" type="curve" smooth="yes"/>
      <point x="69" y="29"/>
      <point x="53" y="30"/>
      <point x="37" y="30" type="curve" smooth="yes"/>
      <point x="26" y="30"/>
      <point x="25" y="22"/>
      <point x="25" y="14" type="curve" smooth="yes"/>
      <point x="25" y="7"/>
      <point x="27" y="1"/>
    </contour>
    <contour>
      <point x="331" y="375" type="curve" smooth="yes"/>
      <point x="297" y="375"/>
      <point x="249" y="376"/>
      <point x="220" y="397" type="curve"/>
      <point x="220" y="681" type="line" smooth="yes"/>
      <point x="220" y="696"/>
      <point x="237" y="704"/>
      <point x="250" y="704" type="curve" smooth="yes"/>
      <point x="278" y="704"/>
      <point x="306" y="705"/>
      <point x="333" y="705" type="curve" smooth="yes"/>
      <point x="432" y="705"/>
      <point x="506" y="659"/>
      <point x="506" y="552" type="curve" smooth="yes"/>
      <point x="506" y="439"/>
      <point x="446" y="375"/>
    </contour>
  </outline>
</glyph>
<glyph name="Q" format="2">
  <advance height="1000" width="820"/>
  <unicode hex="0051"/>
  <note>
cid00050
</note>
  <outline>
    <contour>
      <point x="674" y="-125" type="curve" smooth="yes"/>
      <point x="721" y="-125"/>
      <point x="763" y="-102"/>
      <point x="792" y="-66" type="curve" smooth="yes"/>
      <point x="795" y="-63"/>
      <point x="803" y="-53"/>
      <point x="803" y="-49" type="curve" smooth="yes"/>
      <point x="803" y="-45"/>
      <point x="798" y="-41"/>
      <point x="794" y="-41" type="curve" smooth="yes"/>
      <point x="792" y="-41"/>
      <point x="789" y="-45"/>
      <point x="787" y="-47" type="curve" smooth="yes"/>
      <point x="782" y="-52" type="line"/>
      <point x="776" y="-63"/>
      <point x="729" y="-74"/>
      <point x="717" y="-74" type="curve" smooth="yes"/>
      <point x="639" y="-74"/>
      <point x="594" y="-31"/>
      <point x="548" y="26" type="curve"/>
      <point x="678" y="82"/>
      <point x="761" y="221"/>
      <point x="761" y="361" type="curve" smooth="yes"/>
      <point x="761" y="579"/>
      <point x="638" y="742"/>
      <point x="409" y="742" type="curve" smooth="yes"/>
      <point x="193" y="742"/>
      <point x="53" y="573"/>
      <point x="53" y="364" type="curve" smooth="yes"/>
      <point x="53" y="161"/>
      <point x="201" y="0"/>
      <point x="407" y="0" type="curve" smooth="yes"/>
      <point x="427" y="0"/>
      <point x="446" y="3"/>
      <point x="466" y="4" type="curve"/>
      <point x="523" y="-75"/>
      <point x="571" y="-125"/>
    </contour>
    <contour>
      <point x="415" y="27" type="curve" smooth="yes"/>
      <point x="361" y="27"/>
      <point x="260" y="70"/>
      <point x="231" y="117" type="curve"/>
      <point x="237" y="150"/>
      <point x="275" y="195"/>
      <point x="310" y="195" type="curve" smooth="yes"/>
      <point x="327" y="195"/>
      <point x="338" y="193"/>
      <point x="353" y="183" type="curve" smooth="yes"/>
      <point x="376" y="166"/>
      <point x="435" y="59"/>
      <point x="451" y="28" type="curve"/>
      <point x="439" y="28"/>
      <point x="427" y="27"/>
    </contour>
    <contour>
      <point x="524" y="56" type="curve"/>
      <point x="499" y="97"/>
      <point x="474" y="138"/>
      <point x="444" y="176" type="curve" smooth="yes"/>
      <point x="414" y="214"/>
      <point x="383" y="238"/>
      <point x="333" y="238" type="curve" smooth="yes"/>
      <point x="278" y="238"/>
      <point x="235" y="194"/>
      <point x="208" y="150" type="curve"/>
      <point x="170" y="213"/>
      <point x="161" y="289"/>
      <point x="161" y="361" type="curve" smooth="yes"/>
      <point x="161" y="504"/>
      <point x="225" y="712"/>
      <point x="400" y="712" type="curve" smooth="yes"/>
      <point x="583" y="712"/>
      <point x="648" y="513"/>
      <point x="648" y="361" type="curve" smooth="yes"/>
      <point x="648" y="270"/>
      <point x="636" y="171"/>
      <point x="574" y="100" type="curve" smooth="yes"/>
      <point x="559" y="83"/>
      <point x="541" y="70"/>
    </contour>
  </outline>
</glyph>
<glyph name="R" format="2">
  <advance height="1000" width="707"/>
  <unicode hex="0052"/>
  <note>
cid00051
</note>
  <outline>
    <contour>
      <point x="605" y="-2" type="curve" smooth="yes"/>
      <point x="620" y="-2"/>
      <point x="710" y="-4"/>
      <point x="710" y="16" type="curve" smooth="yes"/>
      <point x="710" y="27"/>
      <point x="683" y="23"/>
      <point x="675" y="25" type="curve" smooth="yes"/>
      <point x="642" y="32"/>
      <point x="622" y="48"/>
      <point x="602" y="76" type="curve" smooth="yes"/>
      <point x="532" y="175"/>
      <point x="464" y="276"/>
      <point x="403" y="380" type="curve"/>
      <point x="430" y="385"/>
      <point x="457" y="390"/>
      <point x="482" y="402" type="curve" smooth="yes"/>
      <point x="553" y="434"/>
      <point x="602" y="493"/>
      <point x="602" y="573" type="curve" smooth="yes"/>
      <point x="602" y="700"/>
      <point x="460" y="736"/>
      <point x="358" y="736" type="curve" smooth="yes"/>
      <point x="296" y="736"/>
      <point x="235" y="728"/>
      <point x="173" y="728" type="curve" smooth="yes"/>
      <point x="128" y="728"/>
      <point x="83" y="732"/>
      <point x="38" y="732" type="curve" smooth="yes"/>
      <point x="31" y="732"/>
      <point x="28" y="729"/>
      <point x="28" y="721" type="curve" smooth="yes"/>
      <point x="28" y="711"/>
      <point x="32" y="704"/>
      <point x="43" y="704" type="curve" smooth="yes"/>
      <point x="51" y="704"/>
      <point x="59" y="705"/>
      <point x="67" y="705" type="curve" smooth="yes"/>
      <point x="87" y="705"/>
      <point x="118" y="706"/>
      <point x="121" y="680" type="curve" smooth="yes"/>
      <point x="124" y="648"/>
      <point x="123" y="613"/>
      <point x="123" y="580" type="curve" smooth="yes"/>
      <point x="123" y="488"/>
      <point x="122" y="396"/>
      <point x="122" y="304" type="curve" smooth="yes"/>
      <point x="122" y="171" type="line" smooth="yes"/>
      <point x="122" y="137"/>
      <point x="124" y="87"/>
      <point x="121" y="54" type="curve" smooth="yes"/>
      <point x="118" y="29"/>
      <point x="89" y="28"/>
      <point x="69" y="28" type="curve" smooth="yes"/>
      <point x="58" y="28"/>
      <point x="47" y="29"/>
      <point x="35" y="29" type="curve" smooth="yes"/>
      <point x="28" y="29"/>
      <point x="24" y="23"/>
      <point x="24" y="16" type="curve" smooth="yes"/>
      <point x="24" y="10"/>
      <point x="25" y="1"/>
      <point x="33" y="1" type="curve" smooth="yes"/>
      <point x="65" y="1"/>
      <point x="96" y="4"/>
      <point x="128" y="4" type="curve" smooth="yes"/>
      <point x="187" y="4"/>
      <point x="247" y="1"/>
      <point x="306" y="1" type="curve" smooth="yes"/>
      <point x="315" y="1"/>
      <point x="322" y="3"/>
      <point x="322" y="14" type="curve" smooth="yes"/>
      <point x="322" y="20"/>
      <point x="321" y="31"/>
      <point x="312" y="31" type="curve" smooth="yes"/>
      <point x="295" y="31"/>
      <point x="277" y="29"/>
      <point x="259" y="29" type="curve" smooth="yes"/>
      <point x="243" y="29"/>
      <point x="223" y="34"/>
      <point x="223" y="54" type="curve" smooth="yes"/>
      <point x="223" y="371" type="line"/>
      <point x="309" y="374" type="line"/>
      <point x="369" y="265"/>
      <point x="428" y="156"/>
      <point x="494" y="51" type="curve" smooth="yes"/>
      <point x="524" y="3"/>
      <point x="551" y="-2"/>
    </contour>
    <contour>
      <point x="274" y="396" type="curve" smooth="yes"/>
      <point x="258" y="396"/>
      <point x="238" y="397"/>
      <point x="223" y="402" type="curve"/>
      <point x="223" y="680" type="line" smooth="yes"/>
      <point x="223" y="707"/>
      <point x="265" y="708"/>
      <point x="285" y="708" type="curve" smooth="yes"/>
      <point x="318" y="708" type="line" smooth="yes"/>
      <point x="427" y="708"/>
      <point x="491" y="672"/>
      <point x="491" y="555" type="curve" smooth="yes"/>
      <point x="491" y="425"/>
      <point x="381" y="396"/>
    </contour>
  </outline>
</glyph>
<glyph name="T" format="2">
  <advance height="1000" width="690"/>
  <unicode hex="0054"/>
  <note>
cid00053
</note>
  <outline>
    <contour>
      <point x="203" y="-3" type="curve" smooth="yes"/>
      <point x="218" y="-3"/>
      <point x="234" y="-1"/>
      <point x="249" y="-1" type="curve" smooth="yes"/>
      <point x="282" y="1"/>
      <point x="314" y="2"/>
      <point x="347" y="2" type="curve" smooth="yes"/>
      <point x="395" y="2"/>
      <point x="442" y="-1"/>
      <point x="490" y="-1" type="curve" smooth="yes"/>
      <point x="499" y="-1"/>
      <point x="497" y="12"/>
      <point x="497" y="18" type="curve" smooth="yes"/>
      <point x="497" y="25"/>
      <point x="495" y="27"/>
      <point x="487" y="27" type="curve" smooth="yes"/>
      <point x="478" y="27"/>
      <point x="469" y="26"/>
      <point x="459" y="26" type="curve" smooth="yes"/>
      <point x="440" y="26"/>
      <point x="400" y="30"/>
      <point x="400" y="56" type="curve" smooth="yes"/>
      <point x="400" y="258"/>
      <point x="397" y="460"/>
      <point x="397" y="662" type="curve" smooth="yes"/>
      <point x="397" y="709"/>
      <point x="457" y="702"/>
      <point x="488" y="702" type="curve" smooth="yes"/>
      <point x="516" y="702"/>
      <point x="589" y="705"/>
      <point x="610" y="682" type="curve" smooth="yes"/>
      <point x="637" y="651"/>
      <point x="647" y="596"/>
      <point x="654" y="556" type="curve"/>
      <point x="654" y="552"/>
      <point x="656" y="538"/>
      <point x="658" y="536" type="curve"/>
      <point x="661" y="531"/>
      <point x="665" y="531"/>
      <point x="670" y="531" type="curve" smooth="yes"/>
      <point x="680" y="531"/>
      <point x="682" y="537"/>
      <point x="682" y="545" type="curve" smooth="yes"/>
      <point x="682" y="559"/>
      <point x="680" y="572"/>
      <point x="679" y="586" type="curve" smooth="yes"/>
      <point x="678" y="607"/>
      <point x="676" y="713"/>
      <point x="673" y="722" type="curve" smooth="yes"/>
      <point x="671" y="730"/>
      <point x="665" y="732"/>
      <point x="658" y="732" type="curve" smooth="yes"/>
      <point x="633" y="732"/>
      <point x="606" y="731"/>
      <point x="582" y="730" type="curve" smooth="yes"/>
      <point x="526" y="728"/>
      <point x="471" y="728"/>
      <point x="416" y="728" type="curve" smooth="yes"/>
      <point x="331" y="728" type="line" smooth="yes"/>
      <point x="234" y="728"/>
      <point x="133" y="725"/>
      <point x="36" y="734" type="curve" smooth="yes"/>
      <point x="26" y="735"/>
      <point x="19" y="733"/>
      <point x="19" y="722" type="curve" smooth="yes"/>
      <point x="18" y="711"/>
      <point x="18" y="697"/>
      <point x="17" y="684" type="curve" smooth="yes"/>
      <point x="15" y="646"/>
      <point x="13" y="599"/>
      <point x="11" y="568" type="curve" smooth="yes"/>
      <point x="10" y="556"/>
      <point x="9" y="547"/>
      <point x="9" y="542" type="curve" smooth="yes"/>
      <point x="9" y="533"/>
      <point x="11" y="531"/>
      <point x="20" y="531" type="curve" smooth="yes"/>
      <point x="25" y="531"/>
      <point x="29" y="532"/>
      <point x="32" y="536" type="curve" smooth="yes"/>
      <point x="34" y="538"/>
      <point x="42" y="578"/>
      <point x="43" y="583" type="curve" smooth="yes"/>
      <point x="55" y="641"/>
      <point x="61" y="702"/>
      <point x="134" y="702" type="curve" smooth="yes"/>
      <point x="223" y="702" type="line" smooth="yes"/>
      <point x="236" y="702"/>
      <point x="249" y="702"/>
      <point x="261" y="700" type="curve" smooth="yes"/>
      <point x="276" y="698"/>
      <point x="291" y="683"/>
      <point x="291" y="667" type="curve" smooth="yes"/>
      <point x="291" y="566"/>
      <point x="293" y="465"/>
      <point x="293" y="364" type="curve" smooth="yes"/>
      <point x="293" y="261"/>
      <point x="292" y="159"/>
      <point x="291" y="56" type="curve" smooth="yes"/>
      <point x="291" y="28"/>
      <point x="240" y="25"/>
      <point x="219" y="25" type="curve" smooth="yes"/>
      <point x="217" y="25"/>
      <point x="214" y="26"/>
      <point x="211" y="26" type="curve" smooth="yes"/>
      <point x="196" y="26"/>
      <point x="194" y="24"/>
      <point x="194" y="8" type="curve" smooth="yes"/>
      <point x="194" y="2"/>
      <point x="197" y="-3"/>
    </contour>
  </outline>
</glyph>
<glyph name="U" format="2">
  <advance height="1000" width="756"/>
  <unicode hex="0055"/>
  <note>
cid00054
</note>
  <outline>
    <contour>
      <point x="403" y="-5" type="curve" smooth="yes"/>
      <point x="587" y="-5"/>
      <point x="656" y="106"/>
      <point x="656" y="277" type="curve" smooth="yes"/>
      <point x="656" y="387"/>
      <point x="653" y="497"/>
      <point x="653" y="607" type="curve" smooth="yes"/>
      <point x="653" y="631"/>
      <point x="652" y="655"/>
      <point x="654" y="678" type="curve" smooth="yes"/>
      <point x="656" y="701"/>
      <point x="678" y="704"/>
      <point x="697" y="704" type="curve" smooth="yes"/>
      <point x="706" y="704"/>
      <point x="716" y="703"/>
      <point x="725" y="703" type="curve" smooth="yes"/>
      <point x="735" y="703"/>
      <point x="743" y="703"/>
      <point x="743" y="717" type="curve" smooth="yes"/>
      <point x="743" y="722"/>
      <point x="744" y="733"/>
      <point x="736" y="733" type="curve" smooth="yes"/>
      <point x="720" y="733"/>
      <point x="703" y="731"/>
      <point x="686" y="731" type="curve" smooth="yes"/>
      <point x="653" y="729"/>
      <point x="620" y="728"/>
      <point x="587" y="728" type="curve" smooth="yes"/>
      <point x="568" y="728"/>
      <point x="548" y="731"/>
      <point x="529" y="731" type="curve" smooth="yes"/>
      <point x="515" y="731"/>
      <point x="518" y="721"/>
      <point x="518" y="711" type="curve" smooth="yes"/>
      <point x="518" y="707"/>
      <point x="519" y="702"/>
      <point x="524" y="702" type="curve" smooth="yes"/>
      <point x="541" y="702"/>
      <point x="557" y="704"/>
      <point x="573" y="704" type="curve" smooth="yes"/>
      <point x="589" y="704"/>
      <point x="615" y="697"/>
      <point x="615" y="678" type="curve" smooth="yes"/>
      <point x="615" y="543"/>
      <point x="616" y="409"/>
      <point x="616" y="274" type="curve" smooth="yes"/>
      <point x="616" y="134"/>
      <point x="561" y="30"/>
      <point x="408" y="30" type="curve" smooth="yes"/>
      <point x="250" y="30"/>
      <point x="217" y="103"/>
      <point x="217" y="247" type="curve" smooth="yes"/>
      <point x="217" y="368"/>
      <point x="219" y="489"/>
      <point x="219" y="611" type="curve" smooth="yes"/>
      <point x="219" y="633"/>
      <point x="216" y="659"/>
      <point x="220" y="681" type="curve" smooth="yes"/>
      <point x="223" y="698"/>
      <point x="246" y="706"/>
      <point x="261" y="706" type="curve" smooth="yes"/>
      <point x="278" y="706"/>
      <point x="294" y="705"/>
      <point x="311" y="705" type="curve" smooth="yes"/>
      <point x="319" y="705"/>
      <point x="321" y="714"/>
      <point x="321" y="720" type="curve" smooth="yes"/>
      <point x="321" y="730"/>
      <point x="316" y="732"/>
      <point x="308" y="732" type="curve" smooth="yes"/>
      <point x="261" y="732"/>
      <point x="215" y="728"/>
      <point x="169" y="728" type="curve" smooth="yes"/>
      <point x="139" y="728"/>
      <point x="110" y="729"/>
      <point x="80" y="730" type="curve" smooth="yes"/>
      <point x="67" y="731"/>
      <point x="53" y="732"/>
      <point x="39" y="732" type="curve" smooth="yes"/>
      <point x="32" y="732"/>
      <point x="26" y="730"/>
      <point x="26" y="721" type="curve" smooth="yes"/>
      <point x="26" y="717"/>
      <point x="26" y="714"/>
      <point x="27" y="710" type="curve"/>
      <point x="29" y="708"/>
      <point x="31" y="706"/>
      <point x="34" y="706" type="curve" smooth="yes"/>
      <point x="44" y="706"/>
      <point x="54" y="707"/>
      <point x="64" y="707" type="curve" smooth="yes"/>
      <point x="84" y="707"/>
      <point x="115" y="705"/>
      <point x="117" y="680" type="curve" smooth="yes"/>
      <point x="118" y="674"/>
      <point x="117" y="667"/>
      <point x="117" y="660" type="curve" smooth="yes"/>
      <point x="117" y="262" type="line" smooth="yes"/>
      <point x="117" y="78"/>
      <point x="226" y="-5"/>
    </contour>
  </outline>
</glyph>
<glyph name="V" format="2">
  <advance height="1000" width="754"/>
  <unicode hex="0056"/>
  <note>
cid00055
</note>
  <outline>
    <contour>
      <point x="379" y="-4" type="curve" smooth="yes"/>
      <point x="419" y="-4" type="line"/>
      <point x="473" y="149"/>
      <point x="531" y="301"/>
      <point x="585" y="455" type="curve" smooth="yes"/>
      <point x="639" y="609" type="line" smooth="yes"/>
      <point x="647" y="634"/>
      <point x="655" y="659"/>
      <point x="664" y="683" type="curve" smooth="yes"/>
      <point x="672" y="703"/>
      <point x="691" y="710"/>
      <point x="712" y="710" type="curve" smooth="yes"/>
      <point x="717" y="710"/>
      <point x="722" y="709"/>
      <point x="727" y="709" type="curve" smooth="yes"/>
      <point x="744" y="709"/>
      <point x="749" y="706"/>
      <point x="749" y="726" type="curve" smooth="yes"/>
      <point x="749" y="732"/>
      <point x="746" y="734"/>
      <point x="740" y="734" type="curve" smooth="yes"/>
      <point x="706" y="734"/>
      <point x="672" y="730"/>
      <point x="638" y="730" type="curve" smooth="yes"/>
      <point x="607" y="730"/>
      <point x="575" y="730"/>
      <point x="544" y="731" type="curve" smooth="yes"/>
      <point x="541" y="731"/>
      <point x="539" y="732"/>
      <point x="536" y="732" type="curve" smooth="yes"/>
      <point x="535" y="732"/>
      <point x="533" y="731"/>
      <point x="531" y="731" type="curve"/>
      <point x="527" y="729"/>
      <point x="526" y="724"/>
      <point x="526" y="720" type="curve" smooth="yes"/>
      <point x="526" y="715"/>
      <point x="529" y="709"/>
      <point x="534" y="709" type="curve" smooth="yes"/>
      <point x="546" y="709"/>
      <point x="557" y="712"/>
      <point x="568" y="712" type="curve" smooth="yes"/>
      <point x="591" y="712"/>
      <point x="620" y="715"/>
      <point x="620" y="683" type="curve"/>
      <point x="608" y="646" type="line" smooth="yes"/>
      <point x="548" y="460"/>
      <point x="481" y="276"/>
      <point x="418" y="91" type="curve"/>
      <point x="350" y="278"/>
      <point x="280" y="464"/>
      <point x="217" y="652" type="curve" smooth="yes"/>
      <point x="205" y="689" type="line"/>
      <point x="205" y="709"/>
      <point x="228" y="710"/>
      <point x="243" y="710" type="curve" smooth="yes"/>
      <point x="260" y="710"/>
      <point x="275" y="707"/>
      <point x="291" y="707" type="curve" smooth="yes"/>
      <point x="301" y="707"/>
      <point x="303" y="713"/>
      <point x="303" y="721" type="curve" smooth="yes"/>
      <point x="303" y="730"/>
      <point x="300" y="733"/>
      <point x="291" y="733" type="curve" smooth="yes"/>
      <point x="231" y="733"/>
      <point x="170" y="730"/>
      <point x="109" y="730" type="curve" smooth="yes"/>
      <point x="80" y="730"/>
      <point x="51" y="732"/>
      <point x="23" y="732" type="curve" smooth="yes"/>
      <point x="13" y="732"/>
      <point x="12" y="727"/>
      <point x="12" y="718" type="curve" smooth="yes"/>
      <point x="12" y="690"/>
      <point x="61" y="725"/>
      <point x="94" y="681" type="curve" smooth="yes"/>
      <point x="107" y="663"/>
      <point x="116" y="640"/>
      <point x="124" y="619" type="curve" smooth="yes"/>
      <point x="175" y="478"/>
      <point x="229" y="338"/>
      <point x="282" y="197" type="curve" smooth="yes"/>
      <point x="298" y="156"/>
      <point x="313" y="115"/>
      <point x="328" y="74" type="curve" smooth="yes"/>
      <point x="335" y="54"/>
      <point x="342" y="34"/>
      <point x="350" y="15" type="curve" smooth="yes"/>
      <point x="356" y="1"/>
      <point x="364" y="-4"/>
    </contour>
  </outline>
</glyph>
<glyph name="W" format="2">
  <advance height="1000" width="1000"/>
  <unicode hex="0057"/>
  <note>
cid00056
</note>
  <outline>
    <contour>
      <point x="237" y="-2" type="curve"/>
      <point x="315" y="-2" type="line"/>
      <point x="379" y="177"/>
      <point x="439" y="358"/>
      <point x="499" y="539" type="curve"/>
      <point x="554" y="358"/>
      <point x="615" y="180"/>
      <point x="666" y="-2" type="curve"/>
      <point x="753" y="-2" type="line"/>
      <point x="802" y="209"/>
      <point x="842" y="423"/>
      <point x="890" y="634" type="curve" smooth="yes"/>
      <point x="896" y="658"/>
      <point x="904" y="703"/>
      <point x="935" y="703" type="curve" smooth="yes"/>
      <point x="947" y="703"/>
      <point x="958" y="701"/>
      <point x="970" y="701" type="curve" smooth="yes"/>
      <point x="977" y="701"/>
      <point x="980" y="712"/>
      <point x="980" y="717" type="curve" smooth="yes"/>
      <point x="980" y="722"/>
      <point x="979" y="731"/>
      <point x="972" y="731" type="curve" smooth="yes"/>
      <point x="943" y="731"/>
      <point x="915" y="728"/>
      <point x="886" y="728" type="curve" smooth="yes"/>
      <point x="843" y="728"/>
      <point x="800" y="731"/>
      <point x="758" y="731" type="curve" smooth="yes"/>
      <point x="749" y="731"/>
      <point x="747" y="725"/>
      <point x="747" y="717" type="curve" smooth="yes"/>
      <point x="747" y="711"/>
      <point x="748" y="706"/>
      <point x="757" y="706" type="curve" smooth="yes"/>
      <point x="774" y="706"/>
      <point x="792" y="708"/>
      <point x="809" y="708" type="curve" smooth="yes"/>
      <point x="823" y="708"/>
      <point x="845" y="706"/>
      <point x="845" y="687" type="curve" smooth="yes"/>
      <point x="845" y="668"/>
      <point x="843" y="650"/>
      <point x="840" y="631" type="curve" smooth="yes"/>
      <point x="829" y="561"/>
      <point x="818" y="491"/>
      <point x="804" y="422" type="curve" smooth="yes"/>
      <point x="782" y="313"/>
      <point x="761" y="204"/>
      <point x="736" y="96" type="curve"/>
      <point x="697" y="234"/>
      <point x="651" y="370"/>
      <point x="611" y="508" type="curve" smooth="yes"/>
      <point x="573" y="642" type="line" smooth="yes"/>
      <point x="567" y="663"/>
      <point x="563" y="689"/>
      <point x="554" y="709" type="curve" smooth="yes"/>
      <point x="548" y="721"/>
      <point x="541" y="724"/>
      <point x="529" y="724" type="curve" smooth="yes"/>
      <point x="514" y="724"/>
      <point x="511" y="718"/>
      <point x="506" y="705" type="curve" smooth="yes"/>
      <point x="486" y="649"/>
      <point x="471" y="590"/>
      <point x="453" y="533" type="curve" smooth="yes"/>
      <point x="406" y="390"/>
      <point x="359" y="247"/>
      <point x="310" y="105" type="curve"/>
      <point x="287" y="226"/>
      <point x="263" y="347"/>
      <point x="241" y="469" type="curve" smooth="yes"/>
      <point x="229" y="532"/>
      <point x="219" y="597"/>
      <point x="207" y="660" type="curve" smooth="yes"/>
      <point x="205" y="667"/>
      <point x="205" y="673"/>
      <point x="205" y="680" type="curve" smooth="yes"/>
      <point x="205" y="700"/>
      <point x="220" y="706"/>
      <point x="237" y="706" type="curve" smooth="yes"/>
      <point x="253" y="706"/>
      <point x="270" y="704"/>
      <point x="286" y="704" type="curve" smooth="yes"/>
      <point x="293" y="704"/>
      <point x="298" y="710"/>
      <point x="298" y="717" type="curve" smooth="yes"/>
      <point x="298" y="724"/>
      <point x="294" y="732"/>
      <point x="286" y="732" type="curve" smooth="yes"/>
      <point x="264" y="732"/>
      <point x="241" y="729"/>
      <point x="219" y="729" type="curve" smooth="yes"/>
      <point x="168" y="729"/>
      <point x="117" y="729"/>
      <point x="67" y="730" type="curve" smooth="yes"/>
      <point x="52" y="731"/>
      <point x="37" y="733"/>
      <point x="22" y="733" type="curve" smooth="yes"/>
      <point x="14" y="733"/>
      <point x="12" y="729"/>
      <point x="12" y="721" type="curve" smooth="yes"/>
      <point x="12" y="712"/>
      <point x="12" y="702"/>
      <point x="24" y="702" type="curve" smooth="yes"/>
      <point x="59" y="702"/>
      <point x="84" y="704"/>
      <point x="95" y="664" type="curve" smooth="yes"/>
      <point x="110" y="613"/>
      <point x="118" y="558"/>
      <point x="129" y="506" type="curve" smooth="yes"/>
      <point x="199" y="173" type="line" smooth="yes"/>
      <point x="212" y="115"/>
      <point x="222" y="56"/>
    </contour>
  </outline>
</glyph>
<glyph name="X" format="2">
  <advance height="1000" width="765"/>
  <unicode hex="0058"/>
  <note>
cid00057
</note>
  <outline>
    <contour>
      <point x="749" y="-2" type="curve" smooth="yes"/>
      <point x="759" y="-2"/>
      <point x="768" y="3"/>
      <point x="768" y="14" type="curve" smooth="yes"/>
      <point x="768" y="22"/>
      <point x="765" y="31"/>
      <point x="755" y="31" type="curve" smooth="yes"/>
      <point x="746" y="31"/>
      <point x="737" y="29"/>
      <point x="728" y="29" type="curve" smooth="yes"/>
      <point x="706" y="29"/>
      <point x="683" y="31"/>
      <point x="668" y="49" type="curve" smooth="yes"/>
      <point x="632" y="93"/>
      <point x="599" y="140"/>
      <point x="567" y="187" type="curve" smooth="yes"/>
      <point x="520" y="255"/>
      <point x="473" y="324"/>
      <point x="426" y="393" type="curve"/>
      <point x="491" y="480"/>
      <point x="554" y="567"/>
      <point x="614" y="656" type="curve" smooth="yes"/>
      <point x="622" y="667"/>
      <point x="636" y="682"/>
      <point x="647" y="689" type="curve" smooth="yes"/>
      <point x="675" y="707"/>
      <point x="733" y="689"/>
      <point x="733" y="717" type="curve" smooth="yes"/>
      <point x="733" y="728"/>
      <point x="729" y="731"/>
      <point x="719" y="731" type="curve" smooth="yes"/>
      <point x="700" y="731"/>
      <point x="682" y="729"/>
      <point x="664" y="728" type="curve" smooth="yes"/>
      <point x="626" y="726"/>
      <point x="588" y="726"/>
      <point x="551" y="726" type="curve" smooth="yes"/>
      <point x="533" y="726"/>
      <point x="516" y="728"/>
      <point x="499" y="728" type="curve" smooth="yes"/>
      <point x="492" y="728"/>
      <point x="486" y="724"/>
      <point x="486" y="716" type="curve" smooth="yes"/>
      <point x="486" y="706"/>
      <point x="487" y="702"/>
      <point x="498" y="702" type="curve" smooth="yes"/>
      <point x="514" y="702"/>
      <point x="529" y="704"/>
      <point x="544" y="704" type="curve" smooth="yes"/>
      <point x="553" y="704"/>
      <point x="572" y="704"/>
      <point x="572" y="691" type="curve" smooth="yes"/>
      <point x="572" y="653"/>
      <point x="439" y="459"/>
      <point x="410" y="413" type="curve"/>
      <point x="355" y="510"/>
      <point x="297" y="605"/>
      <point x="240" y="700" type="curve" smooth="yes"/>
      <point x="235" y="707"/>
      <point x="232" y="714"/>
      <point x="226" y="719" type="curve"/>
      <point x="221" y="726"/>
      <point x="214" y="730"/>
      <point x="206" y="730" type="curve" smooth="yes"/>
      <point x="188" y="730"/>
      <point x="170" y="728"/>
      <point x="152" y="727" type="curve" smooth="yes"/>
      <point x="121" y="725"/>
      <point x="69" y="726"/>
      <point x="41" y="719" type="curve" smooth="yes"/>
      <point x="31" y="716"/>
      <point x="32" y="708"/>
      <point x="32" y="699" type="curve" smooth="yes"/>
      <point x="32" y="690"/>
      <point x="42" y="687"/>
      <point x="49" y="687" type="curve" smooth="yes"/>
      <point x="64" y="687"/>
      <point x="79" y="689"/>
      <point x="93" y="689" type="curve" smooth="yes"/>
      <point x="116" y="689"/>
      <point x="124" y="685"/>
      <point x="137" y="666" type="curve" smooth="yes"/>
      <point x="211" y="558"/>
      <point x="280" y="446"/>
      <point x="353" y="336" type="curve"/>
      <point x="303" y="261"/>
      <point x="247" y="189"/>
      <point x="191" y="118" type="curve" smooth="yes"/>
      <point x="173" y="94"/>
      <point x="151" y="71"/>
      <point x="128" y="51" type="curve" smooth="yes"/>
      <point x="102" y="29"/>
      <point x="79" y="27"/>
      <point x="46" y="27" type="curve" smooth="yes"/>
      <point x="39" y="27"/>
      <point x="32" y="28"/>
      <point x="25" y="27" type="curve" smooth="yes"/>
      <point x="18" y="26"/>
      <point x="15" y="20"/>
      <point x="15" y="13" type="curve" smooth="yes"/>
      <point x="15" y="5"/>
      <point x="20" y="-1"/>
      <point x="28" y="-1" type="curve" smooth="yes"/>
      <point x="75" y="-1"/>
      <point x="122" y="3"/>
      <point x="169" y="3" type="curve" smooth="yes"/>
      <point x="195" y="3"/>
      <point x="221" y="0"/>
      <point x="248" y="0" type="curve" smooth="yes"/>
      <point x="258" y="0"/>
      <point x="269" y="1"/>
      <point x="280" y="1" type="curve" smooth="yes"/>
      <point x="292" y="1"/>
      <point x="295" y="5"/>
      <point x="295" y="17" type="curve" smooth="yes"/>
      <point x="295" y="37"/>
      <point x="206" y="11"/>
      <point x="206" y="52" type="curve" smooth="yes"/>
      <point x="206" y="66"/>
      <point x="350" y="279"/>
      <point x="371" y="313" type="curve"/>
      <point x="435" y="211"/>
      <point x="496" y="124"/>
      <point x="550" y="16" type="curve" smooth="yes"/>
      <point x="556" y="4"/>
      <point x="561" y="0"/>
      <point x="574" y="0" type="curve" smooth="yes"/>
      <point x="612" y="0"/>
      <point x="650" y="1"/>
      <point x="688" y="0" type="curve" smooth="yes"/>
      <point x="708" y="-1"/>
      <point x="729" y="-2"/>
    </contour>
  </outline>
</glyph>
<glyph name="Z" format="2">
  <advance height="1000" width="645"/>
  <unicode hex="005A"/>
  <note>
cid00059
</note>
  <outline>
    <contour>
      <point x="50" y="2" type="curve" smooth="yes"/>
      <point x="132" y="2"/>
      <point x="214" y="7"/>
      <point x="296" y="7" type="curve" smooth="yes"/>
      <point x="369" y="7"/>
      <point x="441" y="6"/>
      <point x="514" y="6" type="curve" smooth="yes"/>
      <point x="523" y="6"/>
      <point x="533" y="7"/>
      <point x="542" y="6" type="curve" smooth="yes"/>
      <point x="552" y="6"/>
      <point x="562" y="2"/>
      <point x="572" y="2" type="curve" smooth="yes"/>
      <point x="583" y="2"/>
      <point x="590" y="-1"/>
      <point x="593" y="13" type="curve" smooth="yes"/>
      <point x="598" y="37"/>
      <point x="595" y="66"/>
      <point x="598" y="91" type="curve" smooth="yes"/>
      <point x="602" y="122"/>
      <point x="605" y="154"/>
      <point x="609" y="185" type="curve" smooth="yes"/>
      <point x="611" y="200"/>
      <point x="616" y="215"/>
      <point x="616" y="230" type="curve" smooth="yes"/>
      <point x="616" y="237"/>
      <point x="611" y="241"/>
      <point x="604" y="241" type="curve" smooth="yes"/>
      <point x="596" y="241"/>
      <point x="596" y="238"/>
      <point x="592" y="233" type="curve"/>
      <point x="592" y="231"/>
      <point x="591" y="229"/>
      <point x="590" y="226" type="curve" smooth="yes"/>
      <point x="564" y="145"/>
      <point x="519" y="57"/>
      <point x="424" y="45" type="curve" smooth="yes"/>
      <point x="367" y="39"/>
      <point x="309" y="38"/>
      <point x="252" y="38" type="curve" smooth="yes"/>
      <point x="242" y="38"/>
      <point x="231" y="37"/>
      <point x="220" y="37" type="curve" smooth="yes"/>
      <point x="203" y="37"/>
      <point x="152" y="36"/>
      <point x="152" y="61" type="curve" smooth="yes"/>
      <point x="152" y="77"/>
      <point x="174" y="105"/>
      <point x="183" y="118" type="curve" smooth="yes"/>
      <point x="587" y="685" type="line" smooth="yes"/>
      <point x="593" y="693"/>
      <point x="600" y="702"/>
      <point x="600" y="713" type="curve" smooth="yes"/>
      <point x="600" y="728"/>
      <point x="591" y="731"/>
      <point x="578" y="731" type="curve" smooth="yes"/>
      <point x="449" y="731"/>
      <point x="320" y="731"/>
      <point x="191" y="727" type="curve" smooth="yes"/>
      <point x="173" y="726"/>
      <point x="155" y="726"/>
      <point x="138" y="726" type="curve" smooth="yes"/>
      <point x="121" y="726"/>
      <point x="105" y="727"/>
      <point x="88" y="727" type="curve" smooth="yes"/>
      <point x="64" y="727"/>
      <point x="56" y="717"/>
      <point x="56" y="694" type="curve" smooth="yes"/>
      <point x="56" y="641"/>
      <point x="50" y="588"/>
      <point x="50" y="535" type="curve" smooth="yes"/>
      <point x="50" y="527"/>
      <point x="55" y="525"/>
      <point x="61" y="525" type="curve" smooth="yes"/>
      <point x="73" y="525"/>
      <point x="77" y="535"/>
      <point x="79" y="544" type="curve" smooth="yes"/>
      <point x="82" y="559"/>
      <point x="86" y="573"/>
      <point x="91" y="587" type="curve" smooth="yes"/>
      <point x="108" y="630"/>
      <point x="145" y="677"/>
      <point x="191" y="691" type="curve" smooth="yes"/>
      <point x="228" y="702"/>
      <point x="350" y="702"/>
      <point x="395" y="702" type="curve" smooth="yes"/>
      <point x="408" y="702"/>
      <point x="452" y="701"/>
      <point x="452" y="683" type="curve" smooth="yes"/>
      <point x="452" y="663"/>
      <point x="436" y="638"/>
      <point x="426" y="622" type="curve" smooth="yes"/>
      <point x="340" y="486"/>
      <point x="245" y="357"/>
      <point x="152" y="226" type="curve" smooth="yes"/>
      <point x="63" y="100" type="line" smooth="yes"/>
      <point x="50" y="83"/>
      <point x="37" y="65"/>
      <point x="26" y="47" type="curve" smooth="yes"/>
      <point x="22" y="42"/>
      <point x="20" y="36"/>
      <point x="20" y="29" type="curve" smooth="yes"/>
      <point x="20" y="10"/>
      <point x="32" y="2"/>
    </contour>
  </outline>
</glyph>
<glyph name="bracketleft" format="2">
  <advance height="1000" width="450"/>
  <unicode hex="005B"/>
  <note>
cid00060
</note>
  <outline>
    <contour>
      <point x="178" y="-102" type="line"/>
      <point x="426" y="-102" type="line"/>
      <point x="426" y="-71" type="line"/>
      <point x="247" y="-71" type="line"/>
      <point x="247" y="822" type="line"/>
      <point x="426" y="822" type="line"/>
      <point x="426" y="854" type="line"/>
      <point x="178" y="854" type="line"/>
    </contour>
  </outline>
</glyph>
<glyph name="backslash" format="2">
  <advance height="1000" width="500"/>
  <unicode hex="005C"/>
  <note>
cid00097
</note>
  <outline>
    <contour>
      <point x="411" y="-96" type="line"/>
      <point x="460" y="-68" type="line"/>
      <point x="91" y="761" type="line"/>
      <point x="40" y="733" type="line"/>
    </contour>
  </outline>
</glyph>
<glyph name="bracketright" format="2">
  <advance height="1000" width="450"/>
  <unicode hex="005D"/>
  <note>
cid00062
</note>
  <outline>
    <contour>
      <point x="178" y="-102" type="line"/>
      <point x="426" y="-102" type="line"/>
      <point x="426" y="854" type="line"/>
      <point x="178" y="854" type="line"/>
      <point x="178" y="822" type="line"/>
      <point x="357" y="822" type="line"/>
      <point x="357" y="-71" type="line"/>
      <point x="178" y="-71" type="line"/>
    </contour>
  </outline>
</glyph>
<glyph name="asciicircum" format="2">
  <advance height="1000" width="560"/>
  <unicode hex="005E"/>
  <note>
cid00063
</note>
  <outline>
    <contour>
      <point x="50" y="474" type="line"/>
      <point x="118" y="474" type="line"/>
      <point x="279" y="718" type="line"/>
      <point x="438" y="474" type="line"/>
      <point x="510" y="474" type="line"/>
      <point x="318" y="749" type="line"/>
      <point x="242" y="749" type="line"/>
    </contour>
  </outline>
</glyph>
<glyph name="underscore" format="2">
  <advance height="1000" width="500"/>
  <unicode hex="005F"/>
  <note>
cid00064
</note>
  <outline>
    <contour>
      <point x="1" y="-118" type="line"/>
      <point x="500" y="-118" type="line"/>
      <point x="500" y="-86" type="line"/>
      <point x="1" y="-86" type="line"/>
    </contour>
  </outline>
</glyph>
<glyph name="grave" format="2">
  <advance height="1000" width="390"/>
  <unicode hex="0060"/>
  <note>
cid00065
</note>
  <outline>
    <contour>
      <point x="255" y="572" type="curve" smooth="yes"/>
      <point x="262" y="572"/>
      <point x="263" y="580"/>
      <point x="263" y="585" type="curve" smooth="yes"/>
      <point x="263" y="605"/>
      <point x="223" y="798"/>
      <point x="215" y="819" type="curve" smooth="yes"/>
      <point x="209" y="835"/>
      <point x="195" y="841"/>
      <point x="178" y="841" type="curve" smooth="yes"/>
      <point x="156" y="841"/>
      <point x="127" y="828"/>
      <point x="127" y="802" type="curve" smooth="yes"/>
      <point x="127" y="798"/>
      <point x="127" y="793"/>
      <point x="129" y="789" type="curve"/>
      <point x="134" y="771"/>
      <point x="164" y="719"/>
      <point x="175" y="699" type="curve" smooth="yes"/>
      <point x="186" y="677"/>
      <point x="230" y="591"/>
      <point x="243" y="578" type="curve"/>
      <point x="246" y="576"/>
      <point x="251" y="572"/>
    </contour>
  </outline>
</glyph>
<glyph name="b" format="2">
  <advance height="1000" width="610"/>
  <unicode hex="0062"/>
  <note>
cid00067
</note>
  <outline>
    <contour>
      <point x="301" y="0" type="curve" smooth="yes"/>
      <point x="464" y="0"/>
      <point x="579" y="120"/>
      <point x="579" y="281" type="curve" smooth="yes"/>
      <point x="579" y="412"/>
      <point x="506" y="530"/>
      <point x="364" y="530" type="curve" smooth="yes"/>
      <point x="308" y="530"/>
      <point x="248" y="503"/>
      <point x="205" y="467" type="curve"/>
      <point x="205" y="746" type="line" smooth="yes"/>
      <point x="205" y="752"/>
      <point x="208" y="769"/>
      <point x="199" y="769" type="curve" smooth="yes"/>
      <point x="191" y="769"/>
      <point x="182" y="764"/>
      <point x="174" y="762" type="curve" smooth="yes"/>
      <point x="128" y="750"/>
      <point x="80" y="745"/>
      <point x="34" y="736" type="curve"/>
      <point x="28" y="734"/>
      <point x="18" y="732"/>
      <point x="18" y="724" type="curve" smooth="yes"/>
      <point x="18" y="717"/>
      <point x="25" y="712"/>
      <point x="31" y="712" type="curve" smooth="yes"/>
      <point x="49" y="712"/>
      <point x="68" y="715"/>
      <point x="86" y="715" type="curve" smooth="yes"/>
      <point x="102" y="715"/>
      <point x="116" y="711"/>
      <point x="116" y="693" type="curve" smooth="yes"/>
      <point x="116" y="533"/>
      <point x="119" y="373"/>
      <point x="119" y="213" type="curve" smooth="yes"/>
      <point x="119" y="184"/>
      <point x="118" y="155"/>
      <point x="118" y="126" type="curve" smooth="yes"/>
      <point x="117" y="101"/>
      <point x="118" y="75"/>
      <point x="115" y="50" type="curve" smooth="yes"/>
      <point x="114" y="46"/>
      <point x="113" y="41"/>
      <point x="113" y="36" type="curve" smooth="yes"/>
      <point x="113" y="24"/>
      <point x="118" y="18"/>
      <point x="130" y="18" type="curve" smooth="yes"/>
      <point x="140" y="18"/>
      <point x="151" y="20"/>
      <point x="161" y="20" type="curve" smooth="yes"/>
      <point x="203" y="20"/>
      <point x="253" y="0"/>
    </contour>
    <contour>
      <point x="280" y="27" type="curve" smooth="yes"/>
      <point x="260" y="27"/>
      <point x="221" y="31"/>
      <point x="210" y="52" type="curve" smooth="yes"/>
      <point x="207" y="59"/>
      <point x="205" y="78"/>
      <point x="205" y="87" type="curve" smooth="yes"/>
      <point x="205" y="201" type="line"/>
      <point x="206" y="369" type="line" smooth="yes"/>
      <point x="207" y="405"/>
      <point x="221" y="432"/>
      <point x="246" y="456" type="curve" smooth="yes"/>
      <point x="265" y="474"/>
      <point x="306" y="491"/>
      <point x="332" y="491" type="curve" smooth="yes"/>
      <point x="448" y="491"/>
      <point x="479" y="378"/>
      <point x="479" y="282" type="curve" smooth="yes"/>
      <point x="479" y="158"/>
      <point x="424" y="27"/>
    </contour>
  </outline>
</glyph>
<glyph name="c" format="2">
  <advance height="1000" width="540"/>
  <unicode hex="0063"/>
  <note>
cid00068
</note>
  <outline>
    <contour>
      <point x="305" y="-1" type="curve" smooth="yes"/>
      <point x="356" y="-1"/>
      <point x="419" y="22"/>
      <point x="460" y="52" type="curve" smooth="yes"/>
      <point x="474" y="62"/>
      <point x="486" y="75"/>
      <point x="498" y="87" type="curve" smooth="yes"/>
      <point x="505" y="94"/>
      <point x="525" y="114"/>
      <point x="525" y="124" type="curve" smooth="yes"/>
      <point x="525" y="131"/>
      <point x="519" y="136"/>
      <point x="512" y="136" type="curve" smooth="yes"/>
      <point x="507" y="136"/>
      <point x="503" y="133"/>
      <point x="501" y="129" type="curve"/>
      <point x="447" y="64"/>
      <point x="396" y="33"/>
      <point x="311" y="33" type="curve" smooth="yes"/>
      <point x="187" y="33"/>
      <point x="143" y="161"/>
      <point x="143" y="265" type="curve" smooth="yes"/>
      <point x="143" y="370"/>
      <point x="189" y="518"/>
      <point x="317" y="518" type="curve" smooth="yes"/>
      <point x="344" y="518"/>
      <point x="377" y="504"/>
      <point x="397" y="486" type="curve" smooth="yes"/>
      <point x="429" y="459"/>
      <point x="447" y="410"/>
      <point x="456" y="371" type="curve" smooth="yes"/>
      <point x="458" y="363"/>
      <point x="460" y="349"/>
      <point x="470" y="349" type="curve" smooth="yes"/>
      <point x="487" y="349"/>
      <point x="489" y="357"/>
      <point x="488" y="372" type="curve" smooth="yes"/>
      <point x="488" y="375" type="line" smooth="yes"/>
      <point x="487" y="404"/>
      <point x="485" y="433"/>
      <point x="484" y="463" type="curve" smooth="yes"/>
      <point x="483" y="478"/>
      <point x="484" y="494"/>
      <point x="482" y="510" type="curve" smooth="yes"/>
      <point x="482" y="512"/>
      <point x="481" y="514"/>
      <point x="479" y="514" type="curve" smooth="yes"/>
      <point x="473" y="514"/>
      <point x="464" y="499"/>
      <point x="448" y="499" type="curve" smooth="yes"/>
      <point x="429" y="499"/>
      <point x="414" y="509"/>
      <point x="397" y="517" type="curve" smooth="yes"/>
      <point x="368" y="530"/>
      <point x="336" y="539"/>
      <point x="303" y="539" type="curve" smooth="yes"/>
      <point x="260" y="539"/>
      <point x="211" y="525"/>
      <point x="174" y="502" type="curve" smooth="yes"/>
      <point x="87" y="449"/>
      <point x="49" y="357"/>
      <point x="49" y="258" type="curve" smooth="yes"/>
      <point x="49" y="107"/>
      <point x="153" y="-1"/>
    </contour>
  </outline>
</glyph>
<glyph name="d" format="2">
  <advance height="1000" width="606"/>
  <unicode hex="0064"/>
  <note>
cid00069
</note>
  <outline>
    <contour>
      <point x="507" y="-2" type="curve" smooth="yes"/>
      <point x="530" y="-2"/>
      <point x="568" y="8"/>
      <point x="586" y="22" type="curve" smooth="yes"/>
      <point x="591" y="26"/>
      <point x="600" y="33"/>
      <point x="600" y="40" type="curve" smooth="yes"/>
      <point x="600" y="45"/>
      <point x="598" y="48"/>
      <point x="593" y="48" type="curve" smooth="yes"/>
      <point x="580" y="48"/>
      <point x="568" y="40"/>
      <point x="555" y="40" type="curve" smooth="yes"/>
      <point x="512" y="40"/>
      <point x="503" y="82"/>
      <point x="503" y="117" type="curve" smooth="yes"/>
      <point x="503" y="266" type="line" smooth="yes"/>
      <point x="503" y="431"/>
      <point x="505" y="595"/>
      <point x="505" y="760" type="curve" smooth="yes"/>
      <point x="505" y="765"/>
      <point x="505" y="772"/>
      <point x="498" y="772" type="curve"/>
      <point x="491" y="770" type="line" smooth="yes"/>
      <point x="463" y="762"/>
      <point x="435" y="756"/>
      <point x="406" y="751" type="curve" smooth="yes"/>
      <point x="377" y="746"/>
      <point x="348" y="743"/>
      <point x="320" y="738" type="curve" smooth="yes"/>
      <point x="316" y="737"/>
      <point x="313" y="737"/>
      <point x="310" y="735" type="curve" smooth="yes"/>
      <point x="306" y="733"/>
      <point x="305" y="730"/>
      <point x="305" y="726" type="curve" smooth="yes"/>
      <point x="305" y="721"/>
      <point x="311" y="716"/>
      <point x="316" y="716" type="curve" smooth="yes"/>
      <point x="328" y="716"/>
      <point x="340" y="717"/>
      <point x="352" y="717" type="curve" smooth="yes"/>
      <point x="388" y="717"/>
      <point x="412" y="719"/>
      <point x="412" y="676" type="curve" smooth="yes"/>
      <point x="412" y="482" type="line"/>
      <point x="385" y="503"/>
      <point x="329" y="528"/>
      <point x="294" y="528" type="curve" smooth="yes"/>
      <point x="129" y="528"/>
      <point x="45" y="408"/>
      <point x="45" y="252" type="curve" smooth="yes"/>
      <point x="45" y="165"/>
      <point x="85" y="76"/>
      <point x="161" y="28" type="curve" smooth="yes"/>
      <point x="195" y="7"/>
      <point x="238" y="3"/>
      <point x="277" y="3" type="curve" smooth="yes"/>
      <point x="334" y="3"/>
      <point x="389" y="46"/>
      <point x="418" y="93" type="curve"/>
      <point x="433" y="51"/>
      <point x="455" y="-2"/>
    </contour>
    <contour>
      <point x="282" y="35" type="curve" smooth="yes"/>
      <point x="166" y="35"/>
      <point x="140" y="166"/>
      <point x="140" y="258" type="curve" smooth="yes"/>
      <point x="140" y="360"/>
      <point x="169" y="499"/>
      <point x="297" y="499" type="curve" smooth="yes"/>
      <point x="370" y="499"/>
      <point x="414" y="435"/>
      <point x="414" y="367" type="curve" smooth="yes"/>
      <point x="414" y="181" type="line" smooth="yes"/>
      <point x="414" y="114"/>
      <point x="353" y="35"/>
    </contour>
  </outline>
</glyph>
<glyph name="f" format="2">
  <advance height="1000" width="390"/>
  <unicode hex="0066"/>
  <note>
cid00071
</note>
  <outline>
    <contour>
      <point x="43" y="-2" type="curve" smooth="yes"/>
      <point x="60" y="-2"/>
      <point x="76" y="0"/>
      <point x="93" y="1" type="curve" smooth="yes"/>
      <point x="117" y="2"/>
      <point x="141" y="2"/>
      <point x="166" y="2" type="curve" smooth="yes"/>
      <point x="211" y="2"/>
      <point x="257" y="-1"/>
      <point x="303" y="-1" type="curve" smooth="yes"/>
      <point x="309" y="-1"/>
      <point x="314" y="4"/>
      <point x="314" y="10" type="curve" smooth="yes"/>
      <point x="314" y="17"/>
      <point x="311" y="26"/>
      <point x="303" y="26" type="curve" smooth="yes"/>
      <point x="289" y="26"/>
      <point x="275" y="23"/>
      <point x="261" y="23" type="curve" smooth="yes"/>
      <point x="227" y="23"/>
      <point x="216" y="50"/>
      <point x="216" y="80" type="curve" smooth="yes"/>
      <point x="216" y="467" type="line"/>
      <point x="261" y="467" type="line" smooth="yes"/>
      <point x="288" y="467"/>
      <point x="314" y="466"/>
      <point x="341" y="466" type="curve" smooth="yes"/>
      <point x="351" y="466"/>
      <point x="355" y="474"/>
      <point x="355" y="483" type="curve" smooth="yes"/>
      <point x="355" y="491"/>
      <point x="350" y="500"/>
      <point x="341" y="500" type="curve" smooth="yes"/>
      <point x="298" y="500"/>
      <point x="256" y="499"/>
      <point x="213" y="499" type="curve"/>
      <point x="212" y="545"/>
      <point x="212" y="590"/>
      <point x="212" y="636" type="curve" smooth="yes"/>
      <point x="212" y="683"/>
      <point x="236" y="724"/>
      <point x="287" y="724" type="curve" smooth="yes"/>
      <point x="318" y="724"/>
      <point x="336" y="706"/>
      <point x="347" y="679" type="curve" smooth="yes"/>
      <point x="368" y="623" type="line" smooth="yes"/>
      <point x="372" y="614"/>
      <point x="378" y="611"/>
      <point x="387" y="611" type="curve" smooth="yes"/>
      <point x="398" y="611"/>
      <point x="409" y="622"/>
      <point x="409" y="633" type="curve" smooth="yes"/>
      <point x="409" y="664"/>
      <point x="404" y="694"/>
      <point x="403" y="725" type="curve"/>
      <point x="368" y="725"/>
      <point x="338" y="746"/>
      <point x="303" y="746" type="curve" smooth="yes"/>
      <point x="188" y="746"/>
      <point x="120" y="703"/>
      <point x="120" y="581" type="curve" smooth="yes"/>
      <point x="120" y="497" type="line"/>
      <point x="65" y="497" type="line" smooth="yes"/>
      <point x="56" y="497"/>
      <point x="48" y="498"/>
      <point x="39" y="498" type="curve" smooth="yes"/>
      <point x="34" y="498"/>
      <point x="29" y="498"/>
      <point x="27" y="492" type="curve" smooth="yes"/>
      <point x="26" y="490"/>
      <point x="21" y="465"/>
      <point x="21" y="462" type="curve" smooth="yes"/>
      <point x="21" y="457"/>
      <point x="25" y="456"/>
      <point x="29" y="456" type="curve" smooth="yes"/>
      <point x="31" y="456"/>
      <point x="33" y="459"/>
      <point x="35" y="461" type="curve"/>
      <point x="43" y="466"/>
      <point x="55" y="468"/>
      <point x="65" y="468" type="curve" smooth="yes"/>
      <point x="122" y="468" type="line"/>
      <point x="122" y="80" type="line" smooth="yes"/>
      <point x="122" y="46"/>
      <point x="115" y="23"/>
      <point x="76" y="23" type="curve" smooth="yes"/>
      <point x="67" y="23"/>
      <point x="58" y="24"/>
      <point x="49" y="24" type="curve" smooth="yes"/>
      <point x="39" y="24"/>
      <point x="28" y="24"/>
      <point x="28" y="10" type="curve" smooth="yes"/>
      <point x="28" y="0"/>
      <point x="34" y="-2"/>
    </contour>
  </outline>
</glyph>
<glyph name="g" format="2">
  <advance height="1000" width="552"/>
  <unicode hex="0067"/>
  <note>
cid00072
</note>
  <outline>
    <contour>
      <point x="270" y="-166" type="curve" smooth="yes"/>
      <point x="358" y="-166"/>
      <point x="511" y="-132"/>
      <point x="511" y="-20" type="curve" smooth="yes"/>
      <point x="511" y="59"/>
      <point x="435" y="87"/>
      <point x="368" y="93" type="curve" smooth="yes"/>
      <point x="241" y="102" type="line" smooth="yes"/>
      <point x="219" y="104"/>
      <point x="161" y="109"/>
      <point x="161" y="140" type="curve" smooth="yes"/>
      <point x="161" y="166"/>
      <point x="190" y="184"/>
      <point x="207" y="200" type="curve"/>
      <point x="228" y="198"/>
      <point x="248" y="196"/>
      <point x="269" y="196" type="curve" smooth="yes"/>
      <point x="361" y="196"/>
      <point x="456" y="263"/>
      <point x="456" y="362" type="curve" smooth="yes"/>
      <point x="456" y="415"/>
      <point x="436" y="464"/>
      <point x="393" y="497" type="curve"/>
      <point x="423" y="496"/>
      <point x="453" y="495"/>
      <point x="483" y="495" type="curve" smooth="yes"/>
      <point x="513" y="495"/>
      <point x="542" y="490"/>
      <point x="542" y="532" type="curve" smooth="yes"/>
      <point x="542" y="539"/>
      <point x="542" y="564"/>
      <point x="532" y="564" type="curve" smooth="yes"/>
      <point x="528" y="564"/>
      <point x="525" y="561"/>
      <point x="522" y="558" type="curve" smooth="yes"/>
      <point x="487" y="521"/>
      <point x="442" y="519"/>
      <point x="394" y="519" type="curve" smooth="yes"/>
      <point x="385" y="519"/>
      <point x="376" y="519"/>
      <point x="367" y="520" type="curve" smooth="yes"/>
      <point x="356" y="521"/>
      <point x="343" y="527"/>
      <point x="332" y="530" type="curve" smooth="yes"/>
      <point x="311" y="536"/>
      <point x="287" y="540"/>
      <point x="265" y="540" type="curve" smooth="yes"/>
      <point x="170" y="540"/>
      <point x="68" y="476"/>
      <point x="68" y="372" type="curve" smooth="yes"/>
      <point x="68" y="297"/>
      <point x="100" y="249"/>
      <point x="168" y="217" type="curve"/>
      <point x="144" y="195"/>
      <point x="75" y="141"/>
      <point x="75" y="108" type="curve" smooth="yes"/>
      <point x="75" y="89"/>
      <point x="108" y="74"/>
      <point x="123" y="68" type="curve"/>
      <point x="85" y="37"/>
      <point x="39" y="-8"/>
      <point x="39" y="-61" type="curve" smooth="yes"/>
      <point x="39" y="-161"/>
      <point x="200" y="-166"/>
    </contour>
    <contour>
      <point x="275" y="-139" type="curve" smooth="yes"/>
      <point x="200" y="-139"/>
      <point x="119" y="-132"/>
      <point x="119" y="-36" type="curve" smooth="yes"/>
      <point x="119" y="8"/>
      <point x="132" y="36"/>
      <point x="162" y="68" type="curve"/>
      <point x="274" y="57" type="line" smooth="yes"/>
      <point x="333" y="51"/>
      <point x="413" y="47"/>
      <point x="413" y="-32" type="curve" smooth="yes"/>
      <point x="413" y="-113"/>
      <point x="346" y="-139"/>
    </contour>
    <contour>
      <point x="270" y="216" type="curve" smooth="yes"/>
      <point x="175" y="216"/>
      <point x="161" y="290"/>
      <point x="161" y="368" type="curve" smooth="yes"/>
      <point x="161" y="442"/>
      <point x="181" y="519"/>
      <point x="270" y="519" type="curve" smooth="yes"/>
      <point x="348" y="519"/>
      <point x="364" y="429"/>
      <point x="364" y="368" type="curve" smooth="yes"/>
      <point x="364" y="307"/>
      <point x="348" y="216"/>
    </contour>
  </outline>
</glyph>
<glyph name="h" format="2">
  <advance height="1000" width="636"/>
  <unicode hex="0068"/>
  <note>
cid00073
</note>
  <outline>
    <contour>
      <point x="42" y="0" type="curve" smooth="yes"/>
      <point x="47" y="0"/>
      <point x="51" y="1"/>
      <point x="56" y="1" type="curve" smooth="yes"/>
      <point x="78" y="3"/>
      <point x="99" y="4"/>
      <point x="121" y="4" type="curve" smooth="yes"/>
      <point x="168" y="4"/>
      <point x="215" y="1"/>
      <point x="261" y="1" type="curve" smooth="yes"/>
      <point x="269" y="1"/>
      <point x="270" y="8"/>
      <point x="270" y="15" type="curve" smooth="yes"/>
      <point x="270" y="21"/>
      <point x="269" y="25"/>
      <point x="261" y="25" type="curve" smooth="yes"/>
      <point x="248" y="25"/>
      <point x="236" y="23"/>
      <point x="223" y="23" type="curve" smooth="yes"/>
      <point x="189" y="23"/>
      <point x="196" y="83"/>
      <point x="196" y="106" type="curve" smooth="yes"/>
      <point x="196" y="282" type="line" smooth="yes"/>
      <point x="196" y="355"/>
      <point x="198" y="378"/>
      <point x="247" y="435" type="curve" smooth="yes"/>
      <point x="276" y="469"/>
      <point x="323" y="496"/>
      <point x="369" y="496" type="curve" smooth="yes"/>
      <point x="407" y="496"/>
      <point x="440" y="476"/>
      <point x="453" y="440" type="curve" smooth="yes"/>
      <point x="458" y="424"/>
      <point x="460" y="407"/>
      <point x="461" y="390" type="curve" smooth="yes"/>
      <point x="463" y="350"/>
      <point x="463" y="310"/>
      <point x="463" y="270" type="curve" smooth="yes"/>
      <point x="463" y="151" type="line" smooth="yes"/>
      <point x="463" y="119"/>
      <point x="464" y="85"/>
      <point x="462" y="52" type="curve" smooth="yes"/>
      <point x="461" y="36"/>
      <point x="450" y="23"/>
      <point x="433" y="23" type="curve" smooth="yes"/>
      <point x="419" y="23"/>
      <point x="405" y="24"/>
      <point x="391" y="24" type="curve" smooth="yes"/>
      <point x="386" y="24"/>
      <point x="384" y="21"/>
      <point x="384" y="17" type="curve" smooth="yes"/>
      <point x="384" y="12"/>
      <point x="385" y="0"/>
      <point x="392" y="0" type="curve" smooth="yes"/>
      <point x="431" y="0"/>
      <point x="470" y="4"/>
      <point x="509" y="4" type="curve" smooth="yes"/>
      <point x="543" y="4"/>
      <point x="577" y="1"/>
      <point x="611" y="1" type="curve" smooth="yes"/>
      <point x="617" y="1"/>
      <point x="626" y="4"/>
      <point x="626" y="11" type="curve" smooth="yes"/>
      <point x="626" y="17"/>
      <point x="620" y="25"/>
      <point x="613" y="25" type="curve" smooth="yes"/>
      <point x="604" y="25"/>
      <point x="595" y="23"/>
      <point x="586" y="23" type="curve" smooth="yes"/>
      <point x="565" y="23"/>
      <point x="553" y="30"/>
      <point x="553" y="52" type="curve" smooth="yes"/>
      <point x="553" y="152"/>
      <point x="554" y="251"/>
      <point x="554" y="351" type="curve" smooth="yes"/>
      <point x="554" y="476"/>
      <point x="515" y="531"/>
      <point x="385" y="531" type="curve" smooth="yes"/>
      <point x="320" y="531"/>
      <point x="239" y="476"/>
      <point x="196" y="431" type="curve"/>
      <point x="198" y="540"/>
      <point x="198" y="650"/>
      <point x="198" y="759" type="curve" smooth="yes"/>
      <point x="198" y="765"/>
      <point x="198" y="771"/>
      <point x="190" y="771" type="curve" smooth="yes"/>
      <point x="169" y="771"/>
      <point x="132" y="757"/>
      <point x="110" y="752" type="curve" smooth="yes"/>
      <point x="84" y="747"/>
      <point x="58" y="743"/>
      <point x="32" y="737" type="curve" smooth="yes"/>
      <point x="25" y="735"/>
      <point x="23" y="733"/>
      <point x="23" y="725" type="curve" smooth="yes"/>
      <point x="23" y="719"/>
      <point x="28" y="717"/>
      <point x="32" y="717" type="curve" smooth="yes"/>
      <point x="52" y="717"/>
      <point x="72" y="721"/>
      <point x="91" y="721" type="curve" smooth="yes"/>
      <point x="109" y="721"/>
      <point x="113" y="697"/>
      <point x="113" y="683" type="curve" smooth="yes"/>
      <point x="114" y="598"/>
      <point x="116" y="513"/>
      <point x="116" y="428" type="curve" smooth="yes"/>
      <point x="116" y="347"/>
      <point x="115" y="265"/>
      <point x="115" y="183" type="curve" smooth="yes"/>
      <point x="115" y="140"/>
      <point x="116" y="96"/>
      <point x="114" y="52" type="curve" smooth="yes"/>
      <point x="113" y="28"/>
      <point x="87" y="25"/>
      <point x="68" y="25" type="curve" smooth="yes"/>
      <point x="59" y="25"/>
      <point x="51" y="26"/>
      <point x="43" y="26" type="curve" smooth="yes"/>
      <point x="37" y="26"/>
      <point x="32" y="21"/>
      <point x="32" y="15" type="curve" smooth="yes"/>
      <point x="32" y="10"/>
      <point x="35" y="0"/>
    </contour>
  </outline>
</glyph>
<glyph name="j" format="2">
  <advance height="1000" width="380"/>
  <unicode hex="006A"/>
  <note>
cid00075
</note>
  <outline>
    <contour>
      <point x="71" y="-185" type="curve" smooth="yes"/>
      <point x="145" y="-185"/>
      <point x="209" y="-154"/>
      <point x="246" y="-88" type="curve" smooth="yes"/>
      <point x="270" y="-45"/>
      <point x="271" y="24"/>
      <point x="271" y="72" type="curve" smooth="yes"/>
      <point x="272" y="534" type="line" smooth="yes"/>
      <point x="272" y="539"/>
      <point x="271" y="544"/>
      <point x="265" y="544" type="curve" smooth="yes"/>
      <point x="258" y="543" type="line" smooth="yes"/>
      <point x="220" y="536"/>
      <point x="183" y="527"/>
      <point x="145" y="521" type="curve" smooth="yes"/>
      <point x="131" y="519"/>
      <point x="99" y="517"/>
      <point x="88" y="513" type="curve" smooth="yes"/>
      <point x="81" y="511"/>
      <point x="80" y="505"/>
      <point x="80" y="499" type="curve" smooth="yes"/>
      <point x="80" y="496"/>
      <point x="85" y="490"/>
      <point x="88" y="490" type="curve" smooth="yes"/>
      <point x="106" y="490"/>
      <point x="124" y="494"/>
      <point x="142" y="494" type="curve" smooth="yes"/>
      <point x="169" y="494"/>
      <point x="176" y="484"/>
      <point x="176" y="459" type="curve" smooth="yes"/>
      <point x="176" y="-59" type="line" smooth="yes"/>
      <point x="176" y="-120"/>
      <point x="128" y="-156"/>
      <point x="70" y="-156" type="curve" smooth="yes"/>
      <point x="35" y="-156"/>
      <point x="10" y="-116"/>
      <point x="10" y="-84" type="curve" smooth="yes"/>
      <point x="10" y="-78"/>
      <point x="5" y="-73"/>
      <point x="-1" y="-73" type="curve" smooth="yes"/>
      <point x="-30" y="-73"/>
      <point x="-48" y="-89"/>
      <point x="-48" y="-119" type="curve" smooth="yes"/>
      <point x="-48" y="-133"/>
      <point x="-36" y="-149"/>
      <point x="-26" y="-158" type="curve" smooth="yes"/>
      <point x="-1" y="-180"/>
      <point x="39" y="-185"/>
    </contour>
    <contour>
      <point x="205" y="647" type="curve" smooth="yes"/>
      <point x="239" y="647"/>
      <point x="266" y="674"/>
      <point x="266" y="707" type="curve" smooth="yes"/>
      <point x="266" y="740"/>
      <point x="238" y="767"/>
      <point x="205" y="767" type="curve" smooth="yes"/>
      <point x="172" y="767"/>
      <point x="144" y="740"/>
      <point x="144" y="707" type="curve" smooth="yes"/>
      <point x="144" y="674"/>
      <point x="172" y="647"/>
    </contour>
  </outline>
</glyph>
<glyph name="k" format="2">
  <advance height="1000" width="592"/>
  <unicode hex="006B"/>
  <note>
cid00076
</note>
  <outline>
    <contour>
      <point x="42" y="-1" type="curve" smooth="yes"/>
      <point x="51" y="-1"/>
      <point x="60" y="1"/>
      <point x="68" y="1" type="curve" smooth="yes"/>
      <point x="95" y="2"/>
      <point x="122" y="3"/>
      <point x="148" y="3" type="curve" smooth="yes"/>
      <point x="185" y="3"/>
      <point x="221" y="2"/>
      <point x="258" y="2" type="curve" smooth="yes"/>
      <point x="265" y="2"/>
      <point x="269" y="7"/>
      <point x="269" y="14" type="curve" smooth="yes"/>
      <point x="269" y="22"/>
      <point x="260" y="26"/>
      <point x="253" y="26" type="curve" smooth="yes"/>
      <point x="242" y="26"/>
      <point x="230" y="25"/>
      <point x="218" y="25" type="curve" smooth="yes"/>
      <point x="203" y="25"/>
      <point x="194" y="34"/>
      <point x="194" y="49" type="curve" smooth="yes"/>
      <point x="194" y="273" type="line"/>
      <point x="252" y="316" type="line"/>
      <point x="309" y="223"/>
      <point x="368" y="131"/>
      <point x="428" y="39" type="curve" smooth="yes"/>
      <point x="436" y="25"/>
      <point x="447" y="10"/>
      <point x="464" y="5" type="curve" smooth="yes"/>
      <point x="483" y="0"/>
      <point x="507" y="0"/>
      <point x="526" y="0" type="curve" smooth="yes"/>
      <point x="537" y="0"/>
      <point x="591" y="1"/>
      <point x="591" y="15" type="curve" smooth="yes"/>
      <point x="591" y="20"/>
      <point x="590" y="23"/>
      <point x="585" y="24" type="curve" smooth="yes"/>
      <point x="553" y="27"/>
      <point x="522" y="56"/>
      <point x="504" y="82" type="curve" smooth="yes"/>
      <point x="467" y="134"/>
      <point x="430" y="187"/>
      <point x="394" y="240" type="curve" smooth="yes"/>
      <point x="368" y="279"/>
      <point x="341" y="318"/>
      <point x="317" y="359" type="curve"/>
      <point x="375" y="406"/>
      <point x="432" y="455"/>
      <point x="492" y="498" type="curve" smooth="yes"/>
      <point x="511" y="512"/>
      <point x="530" y="512"/>
      <point x="552" y="514" type="curve" smooth="yes"/>
      <point x="558" y="514"/>
      <point x="564" y="515"/>
      <point x="564" y="522" type="curve" smooth="yes"/>
      <point x="564" y="532"/>
      <point x="558" y="538"/>
      <point x="549" y="538" type="curve" smooth="yes"/>
      <point x="533" y="538"/>
      <point x="516" y="536"/>
      <point x="500" y="536" type="curve" smooth="yes"/>
      <point x="487" y="536"/>
      <point x="474" y="538"/>
      <point x="461" y="538" type="curve" smooth="yes"/>
      <point x="453" y="538"/>
      <point x="449" y="537"/>
      <point x="444" y="531" type="curve" smooth="yes"/>
      <point x="426" y="508"/>
      <point x="406" y="488"/>
      <point x="384" y="468" type="curve" smooth="yes"/>
      <point x="322" y="411"/>
      <point x="261" y="353"/>
      <point x="193" y="303" type="curve"/>
      <point x="194" y="768" type="line" smooth="yes"/>
      <point x="194" y="772"/>
      <point x="192" y="774"/>
      <point x="189" y="774" type="curve" smooth="yes"/>
      <point x="177" y="774"/>
      <point x="128" y="762"/>
      <point x="111" y="759" type="curve" smooth="yes"/>
      <point x="85" y="755"/>
      <point x="57" y="752"/>
      <point x="32" y="746" type="curve" smooth="yes"/>
      <point x="27" y="745"/>
      <point x="24" y="743"/>
      <point x="24" y="737" type="curve" smooth="yes"/>
      <point x="24" y="730"/>
      <point x="27" y="727"/>
      <point x="34" y="727" type="curve" smooth="yes"/>
      <point x="45" y="727"/>
      <point x="55" y="730"/>
      <point x="66" y="730" type="curve" smooth="yes"/>
      <point x="98" y="730"/>
      <point x="106" y="722"/>
      <point x="106" y="691" type="curve" smooth="yes"/>
      <point x="106" y="47" type="line" smooth="yes"/>
      <point x="106" y="23"/>
      <point x="93" y="22"/>
      <point x="72" y="22" type="curve" smooth="yes"/>
      <point x="65" y="22"/>
      <point x="57" y="23"/>
      <point x="50" y="23" type="curve" smooth="yes"/>
      <point x="43" y="23"/>
      <point x="33" y="21"/>
      <point x="33" y="12" type="curve" smooth="yes"/>
      <point x="33" y="7"/>
      <point x="36" y="-1"/>
    </contour>
  </outline>
</glyph>
<glyph name="l" format="2">
  <advance height="1000" width="346"/>
  <unicode hex="006C"/>
  <note>
cid00077
</note>
  <outline>
    <contour>
      <point x="58" y="-1" type="curve" smooth="yes"/>
      <point x="86" y="-1"/>
      <point x="114" y="2"/>
      <point x="142" y="2" type="curve" smooth="yes"/>
      <point x="177" y="2" type="line" smooth="yes"/>
      <point x="219" y="2"/>
      <point x="262" y="-1"/>
      <point x="304" y="-1" type="curve" smooth="yes"/>
      <point x="312" y="-1"/>
      <point x="315" y="6"/>
      <point x="315" y="13" type="curve" smooth="yes"/>
      <point x="315" y="17"/>
      <point x="314" y="27"/>
      <point x="308" y="27" type="curve" smooth="yes"/>
      <point x="294" y="27"/>
      <point x="281" y="25"/>
      <point x="267" y="25" type="curve" smooth="yes"/>
      <point x="249" y="25"/>
      <point x="227" y="33"/>
      <point x="227" y="54" type="curve" smooth="yes"/>
      <point x="227" y="157"/>
      <point x="225" y="260"/>
      <point x="225" y="363" type="curve" smooth="yes"/>
      <point x="225" y="643" type="line" smooth="yes"/>
      <point x="225" y="680"/>
      <point x="226" y="717"/>
      <point x="226" y="754" type="curve" smooth="yes"/>
      <point x="226" y="760"/>
      <point x="225" y="767"/>
      <point x="217" y="767" type="curve" smooth="yes"/>
      <point x="215" y="767"/>
      <point x="213" y="765"/>
      <point x="210" y="765" type="curve"/>
      <point x="166" y="748"/>
      <point x="107" y="734"/>
      <point x="60" y="724" type="curve" smooth="yes"/>
      <point x="51" y="722"/>
      <point x="28" y="720"/>
      <point x="28" y="709" type="curve" smooth="yes"/>
      <point x="28" y="702"/>
      <point x="32" y="696"/>
      <point x="39" y="696" type="curve" smooth="yes"/>
      <point x="62" y="696"/>
      <point x="85" y="708"/>
      <point x="109" y="708" type="curve" smooth="yes"/>
      <point x="117" y="708"/>
      <point x="122" y="708"/>
      <point x="127" y="702" type="curve" smooth="yes"/>
      <point x="133" y="695"/>
      <point x="134" y="682"/>
      <point x="134" y="673" type="curve" smooth="yes"/>
      <point x="134" y="569"/>
      <point x="135" y="464"/>
      <point x="135" y="360" type="curve" smooth="yes"/>
      <point x="135" y="258"/>
      <point x="133" y="156"/>
      <point x="133" y="54" type="curve" smooth="yes"/>
      <point x="133" y="33"/>
      <point x="115" y="25"/>
      <point x="97" y="25" type="curve" smooth="yes"/>
      <point x="90" y="25"/>
      <point x="55" y="29"/>
      <point x="52" y="21" type="curve" smooth="yes"/>
      <point x="51" y="17"/>
      <point x="51" y="13"/>
      <point x="51" y="9" type="curve" smooth="yes"/>
      <point x="51" y="5"/>
      <point x="52" y="-1"/>
    </contour>
  </outline>
</glyph>
<glyph name="m" format="2">
  <advance height="1000" width="920"/>
  <unicode hex="006D"/>
  <note>
cid00078
</note>
  <outline>
    <contour>
      <point x="354" y="-1" type="curve" smooth="yes"/>
      <point x="392" y="-1"/>
      <point x="431" y="3"/>
      <point x="469" y="3" type="curve" smooth="yes"/>
      <point x="507" y="3"/>
      <point x="545" y="-1"/>
      <point x="583" y="-1" type="curve" smooth="yes"/>
      <point x="591" y="-1"/>
      <point x="595" y="6"/>
      <point x="595" y="13" type="curve" smooth="yes"/>
      <point x="595" y="17"/>
      <point x="593" y="26"/>
      <point x="587" y="26" type="curve" smooth="yes"/>
      <point x="577" y="26"/>
      <point x="566" y="24"/>
      <point x="555" y="24" type="curve" smooth="yes"/>
      <point x="538" y="24"/>
      <point x="516" y="31"/>
      <point x="516" y="51" type="curve" smooth="yes"/>
      <point x="516" y="119"/>
      <point x="517" y="187"/>
      <point x="517" y="255" type="curve" smooth="yes"/>
      <point x="517" y="294"/>
      <point x="516" y="333"/>
      <point x="516" y="372" type="curve" smooth="yes"/>
      <point x="516" y="391"/>
      <point x="516" y="410"/>
      <point x="514" y="429" type="curve"/>
      <point x="548" y="460"/>
      <point x="612" y="508"/>
      <point x="659" y="508" type="curve" smooth="yes"/>
      <point x="744" y="508"/>
      <point x="741" y="423"/>
      <point x="743" y="360" type="curve" smooth="yes"/>
      <point x="744" y="345"/>
      <point x="744" y="331"/>
      <point x="744" y="316" type="curve" smooth="yes"/>
      <point x="744" y="228"/>
      <point x="741" y="140"/>
      <point x="741" y="51" type="curve" smooth="yes"/>
      <point x="741" y="32"/>
      <point x="728" y="23"/>
      <point x="709" y="23" type="curve" smooth="yes"/>
      <point x="697" y="23"/>
      <point x="661" y="30"/>
      <point x="661" y="12" type="curve" smooth="yes"/>
      <point x="661" y="8"/>
      <point x="662" y="-1"/>
      <point x="668" y="-1" type="curve" smooth="yes"/>
      <point x="707" y="-1"/>
      <point x="746" y="3"/>
      <point x="785" y="3" type="curve" smooth="yes"/>
      <point x="824" y="3"/>
      <point x="862" y="-1"/>
      <point x="900" y="-1" type="curve" smooth="yes"/>
      <point x="908" y="-1"/>
      <point x="911" y="5"/>
      <point x="911" y="13" type="curve" smooth="yes"/>
      <point x="911" y="17"/>
      <point x="909" y="26"/>
      <point x="904" y="26" type="curve" smooth="yes"/>
      <point x="894" y="26"/>
      <point x="884" y="24"/>
      <point x="874" y="24" type="curve" smooth="yes"/>
      <point x="857" y="24"/>
      <point x="834" y="31"/>
      <point x="834" y="51" type="curve" smooth="yes"/>
      <point x="834" y="156"/>
      <point x="836" y="261"/>
      <point x="836" y="365" type="curve" smooth="yes"/>
      <point x="836" y="488"/>
      <point x="807" y="544"/>
      <point x="676" y="544" type="curve" smooth="yes"/>
      <point x="616" y="544"/>
      <point x="551" y="496"/>
      <point x="507" y="459" type="curve"/>
      <point x="474" y="521"/>
      <point x="429" y="540"/>
      <point x="361" y="540" type="curve" smooth="yes"/>
      <point x="303" y="540"/>
      <point x="243" y="490"/>
      <point x="201" y="455" type="curve"/>
      <point x="200" y="472"/>
      <point x="203" y="539"/>
      <point x="179" y="539" type="curve" smooth="yes"/>
      <point x="167" y="539"/>
      <point x="155" y="536"/>
      <point x="144" y="533" type="curve" smooth="yes"/>
      <point x="114" y="526"/>
      <point x="83" y="520"/>
      <point x="52" y="516" type="curve" smooth="yes"/>
      <point x="44" y="515"/>
      <point x="35" y="515"/>
      <point x="28" y="512" type="curve" smooth="yes"/>
      <point x="23" y="510"/>
      <point x="22" y="507"/>
      <point x="22" y="502" type="curve" smooth="yes"/>
      <point x="22" y="496"/>
      <point x="25" y="490"/>
      <point x="31" y="490" type="curve" smooth="yes"/>
      <point x="49" y="490"/>
      <point x="66" y="497"/>
      <point x="84" y="497" type="curve" smooth="yes"/>
      <point x="89" y="497"/>
      <point x="94" y="496"/>
      <point x="99" y="494" type="curve" smooth="yes"/>
      <point x="113" y="488"/>
      <point x="114" y="471"/>
      <point x="114" y="457" type="curve" smooth="yes"/>
      <point x="114" y="322"/>
      <point x="115" y="187"/>
      <point x="115" y="52" type="curve" smooth="yes"/>
      <point x="115" y="32"/>
      <point x="100" y="24"/>
      <point x="81" y="24" type="curve" smooth="yes"/>
      <point x="67" y="24"/>
      <point x="54" y="25"/>
      <point x="40" y="25" type="curve" smooth="yes"/>
      <point x="34" y="25"/>
      <point x="30" y="19"/>
      <point x="30" y="13" type="curve" smooth="yes"/>
      <point x="30" y="9"/>
      <point x="33" y="0"/>
      <point x="38" y="0" type="curve" smooth="yes"/>
      <point x="89" y="0"/>
      <point x="139" y="3"/>
      <point x="190" y="3" type="curve" smooth="yes"/>
      <point x="215" y="3"/>
      <point x="241" y="0"/>
      <point x="266" y="0" type="curve" smooth="yes"/>
      <point x="274" y="0"/>
      <point x="277" y="7"/>
      <point x="277" y="14" type="curve" smooth="yes"/>
      <point x="277" y="17"/>
      <point x="276" y="27"/>
      <point x="271" y="27" type="curve" smooth="yes"/>
      <point x="261" y="27"/>
      <point x="250" y="24"/>
      <point x="240" y="24" type="curve" smooth="yes"/>
      <point x="222" y="24"/>
      <point x="205" y="32"/>
      <point x="205" y="52" type="curve" smooth="yes"/>
      <point x="205" y="423" type="line"/>
      <point x="238" y="460"/>
      <point x="298" y="506"/>
      <point x="350" y="506" type="curve" smooth="yes"/>
      <point x="376" y="506"/>
      <point x="400" y="492"/>
      <point x="410" y="468" type="curve" smooth="yes"/>
      <point x="426" y="432"/>
      <point x="426" y="347"/>
      <point x="426" y="306" type="curve" smooth="yes"/>
      <point x="426" y="51" type="line" smooth="yes"/>
      <point x="426" y="31"/>
      <point x="411" y="23"/>
      <point x="393" y="23" type="curve" smooth="yes"/>
      <point x="382" y="23"/>
      <point x="364" y="25"/>
      <point x="354" y="23" type="curve" smooth="yes"/>
      <point x="348" y="21"/>
      <point x="346" y="19"/>
      <point x="346" y="12" type="curve" smooth="yes"/>
      <point x="346" y="8"/>
      <point x="348" y="-1"/>
    </contour>
  </outline>
</glyph>
<glyph name="p" format="2">
  <advance height="1000" width="608"/>
  <unicode hex="0070"/>
  <note>
cid00081
</note>
  <outline>
    <contour>
      <point x="38" y="-194" type="curve" smooth="yes"/>
      <point x="72" y="-194"/>
      <point x="106" y="-190"/>
      <point x="141" y="-190" type="curve" smooth="yes"/>
      <point x="182" y="-190"/>
      <point x="224" y="-194"/>
      <point x="265" y="-194" type="curve" smooth="yes"/>
      <point x="275" y="-194"/>
      <point x="280" y="-188"/>
      <point x="280" y="-179" type="curve" smooth="yes"/>
      <point x="280" y="-170"/>
      <point x="276" y="-166"/>
      <point x="267" y="-166" type="curve" smooth="yes"/>
      <point x="255" y="-166"/>
      <point x="243" y="-168"/>
      <point x="231" y="-168" type="curve" smooth="yes"/>
      <point x="217" y="-168"/>
      <point x="198" y="-169"/>
      <point x="198" y="-150" type="curve" smooth="yes"/>
      <point x="198" y="63" type="line"/>
      <point x="228" y="33"/>
      <point x="277" y="8"/>
      <point x="320" y="8" type="curve" smooth="yes"/>
      <point x="486" y="8"/>
      <point x="570" y="128"/>
      <point x="570" y="285" type="curve" smooth="yes"/>
      <point x="570" y="411"/>
      <point x="495" y="536"/>
      <point x="357" y="536" type="curve" smooth="yes"/>
      <point x="294" y="536"/>
      <point x="232" y="499"/>
      <point x="195" y="450" type="curve"/>
      <point x="195" y="465"/>
      <point x="196" y="514"/>
      <point x="192" y="526" type="curve" smooth="yes"/>
      <point x="190" y="533"/>
      <point x="188" y="536"/>
      <point x="181" y="536" type="curve" smooth="yes"/>
      <point x="178" y="536"/>
      <point x="34" y="508"/>
      <point x="27" y="506" type="curve" smooth="yes"/>
      <point x="21" y="504"/>
      <point x="18" y="500"/>
      <point x="18" y="494" type="curve" smooth="yes"/>
      <point x="18" y="488"/>
      <point x="23" y="484"/>
      <point x="29" y="484" type="curve" smooth="yes"/>
      <point x="42" y="484"/>
      <point x="56" y="489"/>
      <point x="69" y="489" type="curve" smooth="yes"/>
      <point x="100" y="489"/>
      <point x="106" y="479"/>
      <point x="107" y="450" type="curve" smooth="yes"/>
      <point x="108" y="389"/>
      <point x="109" y="327"/>
      <point x="109" y="265" type="curve" smooth="yes"/>
      <point x="109" y="126"/>
      <point x="108" y="-14"/>
      <point x="108" y="-153" type="curve" smooth="yes"/>
      <point x="108" y="-166"/>
      <point x="83" y="-167"/>
      <point x="74" y="-167" type="curve" smooth="yes"/>
      <point x="63" y="-167"/>
      <point x="52" y="-166"/>
      <point x="42" y="-166" type="curve" smooth="yes"/>
      <point x="33" y="-166"/>
      <point x="28" y="-171"/>
      <point x="28" y="-180" type="curve" smooth="yes"/>
      <point x="28" y="-186"/>
      <point x="29" y="-194"/>
    </contour>
    <contour>
      <point x="318" y="36" type="curve" smooth="yes"/>
      <point x="245" y="36"/>
      <point x="204" y="90"/>
      <point x="200" y="158" type="curve" smooth="yes"/>
      <point x="198" y="196"/>
      <point x="198" y="234"/>
      <point x="198" y="272" type="curve" smooth="yes"/>
      <point x="198" y="314"/>
      <point x="197" y="357"/>
      <point x="200" y="399" type="curve" smooth="yes"/>
      <point x="205" y="458"/>
      <point x="282" y="502"/>
      <point x="336" y="502" type="curve" smooth="yes"/>
      <point x="455" y="502"/>
      <point x="467" y="376"/>
      <point x="467" y="286" type="curve" smooth="yes"/>
      <point x="467" y="180"/>
      <point x="457" y="36"/>
    </contour>
  </outline>
</glyph>
<glyph name="q" format="2">
  <advance height="1000" width="608"/>
  <unicode hex="0071"/>
  <note>
cid00082
</note>
  <outline>
    <contour>
      <point x="347" y="-189" type="curve" smooth="yes"/>
      <point x="389" y="-189"/>
      <point x="430" y="-185"/>
      <point x="472" y="-185" type="curve" smooth="yes"/>
      <point x="512" y="-185"/>
      <point x="551" y="-189"/>
      <point x="590" y="-189" type="curve" smooth="yes"/>
      <point x="597" y="-189"/>
      <point x="600" y="-181"/>
      <point x="600" y="-175" type="curve" smooth="yes"/>
      <point x="600" y="-171"/>
      <point x="600" y="-162"/>
      <point x="594" y="-162" type="curve" smooth="yes"/>
      <point x="581" y="-162"/>
      <point x="569" y="-165"/>
      <point x="556" y="-165" type="curve" smooth="yes"/>
      <point x="538" y="-165"/>
      <point x="520" y="-157"/>
      <point x="520" y="-136" type="curve" smooth="yes"/>
      <point x="520" y="437" type="line" smooth="yes"/>
      <point x="520" y="464"/>
      <point x="522" y="491"/>
      <point x="522" y="519" type="curve" smooth="yes"/>
      <point x="522" y="527"/>
      <point x="521" y="531"/>
      <point x="510" y="531" type="curve" smooth="yes"/>
      <point x="491" y="531"/>
      <point x="457" y="481"/>
      <point x="447" y="464" type="curve"/>
      <point x="415" y="507"/>
      <point x="357" y="532"/>
      <point x="303" y="532" type="curve" smooth="yes"/>
      <point x="136" y="532"/>
      <point x="44" y="416"/>
      <point x="44" y="255" type="curve" smooth="yes"/>
      <point x="44" y="168"/>
      <point x="84" y="83"/>
      <point x="159" y="37" type="curve" smooth="yes"/>
      <point x="196" y="14"/>
      <point x="242" y="9"/>
      <point x="284" y="9" type="curve" smooth="yes"/>
      <point x="333" y="9"/>
      <point x="395" y="37"/>
      <point x="429" y="71" type="curve"/>
      <point x="429" y="-136" type="line" smooth="yes"/>
      <point x="429" y="-157"/>
      <point x="411" y="-165"/>
      <point x="393" y="-165" type="curve" smooth="yes"/>
      <point x="385" y="-165"/>
      <point x="377" y="-164"/>
      <point x="369" y="-164" type="curve" smooth="yes"/>
      <point x="362" y="-164"/>
      <point x="340" y="-162"/>
      <point x="340" y="-172" type="curve" smooth="yes"/>
      <point x="340" y="-177"/>
      <point x="340" y="-189"/>
    </contour>
    <contour>
      <point x="283" y="41" type="curve" smooth="yes"/>
      <point x="169" y="41"/>
      <point x="140" y="171"/>
      <point x="140" y="262" type="curve" smooth="yes"/>
      <point x="140" y="358"/>
      <point x="165" y="510"/>
      <point x="290" y="510" type="curve" smooth="yes"/>
      <point x="376" y="510"/>
      <point x="423" y="445"/>
      <point x="427" y="364" type="curve" smooth="yes"/>
      <point x="428" y="336"/>
      <point x="428" y="308"/>
      <point x="428" y="279" type="curve" smooth="yes"/>
      <point x="428" y="239"/>
      <point x="429" y="198"/>
      <point x="427" y="157" type="curve" smooth="yes"/>
      <point x="423" y="84"/>
      <point x="351" y="41"/>
    </contour>
  </outline>
</glyph>
<glyph name="r" format="2">
  <advance height="1000" width="444"/>
  <unicode hex="0072"/>
  <note>
cid00083
</note>
  <outline>
    <contour>
      <point x="24" y="-2" type="curve" smooth="yes"/>
      <point x="66" y="-2"/>
      <point x="108" y="2"/>
      <point x="150" y="2" type="curve" smooth="yes"/>
      <point x="190" y="2"/>
      <point x="230" y="-1"/>
      <point x="270" y="-1" type="curve" smooth="yes"/>
      <point x="281" y="-1"/>
      <point x="286" y="3"/>
      <point x="286" y="15" type="curve" smooth="yes"/>
      <point x="286" y="20"/>
      <point x="283" y="28"/>
      <point x="277" y="28" type="curve" smooth="yes"/>
      <point x="264" y="28"/>
      <point x="250" y="26"/>
      <point x="237" y="26" type="curve" smooth="yes"/>
      <point x="220" y="26"/>
      <point x="199" y="34"/>
      <point x="199" y="54" type="curve" smooth="yes"/>
      <point x="199" y="125"/>
      <point x="198" y="197"/>
      <point x="198" y="269" type="curve" smooth="yes"/>
      <point x="198" y="289"/>
      <point x="198" y="310"/>
      <point x="199" y="331" type="curve" smooth="yes"/>
      <point x="202" y="373"/>
      <point x="273" y="474"/>
      <point x="318" y="483" type="curve" smooth="yes"/>
      <point x="323" y="484"/>
      <point x="328" y="484"/>
      <point x="333" y="484" type="curve" smooth="yes"/>
      <point x="388" y="484"/>
      <point x="368" y="418"/>
      <point x="409" y="418" type="curve" smooth="yes"/>
      <point x="424" y="418"/>
      <point x="435" y="431"/>
      <point x="435" y="445" type="curve" smooth="yes"/>
      <point x="435" y="460"/>
      <point x="432" y="476"/>
      <point x="430" y="491" type="curve" smooth="yes"/>
      <point x="427" y="517"/>
      <point x="422" y="541"/>
      <point x="390" y="541" type="curve" smooth="yes"/>
      <point x="300" y="541"/>
      <point x="238" y="460"/>
      <point x="195" y="390" type="curve"/>
      <point x="195" y="411"/>
      <point x="196" y="516"/>
      <point x="191" y="526" type="curve" smooth="yes"/>
      <point x="188" y="532"/>
      <point x="184" y="535"/>
      <point x="178" y="537" type="curve"/>
      <point x="142" y="527"/>
      <point x="106" y="521"/>
      <point x="70" y="515" type="curve" smooth="yes"/>
      <point x="57" y="513"/>
      <point x="41" y="512"/>
      <point x="28" y="508" type="curve" smooth="yes"/>
      <point x="23" y="506"/>
      <point x="21" y="503"/>
      <point x="21" y="498" type="curve" smooth="yes"/>
      <point x="21" y="492"/>
      <point x="22" y="486"/>
      <point x="29" y="486" type="curve" smooth="yes"/>
      <point x="41" y="486"/>
      <point x="52" y="489"/>
      <point x="63" y="489" type="curve" smooth="yes"/>
      <point x="90" y="489"/>
      <point x="102" y="479"/>
      <point x="104" y="452" type="curve" smooth="yes"/>
      <point x="109" y="396"/>
      <point x="107" y="339"/>
      <point x="108" y="282" type="curve" smooth="yes"/>
      <point x="108" y="185" type="line" smooth="yes"/>
      <point x="108" y="141"/>
      <point x="108" y="97"/>
      <point x="105" y="54" type="curve" smooth="yes"/>
      <point x="104" y="33"/>
      <point x="90" y="25"/>
      <point x="70" y="25" type="curve" smooth="yes"/>
      <point x="56" y="25"/>
      <point x="39" y="28"/>
      <point x="25" y="25" type="curve" smooth="yes"/>
      <point x="19" y="24"/>
      <point x="17" y="20"/>
      <point x="17" y="14" type="curve" smooth="yes"/>
      <point x="17" y="9"/>
      <point x="18" y="-2"/>
    </contour>
  </outline>
</glyph>
